SplineFontDB: 3.0
FontName: LinBiolinumO
FullName: Linux Biolinum O
FamilyName: Linux Biolinum O
Weight: Book
Copyright: Linux Libertine by Philipp H. Poll, Open Font under Terms of following Free Software Licenses:\nGPL (General Public License) with font-exception and OFL (Open Font License).\nCreated with FontForge (http://fontforge.sf.net) Sept 2003, 2004, 2005, 2006, 2007, 2008
Version: 0.4.4
ItalicAngle: 0
UnderlinePosition: -138
UnderlineWidth: 40
Ascent: 800
Descent: 200
LayerCount: 2
Layer: 0 0 "Back" 
Layer: 1 0 "Fore" 
XUID: [1021 697 1618466747 1857986]
FSType: 0
OS2Version: 3
OS2_WeightWidthSlopeOnly: 0
OS2_UseTypoMetrics: 1
CreationTime: 1156455862
ModificationTime: 1240867406
PfmFamily: 17
TTFWeight: 400
TTFWidth: 5
LineGap: 0
VLineGap: 0
Panose: 2 0 5 3 0 0 0 0 0 0
OS2TypoAscent: 94
OS2TypoAOffset: 1
OS2TypoDescent: -46
OS2TypoDOffset: 1
OS2TypoLinegap: 0
OS2WinAscent: -2
OS2WinAOffset: 1
OS2WinDescent: -1
OS2WinDOffset: 1
HheadAscent: -2
HheadAOffset: 1
HheadDescent: 1
HheadDOffset: 1
OS2SubXSize: 650
OS2SubYSize: 699
OS2SubXOff: 0
OS2SubYOff: 140
OS2SupXSize: 650
OS2SupYSize: 699
OS2SupXOff: 0
OS2SupYOff: 479
OS2StrikeYSize: 49
OS2StrikeYPos: 258
OS2FamilyClass: 261
OS2Vendor: 'PfEd'
OS2CodePages: 600001bf.00000000
OS2UnicodeRanges: e0000aff.5000e5fb.00000020.00000000
Lookup: 3 0 0 "'aalt' Access All Alternates lookup 0"  {"'aalt' Access All Alternates lookup 0 subtable"  } ['aalt' ('DFLT' <'dflt' > 'cyrl' <'dflt' > 'grek' <'dflt' > 'latn' <'AZE ' 'CRT ' 'DEU ' 'MOL ' 'ROM ' 'TRK ' 'dflt' > ) ]
Lookup: 1 0 0 "'locl' Localized Forms in Latin lookup 1"  {"'locl' Localized Forms in Latin lookup 1 subtable"  } ['locl' ('latn' <'MOL ' 'ROM ' > ) ]
Lookup: 1 0 0 "'smcp' Gemeine nach Kapit+AOQA-lchen lookup 2"  {"'smcp' Gemeine nach Kapit+AOQA-lchen lookup 2 subtable"  } ['smcp' ('DFLT' <'dflt' > 'cyrl' <'dflt' > 'grek' <'dflt' > 'latn' <'DEU ' 'MOL ' 'ROM ' 'dflt' > ) ]

StartChar: .notdef
Encoding: 65536 -1 0
Width: 500
Flags: MW
HStem: 0 50<80 420 80 500> 647 51<80 420 80 80>
VStem: 0 50<95 603 95 698> 450 50<95 603 603 603>
LayerCount: 2
Fore
SplineSet
50 603 m 1
 50 95 l 1
 220 349 l 1
 50 603 l 1
80 50 m 1
 420 50 l 1
 250 304 l 1
 80 50 l 1
280 349 m 1
 450 95 l 1
 450 603 l 1
 280 349 l 1
250 394 m 1
 420 647 l 1
 80 647 l 1
 250 394 l 1
0 0 m 1
 0 698 l 1
 500 698 l 1
 500 0 l 1
 0 0 l 1
EndSplineSet
EndChar

StartChar: exclam
Encoding: 33 33 2
Width: 228
GlyphClass: 2
Flags: MW
HStem: -10 112<111 115 111 115> 638 20G<102 126.5>
VStem: 59 110<552.5 610>
LayerCount: 2
Fore
SplineSet
113 658 m 0
 140 658 169 635 169 585 c 0
 169 520 153.174 477.979 143 392 c 0
 130.218 283.975 129 224 127 210 c 0
 126 199 123 190 113 190 c 0
 102 190 100 197 99 203 c 0
 97 224 91.9883 313.999 84 392 c 0
 74.9873 479.999 59 515 59 585 c 0
 59 639 91 658 113 658 c 0
57 44 m 1
 57 48 l 1
 66.25 74.5 80.75 89.75 111 102 c 1
 115 102 l 1
 144 91.5 159.75 76.25 169 48 c 1
 169 44 l 1
 158.75 11.75 143.25 -3 115 -10 c 1
 111 -10 l 1
 79.75 -3 65.75 10.5 57 44 c 1
EndSplineSet
EndChar

StartChar: quotedbl
Encoding: 34 34 3
Width: 336
GlyphClass: 2
Flags: MW
HStem: 427 218<215 253>
VStem: 63 86<603 605> 189 86<604 606>
LayerCount: 2
Fore
SplineSet
215 427 m 1
 215 427 189 586 189 595 c 0
 189 617 210 645 240 645 c 0
 266 645 275 628 275 612 c 0
 275 596 242 431 242 431 c 1
 215 427 l 1
89 426 m 1
 89 426 63 585 63 594 c 0
 63 616 84 644 114 644 c 0
 140 644 149 627 149 611 c 0
 149 595 116 430 116 430 c 1
 89 426 l 1
EndSplineSet
EndChar

StartChar: numbersign
Encoding: 35 35 4
Width: 440
GlyphClass: 2
Flags: MW
HStem: 183 48<32 115 25 123 156 258 32 149 299 382> 341 49<58 140 50 148 181 284 58 174 324 407>
LayerCount: 2
Fore
SplineSet
267 231 m 1
 284 341 l 1
 174 341 l 1
 156 231 l 1
 267 231 l 1
317 341 m 1
 299 231 l 1
 389 231 l 1
 382 183 l 1
 293 183 l 1
 265 13 l 1
 232 13 l 1
 258 183 l 1
 149 183 l 1
 121 13 l 1
 88 13 l 1
 115 183 l 1
 25 183 l 1
 32 231 l 1
 123 231 l 1
 140 341 l 1
 50 341 l 1
 58 390 l 1
 148 390 l 1
 175 560 l 1
 209 560 l 1
 181 390 l 1
 292 390 l 1
 318 560 l 1
 351 560 l 1
 324 390 l 1
 415 390 l 1
 407 341 l 1
 317 341 l 1
EndSplineSet
EndChar

StartChar: dollar
Encoding: 36 36 5
Width: 440
GlyphClass: 2
Flags: MW
HStem: -10 38.0031 536.853 34.5075
VStem: 47 64<416.864 465.2> 198 34<-81 -9.86523 -9.86523 -9.86523 31.5732 243.658 340.736 534.327 571.518 627.001> 316 74<123.627 165.088>
LayerCount: 2
Fore
SplineSet
198 28.0029 m 1
 198 257.457 l 1
 123.66 288.124 47 330.585 47 422 c 0
 47 508.4 125.495 564.813 198 571.361 c 1
 198 627.001 l 1
 232 627.001 l 1
 232 571.518 l 1
 322.576 567.043 354 533 354 533 c 1
 356 530 l 1
 348 504 342 478 339 447 c 1
 330 446 l 1
 309.777 491.5 278.905 524.931 232 534.327 c 1
 232 327.205 l 1
 304.043 301.15 390 260.705 390 161.999 c 0
 390 85.2549 316.389 12.9727 232 -5.47949 c 1
 232 -81 l 1
 198 -81 l 1
 198 -9.86523 l 1
 195.668 -9.95508 193.334 -10 191 -10 c 0
 85 -10 34 30 34 30 c 1
 32 33 l 1
 39 59 46 87 50 118 c 1
 58 119 l 1
 82.8672 65.2861 135.439 28.3926 198 28.0029 c 1
198 340.736 m 1
 198 536.854 l 1
 144.485 534.209 111 496.115 111 445 c 0
 111 388.729 159.254 358.111 198 340.736 c 1
232 243.658 m 1
 232 31.5732 l 1
 277.874 41.8154 316 74.2471 316 131.001 c 0
 316 199.175 277.59 224.234 232 243.658 c 1
EndSplineSet
EndChar

StartChar: percent
Encoding: 37 37 6
Width: 637
GlyphClass: 2
Flags: MW
HStem: -12 29<467.5 504.5 467.5 512.5> 225 31<498.5 530> 303 29<146 182.5 146 191> 484 37<355 369> 540 31<176.5 204 154 210>
VStem: 59 51<386.5 427 372 450.5> 246 31<450 484.5 448 504> 380 52<71.5 112 57 135.5> 568 30<136 190>
LayerCount: 2
Fore
SplineSet
432 83 m 0
 432 31 458 17 477 17 c 0
 532 17 568 108 568 164 c 0
 568 216 537 225 523 225 c 0
 474 225 432 141 432 83 c 0
380 98 m 0
 380 173 438 256 512 256 c 0
 552 256 598 238 598 165 c 0
 598 98 554 -12 471 -12 c 0
 410 -12 380 45 380 98 c 0
364 521 m 0
 406 521 483 533 514 575 c 1
 546 559 l 1
 136 -12 l 1
 102 3 l 1
 461 503 l 1
 423 488 384 484 354 484 c 0
 331 484 293 494 274 505 c 1
 276 498 277 489 277 480 c 0
 277 416 233 303 149 303 c 0
 87 303 59 361 59 412 c 0
 59 489 118 571 190 571 c 0
 218 571 247 558 257 546 c 1
 311 521 346 521 364 521 c 0
110 398 m 0
 110 346 137 332 155 332 c 0
 210 332 246 421 246 479 c 0
 246 529 219 540 201 540 c 0
 152 540 110 456 110 398 c 0
EndSplineSet
EndChar

StartChar: ampersand
Encoding: 38 38 7
Width: 705
GlyphClass: 2
Flags: MW
HStem: -10 37<215.5 282.5 215.5 282.5> -10 54<563 582.5> 412 20G 609 39<313 346.5>
VStem: 44 79<107 191.5 107 202.014> 178 72<507.5 546.5> 391 67<521 561.5> 647 16<90 98>
LayerCount: 2
Fore
SplineSet
250 338 m 1xbf
 147 281 123 227 123 156 c 0
 123 58 184 27 247 27 c 0
 318 27 343 66 392 133 c 1
 335 208 261 317 250 338 c 1xbf
288 411 m 1
 352 453 391 503 391 539 c 0
 391 584 367 609 326 609 c 0
 300 609 250 585 250 519 c 0
 250 496 260 457 288 411 c 1
432 192 m 1
 503 297 528 366 536 432 c 1
 546 429 565 429 575 429 c 0
 585 429 608 429 618 432 c 1
 579 365 482.268 186.958 460 153 c 1
 494 107 l 2
 525 63 555 44 571 44 c 0
 604 44 627 59 647 98 c 1
 663 90 l 1
 640 20 600 -10 565 -10 c 0x7f
 534 -10 497 -8 450 57 c 2
 421 94 l 1
 375 31 325 -10 240 -10 c 0
 133 -10 44 38 44 166 c 0
 44 238.028 96 301 228 375 c 1
 190 434 178 479 178 517 c 0
 178 576 231 648 331 648 c 0
 401 648 458 602 458 539 c 0
 458 484 393 419 310 371 c 1
 314 363 l 2
 332 332 386 254 432 192 c 1
EndSplineSet
Substitution2: "'salt' Stilistische Alternativformen lookup 18 subtable" ampersand.alt
Substitution2: "'c2sc' Capitals to Small Capitals lookup 9 subtable" ampersand.alt
Substitution2: "'smcp' Gemeine nach Kapit+AOQA-lchen lookup 3 subtable" ampersand.alt
AlternateSubs2: "'aalt' Access All Alternates lookup 0 subtable" ampersand.alt
EndChar

StartChar: quotesingle
Encoding: 39 39 8
Width: 190
GlyphClass: 2
Flags: MW
HStem: 426 218<79 117>
VStem: 53 86<603 605>
LayerCount: 2
Fore
SplineSet
79 426 m 1
 79 426 53 585 53 594 c 0
 53 616 74 644 104 644 c 0
 130 644 139 627 139 611 c 0
 139 595 106 430 106 430 c 1
 79 426 l 1
EndSplineSet
EndChar

StartChar: parenleft
Encoding: 40 40 9
Width: 300
GlyphClass: 2
Flags: MW
VStem: 44 83<229.5 345>
LayerCount: 2
Fore
SplineSet
44 252 m 0
 44 438 137 605 256 707 c 1
 279 689 l 1
 247 653 127 515 127 252 c 0
 127 -11 246 -149 279 -187 c 1
 256 -204 l 1
 48 -24 44 207 44 252 c 0
EndSplineSet
Substitution2: "'case' Case-Sensitive Forms lookup 23 subtable" parenleft.sc
Substitution2: "'c2sc' Capitals to Small Capitals lookup 9 subtable" parenleft.sc
Substitution2: "'sinf' Wissenschaftliche Indices lookup 8 subtable" parenleft.inferior
Substitution2: "'sups' Superscript lookup 7 subtable" parenleft.superior
AlternateSubs2: "'aalt' Access All Alternates lookup 0 subtable" parenleft.sc
EndChar

StartChar: parenright
Encoding: 41 41 10
Width: 300
GlyphClass: 2
Flags: MW
VStem: 173 83<159 274.5 159 383.5>
LayerCount: 2
Fore
SplineSet
256 252 m 0
 256 66 163 -101 44 -203 c 1
 21 -185 l 1
 53 -149 173 -11 173 252 c 0
 173 515 54 653 21 691 c 1
 44 708 l 1
 252 528 256 297 256 252 c 0
EndSplineSet
Substitution2: "'case' Case-Sensitive Forms lookup 23 subtable" parenright.sc
Substitution2: "'c2sc' Capitals to Small Capitals lookup 9 subtable" parenright.sc
Substitution2: "'sinf' Wissenschaftliche Indices lookup 8 subtable" parenright.inferior
Substitution2: "'sups' Superscript lookup 7 subtable" parenright.superior
AlternateSubs2: "'aalt' Access All Alternates lookup 0 subtable" parenright.sc
EndChar

StartChar: asterisk
Encoding: 42 42 11
Width: 433
GlyphClass: 2
Flags: W
LayerCount: 2
Fore
SplineSet
198 567 m 1
 185 570 171 571 156 571 c 0
 107 571 75 578 75 608 c 0
 75 622 84 638 108 638 c 0
 142 638 160 605 204 587 c 1
 200 626 181 653 181 679 c 0
 181 700 193 718 211 718 c 0
 229 718 244 707 244 683 c 0
 244 656 227 616 225 586 c 1
 271 606 287 638 320 638 c 0
 347 638 354 618 354 608 c 0
 354 578 319 571 285 571 c 0
 266 571 248 570 230 567 c 1
 264 530 313 520 313 480 c 0
 313 462 298 451 284 451 c 0
 245 451 238 516 213 555 c 1
 188 510 181 451 143 451 c 0
 126 451 114 464 114 479 c 0
 114 522 165 530 198 567 c 1
EndSplineSet
EndChar

StartChar: plus
Encoding: 43 43 12
Width: 527
GlyphClass: 2
Flags: MW
HStem: 208 49<66 238 66 238 289 461>
VStem: 238 51<34 208 34 208 257 431>
LayerCount: 2
Fore
SplineSet
289 257 m 1
 461 257 l 1
 461 208 l 1
 289 208 l 1
 289 34 l 1
 238 34 l 1
 238 208 l 1
 66 208 l 1
 66 257 l 1
 238 257 l 1
 238 431 l 1
 289 431 l 1
 289 257 l 1
EndSplineSet
Substitution2: "'sinf' Wissenschaftliche Indices lookup 8 subtable" plus.inferior
Substitution2: "'sups' Superscript lookup 7 subtable" plus.superior
AlternateSubs2: "'aalt' Access All Alternates lookup 0 subtable" plus.superior plus.inferior uni2098
EndChar

StartChar: comma
Encoding: 44 44 13
Width: 220
GlyphClass: 2
Flags: MW
HStem: -133 25 -3 105<102 106 102 108.25>
VStem: 131 39<-38 -16.75>
LayerCount: 2
Fore
SplineSet
48 44 m 1
 48 48 l 1
 57.25 74.5 71.75 89.75 102 102 c 1
 106 102 l 1
 142.205 88.8906 170 61.8037 170 -3 c 0
 170 -73 110 -122 50 -133 c 1
 43.25 -127.125 41.625 -117.875 45 -108 c 1
 97 -95 131 -50 131 -29 c 0
 131 -4.5 114.5 -3 102 -3 c 1
 70.75 4 56.75 10.5 48 44 c 1
EndSplineSet
EndChar

StartChar: hyphen
Encoding: 45 45 14
Width: 333
GlyphClass: 2
Flags: MW
HStem: 236 54<43.5 287 58 274>
VStem: 33 268<248.5 276.5>
LayerCount: 2
Fore
SplineSet
274 236 m 2
 48 236 l 2
 39 236 33 244 33 253 c 0
 33 269 46 290 58 290 c 2
 287 290 l 2
 297 290 301 281 301 272 c 0
 301 261 287 236 274 236 c 2
EndSplineSet
Substitution2: "'case' Case-Sensitive Forms lookup 23 subtable" hyphen.cap
Substitution2: "'c2sc' Capitals to Small Capitals lookup 9 subtable" hyphen.sc
Substitution2: "'smcp' Gemeine nach Kapit+AOQA-lchen lookup 3 subtable" hyphen.sc
AlternateSubs2: "'aalt' Access All Alternates lookup 0 subtable" hyphen.sc
EndChar

StartChar: period
Encoding: 46 46 15
Width: 220
GlyphClass: 2
Flags: MW
HStem: -10 112<108 112 108 112>
VStem: 54 112<44 48 44 48>
LayerCount: 2
Fore
SplineSet
54 44 m 1
 54 48 l 1
 63.25 74.5 77.75 89.75 108 102 c 1
 112 102 l 1
 141 91.5 156.75 76.25 166 48 c 1
 166 44 l 1
 155.75 11.75 140.25 -3 112 -10 c 1
 108 -10 l 1
 76.75 -3 62.75 10.5 54 44 c 1
EndSplineSet
EndChar

StartChar: slash
Encoding: 47 47 16
Width: 323
GlyphClass: 3
Flags: MW
HStem: 626 20G<252 293 293 293>
VStem: 15 278
LayerCount: 2
Fore
SplineSet
293 646 m 1
 56 -59 l 1
 15 -59 l 1
 252 646 l 1
 293 646 l 1
EndSplineSet
Ligature2: "'frac' Diagonal Fractions lookup 6 subtable" uni2215
AlternateSubs2: "'aalt' Access All Alternates lookup 0 subtable" uni2215
EndChar

StartChar: zero
Encoding: 48 48 17
Width: 440
GlyphClass: 2
Flags: MW
HStem: -10 37<173 225.5 173 252.5> 538 40<198.5 228>
VStem: 37 81<227 371.5> 319 80<261.5 334 176 368.5>
LayerCount: 2
Fore
SplineSet
220 538 m 0
 177 538 118 501 118 268 c 0
 118 186 129 27 217 27 c 0
 234 27 279.941 37.0156 301 115 c 0
 313.964 163.01 319 218 319 305 c 0
 319 432 291 498 262 523 c 0
 251 533 236 538 220 538 c 0
216 -10 m 0
 109 -10 37 125 37 278 c 0
 37 465 126 578 220 578 c 0
 263 578 306 551 335 512 c 0
 377 457 399 381 399 287 c 0
 399 65 289 -10 216 -10 c 0
EndSplineSet
Substitution2: "'zero' gestrichene Null lookup 17 subtable" zero.slash
Substitution2: "'onum' Minuskelziffern lookup 16 subtable" zero.taboldstyle
Substitution2: "'pnum' Proportionalziffern lookup 15 subtable" zero.fitted
Substitution2: "'sinf' Wissenschaftliche Indices lookup 8 subtable" zero.inferior
Substitution2: "'sups' Superscript lookup 7 subtable" zero.superior
AlternateSubs2: "'aalt' Access All Alternates lookup 0 subtable" zero.oldstyle zero.fitted zero.slash zero.slashfitted perthousandzero
EndChar

StartChar: one
Encoding: 49 49 18
Width: 440
GlyphClass: 2
Flags: MW
HStem: -3 21G<199 199 294 294> 558 20G<289 290.75>
VStem: 208 77<179 418 418 419>
LayerCount: 2
Fore
SplineSet
285 179 m 2
 285 103.766 287.5 57 296 0 c 1
 294 -3 l 1
 294 -3 281.333 0 247 0 c 0
 212 0 199 -3 199 -3 c 1
 198 0 l 1
 206.5 53.5 208 105.483 208 179 c 2
 208 418 l 2
 208 452 207.5 476 191 476 c 0
 172 476 149.5 470 104 451 c 1
 89 478 l 1
 177 519 233.667 543.667 289 578 c 1
 292.5 578 295 577.75 295 573 c 0
 293.333 560 285 521 285 419 c 2
 285 179 l 2
EndSplineSet
Substitution2: "'onum' Minuskelziffern lookup 16 subtable" one.taboldstyle
Substitution2: "'pnum' Proportionalziffern lookup 15 subtable" one.fitted
Substitution2: "'sinf' Wissenschaftliche Indices lookup 8 subtable" one.inferior
Substitution2: "'sups' Superscript lookup 7 subtable" one.superior
AlternateSubs2: "'aalt' Access All Alternates lookup 0 subtable" one.oldstyle one.superior one.fitted
EndChar

StartChar: two
Encoding: 50 50 19
Width: 440
GlyphClass: 2
Flags: MW
HStem: -4 65 542 36<178.5 230>
VStem: 57 71<433 499> 307 83<399.5 475.5>
LayerCount: 2
Fore
SplineSet
225 0 m 0
 153 0 123 -2 57 -4 c 1
 56 0 l 1
 56 56 64 99 157 194 c 2
 227 263 l 2
 283 320 307 369 307 430 c 0
 307 521 247 542 213 542 c 0
 144 542 128 511 128 487 c 0
 128 479 130 471 132 464 c 0
 134 457 136 450 136 442 c 0
 136 416 113 406 97 406 c 0
 75 406 57 423 57 443 c 0
 57 500 114 578 219 578 c 0
 296 578 390 536 390 434 c 0
 390 362 348.853 320.152 295 268 c 2
 200 176 l 2
 195 171 126 106 126 61 c 1
 214 61 l 2
 309 61 335 65 390 69 c 1
 387 57 385 44 385 32 c 0
 385 20 387 8 390 -4 c 1
 319 -1 296 0 225 0 c 0
EndSplineSet
Substitution2: "'onum' Minuskelziffern lookup 16 subtable" two.taboldstyle
Substitution2: "'pnum' Proportionalziffern lookup 15 subtable" two.fitted
Substitution2: "'sinf' Wissenschaftliche Indices lookup 8 subtable" two.inferior
Substitution2: "'sups' Superscript lookup 7 subtable" two.superior
AlternateSubs2: "'aalt' Access All Alternates lookup 0 subtable" two.oldstyle two.superior two.fitted
EndChar

StartChar: three
Encoding: 51 51 20
Width: 440
GlyphClass: 2
Flags: MW
HStem: -10 36<170 210.5 170 238.5> 298 30<157 161> 542 36<204.5 237.5>
VStem: 55 67<463 470.5> 292 73<464.5 490.5> 315 82<125 231.5>
LayerCount: 2
Fore
SplineSet
217 542 m 0xf8
 192 542 122 533 122 472 c 0
 122 454 112 423 85 423 c 0
 59 423 55 452 55 455 c 0
 55 486 98 578 237 578 c 0
 334 578 365 517 365 477 c 0xf8
 365 452 355 402 265 345 c 1
 321 336 397 295 397 191 c 0
 397 59 295 -10 182 -10 c 0
 125 -10 45 15 45 53 c 0
 45 68 63 85 83 85 c 0
 102 85 111 75 120 62 c 0
 131 45 146 26 194 26 c 0
 227 26 315 52 315 178 c 0xf4
 315 285 246 302 192 302 c 0
 183 302 172 300 161 298 c 1
 157 328 l 1
 234 341 292 416 292 462 c 0
 292 519 258 542 217 542 c 0xf8
EndSplineSet
Substitution2: "'onum' Minuskelziffern lookup 16 subtable" three.taboldstyle
Substitution2: "'pnum' Proportionalziffern lookup 15 subtable" three.fitted
Substitution2: "'sinf' Wissenschaftliche Indices lookup 8 subtable" three.inferior
Substitution2: "'sups' Superscript lookup 7 subtable" three.superior
AlternateSubs2: "'aalt' Access All Alternates lookup 0 subtable" three.oldstyle three.superior three.fitted
EndChar

StartChar: four
Encoding: 52 52 21
Width: 440
GlyphClass: 2
Flags: MW
HStem: -3 21G<248 248 338 338> 152.999 45.001 558 20G<261 264.5>
VStem: 257 72<152.999 152.999 198 355 355 358.5>
LayerCount: 2
Fore
SplineSet
73 152.999 m 2
 44.5 152.999 30.5 179.25 28 193 c 0
 28 194 29 195 30 196 c 0
 95 268 215.998 490.001 256 573 c 0
 257.79 576.714 259 578 263 578 c 0
 266 578 291 569 303 567 c 1
 252 445 174 314 101 198 c 1
 257 198 l 1
 257 355 l 2
 257 362 260 370 269 375 c 0
 280 383 298 392 313 392 c 0
 326 392 329 381 329 361 c 2
 329 198 l 1
 407.004 198 l 2
 417.004 198 421.004 191.999 421.004 182.999 c 0
 421.004 171.999 407.004 152.999 394.004 152.999 c 2
 329 152.999 l 1
 329.022 78.5713 331.538 56.7461 340 0 c 1
 338 -3 l 1
 338 -3 327.333 0 293 0 c 0
 258 0 248 -3 248 -3 c 1
 247 0 l 1
 255.461 53.2568 256.986 80.2373 257 152.999 c 1
 73 152.999 l 2
EndSplineSet
Substitution2: "'onum' Minuskelziffern lookup 16 subtable" four.taboldstyle
Substitution2: "'pnum' Proportionalziffern lookup 15 subtable" four.fitted
Substitution2: "'sinf' Wissenschaftliche Indices lookup 8 subtable" four.inferior
Substitution2: "'sups' Superscript lookup 7 subtable" four.superior
AlternateSubs2: "'aalt' Access All Alternates lookup 0 subtable" four.oldstyle four.superior four.fitted
EndChar

StartChar: five
Encoding: 53 53 22
Width: 440
GlyphClass: 2
Flags: MW
HStem: -10 39<177 225 177 247.5> 323 47<197.5 223> 505 63<188.5 268> 510 68<353 362>
VStem: 301 82<130 220.5>
LayerCount: 2
Fore
SplineSet
301 169 m 0xe8
 301 272 254 323 192 323 c 0
 146 323 106 316 67 300 c 1
 99 573 l 1
 132 570 171 568 206 568 c 0xe8
 256 568 308 572 362 578 c 1
 368 575 l 1
 353 510 l 1xd8
 314 506 282 505 254 505 c 0
 209 505 175 509 140 513 c 1
 121 355 l 1
 142 363 178 370 217 370 c 0
 323 370 383 278 383 186 c 0
 383 74 304 -10 191 -10 c 0
 134 -10 51 22 51 61 c 0
 51 80 67 93 85 93 c 0
 105 93 118.136 78.1016 130 62 c 0
 144 43 161 29 193 29 c 0
 257 29 301 82 301 169 c 0xe8
EndSplineSet
Substitution2: "'onum' Minuskelziffern lookup 16 subtable" five.taboldstyle
Substitution2: "'pnum' Proportionalziffern lookup 15 subtable" five.fitted
Substitution2: "'sinf' Wissenschaftliche Indices lookup 8 subtable" five.inferior
Substitution2: "'sups' Superscript lookup 7 subtable" five.superior
AlternateSubs2: "'aalt' Access All Alternates lookup 0 subtable" five.oldstyle five.superior five.fitted
EndChar

StartChar: six
Encoding: 54 54 23
Width: 440
GlyphClass: 2
Flags: MW
HStem: -10 29<216 264 216 300> 307 32<217 264> 552 26<376 379>
VStem: 44 75<143 232 143 276> 330 75<137 187.5>
LayerCount: 2
Fore
SplineSet
120 262 m 1
 119 252 119 237 119 227 c 0
 119 59 191 19 241 19 c 0
 287 19 330 60 330 164 c 0
 330 211 312 307 216 307 c 0
 195 307 160 305 120 262 c 1
379 552 m 1
 314 546 258.011 528.989 210 482 c 0
 164.011 436.989 134 370 123 290 c 1
 146 318 198 339 236 339 c 0
 384 339 405 217 405 171 c 0
 405 103 369 -10 231 -10 c 0
 158 -10 44 31 44 230 c 0
 44 322 78.2686 411.733 147 481 c 0
 211.251 545.751 278 573 376 578 c 1
 379 552 l 1
EndSplineSet
Substitution2: "'onum' Minuskelziffern lookup 16 subtable" six.taboldstyle
Substitution2: "'pnum' Proportionalziffern lookup 15 subtable" six.fitted
Substitution2: "'sinf' Wissenschaftliche Indices lookup 8 subtable" six.inferior
Substitution2: "'sups' Superscript lookup 7 subtable" six.superior
AlternateSubs2: "'aalt' Access All Alternates lookup 0 subtable" six.oldstyle six.superior six.fitted
EndChar

StartChar: seven
Encoding: 55 55 24
Width: 440
GlyphClass: 2
Flags: MW
HStem: -12 21G<120 120> 503 65<301.5 329>
LayerCount: 2
Fore
SplineSet
329 503 m 1
 274 503 202 502 60 494 c 1
 62 508 64 522 64 536 c 0
 64 550 62 560 60 574 c 1
 100.25 568.75 184 568 325 568 c 0
 354 568 372 574 386 578 c 1
 402 568 l 1
 296 310 239 152 185 -9 c 1
 120 -12 l 1
 117 -6 l 1
 180 136 255 321 329 503 c 1
EndSplineSet
Substitution2: "'onum' Minuskelziffern lookup 16 subtable" seven.taboldstyle
Substitution2: "'pnum' Proportionalziffern lookup 15 subtable" seven.fitted
Substitution2: "'sinf' Wissenschaftliche Indices lookup 8 subtable" seven.inferior
Substitution2: "'sups' Superscript lookup 7 subtable" seven.superior
AlternateSubs2: "'aalt' Access All Alternates lookup 0 subtable" seven.oldstyle seven.superior seven.fitted
EndChar

StartChar: eight
Encoding: 56 56 25
Width: 440
GlyphClass: 2
Flags: MW
HStem: -10 28<194.5 237.5 194.5 276> 554 24<194.5 254>
VStem: 45 62<95.5 152 95.5 156.5> 68 67<450.5 483.5> 311 62<434.5 482> 331 66<117 156.5>
LayerCount: 2
Fore
SplineSet
223 554 m 0xd8
 166 554 135 509 135 465 c 0
 135 436 141 401 201 362 c 2
 230 344 l 1
 256 363 311 409 311 460 c 0
 311 504 285 554 223 554 c 0xd8
373 459 m 0
 373 398 307 350 265 322 c 1
 323 284 l 2
 371.953 251.928 397 208 397 153 c 0
 397 81 338 -10 214 -10 c 0
 114 -10 45 41 45 138 c 0xe4
 45 175 61.0312 217.965 100 252 c 0
 124.02 272.979 145 291 169 309 c 1
 152 319 l 2
 94 355 68 394 68 447 c 0
 68 520 131 578 228 578 c 0
 321 578 373 527 373 459 c 0
216 18 m 0
 259 18 331 39 331 134 c 0
 331 179 305.909 223.852 247 260 c 2
 203 287 l 1
 122 233 107 166 107 138 c 0
 107 53 173 18 216 18 c 0
EndSplineSet
Substitution2: "'onum' Minuskelziffern lookup 16 subtable" eight.taboldstyle
Substitution2: "'pnum' Proportionalziffern lookup 15 subtable" eight.fitted
Substitution2: "'sinf' Wissenschaftliche Indices lookup 8 subtable" eight.inferior
Substitution2: "'sups' Superscript lookup 7 subtable" eight.superior
AlternateSubs2: "'aalt' Access All Alternates lookup 0 subtable" eight.oldstyle eight.superior eight.fitted
EndChar

StartChar: nine
Encoding: 57 57 26
Width: 440
GlyphClass: 2
Flags: MW
HStem: -10 26<57 60> 229 32<172 219> 549 29<172 220>
VStem: 31 75<380.5 431> 317 75<336 425>
LayerCount: 2
Fore
SplineSet
316 306 m 1
 317 316 317 331 317 341 c 0
 317 509 245 549 195 549 c 0
 149 549 106 508 106 404 c 0
 106 357 124 261 220 261 c 0
 241 261 276 263 316 306 c 1
57 16 m 1
 122 22 177.989 39.0107 226 86 c 0
 271.989 131.011 302 198 313 278 c 1
 290 250 238 229 200 229 c 0
 52 229 31 351 31 397 c 0
 31 465 67 578 205 578 c 0
 278 578 392 537 392 338 c 0
 392 246 357.731 156.267 289 87 c 0
 224.749 22.249 158 -5 60 -10 c 1
 57 16 l 1
EndSplineSet
Substitution2: "'onum' Minuskelziffern lookup 16 subtable" nine.taboldstyle
Substitution2: "'pnum' Proportionalziffern lookup 15 subtable" nine.fitted
Substitution2: "'sinf' Wissenschaftliche Indices lookup 8 subtable" nine.inferior
Substitution2: "'sups' Superscript lookup 7 subtable" nine.superior
AlternateSubs2: "'aalt' Access All Alternates lookup 0 subtable" nine.oldstyle nine.superior nine.fitted
EndChar

StartChar: colon
Encoding: 58 58 27
Width: 220
GlyphClass: 2
Flags: MW
HStem: 39 112<115 119 115 119> 302 112<115 119 115 119>
VStem: 61 112<93 97 93 97 356 360>
LayerCount: 2
Fore
SplineSet
61 356 m 1
 61 360 l 1
 70.25 386.5 84.75 401.75 115 414 c 1
 119 414 l 1
 148 403.5 163.75 388.25 173 360 c 1
 173 356 l 1
 162.75 323.75 147.25 309 119 302 c 1
 115 302 l 1
 83.75 309 69.75 322.5 61 356 c 1
61 93 m 1
 61 97 l 1
 70.25 123.5 84.75 138.75 115 151 c 1
 119 151 l 1
 148 140.5 163.75 125.25 173 97 c 1
 173 93 l 1
 162.75 60.75 147.25 46 119 39 c 1
 115 39 l 1
 83.75 46 69.75 59.5 61 93 c 1
EndSplineSet
EndChar

StartChar: semicolon
Encoding: 59 59 28
Width: 220
GlyphClass: 2
Flags: MW
HStem: -133 25 -3 105<102 106 102 108.25> 302 112<105 109 105 109>
VStem: 51 112<356 360 356 360> 131 39<-38 -16.75>
LayerCount: 2
Fore
SplineSet
51 356 m 1xf0
 51 360 l 1
 60.25 386.5 74.75 401.75 105 414 c 1
 109 414 l 1
 138 403.5 153.75 388.25 163 360 c 1
 163 356 l 1
 152.75 323.75 137.25 309 109 302 c 1
 105 302 l 1
 73.75 309 59.75 322.5 51 356 c 1xf0
48 44 m 1
 48 48 l 1
 57.25 74.5 71.75 89.75 102 102 c 1
 106 102 l 1
 142.205 88.8906 170 61.8037 170 -3 c 0
 170 -73 110 -122 50 -133 c 1
 43.25 -127.125 41.625 -117.875 45 -108 c 1
 97 -95 131 -50 131 -29 c 0xe8
 131 -4.5 114.5 -3 102 -3 c 1
 70.75 4 56.75 10.5 48 44 c 1
EndSplineSet
EndChar

StartChar: less
Encoding: 60 60 29
Width: 487
GlyphClass: 2
Flags: MW
HStem: 73 331<439 439>
LayerCount: 2
Fore
SplineSet
122 239 m 1
 439 123 l 1
 439 73 l 1
 49 215 l 1
 49 263 l 1
 439 404 l 1
 439 354 l 1
 122 239 l 1
EndSplineSet
EndChar

StartChar: equal
Encoding: 61 61 30
Width: 527
GlyphClass: 2
Flags: MW
HStem: 144 49<66 461 66 461> 269 49<66 461 66 461>
LayerCount: 2
Fore
SplineSet
461 318 m 1
 461 269 l 1
 66 269 l 1
 66 318 l 1
 461 318 l 1
461 193 m 1
 461 144 l 1
 66 144 l 1
 66 193 l 1
 461 193 l 1
EndSplineSet
Substitution2: "'sinf' Wissenschaftliche Indices lookup 8 subtable" equal.inferior
Substitution2: "'sups' Superscript lookup 7 subtable" equal.superior
AlternateSubs2: "'aalt' Access All Alternates lookup 0 subtable" equal.superior
EndChar

StartChar: greater
Encoding: 62 62 31
Width: 487
GlyphClass: 2
Flags: MW
HStem: 71 331<49 49>
LayerCount: 2
Fore
SplineSet
366 236 m 1
 49 352 l 1
 49 402 l 1
 439 260 l 1
 439 212 l 1
 49 71 l 1
 49 121 l 1
 366 236 l 1
EndSplineSet
EndChar

StartChar: question
Encoding: 63 63 32
Width: 405
GlyphClass: 2
Flags: MW
HStem: -10 112<178 182 178 182> 619 40<167.75 223.5>
VStem: 124 112<44 48 44 48> 167 26<184 228> 294 75<480.5 536.5>
LayerCount: 2
Fore
SplineSet
195 619 m 0xd8
 139 619 98 570 72 525 c 1
 59 526 l 1
 43 593 l 1
 46 597 l 1
 70.5 617.5 131.5 659 204 659 c 0
 306 659 369 599 369 508 c 0
 369 429 310 385 263 351 c 0
 240 334 220 318 211 301 c 0
 198 276 193 252 193 228 c 2
 193 184 l 2
 193 177 188 174 180 174 c 0
 172 174 167 177 167 184 c 2
 167 230 l 2
 167 273 169.558 331.391 234 391 c 0
 274 428 294 457 294 504 c 0
 294 569 252 619 195 619 c 0xd8
124 44 m 1xe8
 124 48 l 1
 133.25 74.5 147.75 89.75 178 102 c 1
 182 102 l 1
 211 91.5 226.75 76.25 236 48 c 1
 236 44 l 1
 225.75 11.75 210.25 -3 182 -10 c 1
 178 -10 l 1
 146.75 -3 132.75 10.5 124 44 c 1xe8
EndSplineSet
EndChar

StartChar: at
Encoding: 64 64 33
Width: 895
GlyphClass: 2
Flags: MW
HStem: -158 33<344 510.5> 27 35<593 645 593 660> 27 43 379 31<495.5 522> 581 30<383 521.5>
VStem: 59 80<166 330.5> 273 73<138 193 138 224.5> 760 79<225 375.5 225 378>
LayerCount: 2
Fore
SplineSet
569 316 m 0xbf
 569 354 540 379 504 379 c 0
 487 379 444 370 414 339 c 0
 363 288 346 224 346 162 c 0
 346 114 361 70 424 70 c 0
 459 70 508 127 539 200 c 0
 552 231 569 282 569 316 c 0xbf
583 74 m 0
 583 64 592 62 594 62 c 0
 696 62 760 109 760 275 c 0
 760 481 584 581 459 581 c 0
 307 581 139 478 139 241 c 0
 139 91 215 -125 473 -125 c 0
 558 -125 620 -102 674 -59 c 1
 687 -77 l 1
 627 -123 567 -158 454 -158 c 0
 215 -158 59 10 59 223 c 0
 59 438 244 611 469 611 c 0
 684 611 839 469 839 282 c 0
 839 168 769 27 551 27 c 0xdf
 522 27 515 52 515 68 c 0
 515 83 522 106 530 131 c 1
 528 132 l 1
 484 58 430 29 395 29 c 0
 295 29 273 113 273 153 c 0
 273 296 400 410 506 410 c 0
 539 410 573 393 583 367 c 1
 588 391 l 1
 641 404 l 1
 656 399 l 1
 596 141 l 2
 590 114 583 80.5 583 74 c 0
EndSplineSet
EndChar

StartChar: A
Encoding: 65 65 34
Width: 633
GlyphClass: 2
Flags: MW
HStem: -3 21G<18 18> 228.261 47.6554 638 20G<313 341 341 341>
AnchorPoint: "Anker-5" 322 700 basechar 0
AnchorPoint: "Anker-4" 322 798 basechar 0
AnchorPoint: "Anker-3" 270 -108 basechar 0
AnchorPoint: "Anker-2" 58 8 basechar 0
LayerCount: 2
Fore
SplineSet
180.975 228.262 m 1
 145.307 140.771 114.354 58.3281 98 -3 c 1
 86 0 64 0 53 0 c 0
 42 0 30 0 18 -3 c 1
 313 658 l 1
 341 658 l 1
 433 439 565 98 615 -3 c 1
 598 0 572 0 555 0 c 0
 538 0 522 0 505 -3 c 1
 498.862 19.165 476.298 97.1338 427.269 228.283 c 1
 389.545 229.181 348.018 230 310 230 c 0
 275.481 230 218.978 229.164 180.975 228.262 c 1
409.322 275.548 m 1
 382.47 345.223 349.092 427.396 308.033 521.764 c 1
 306.033 521.764 l 1
 200.643 275.916 l 1
 232.374 275.537 276.06 273.999 305 273.999 c 0
 334.691 273.999 376.468 274.719 409.322 275.548 c 1
EndSplineSet
Substitution2: "'c2sc' Capitals to Small Capitals lookup 9 subtable" a.sc
Position2: "'cpsp' Capital Spacing lookup 0 subtable" dx=2 dy=0 dh=5 dv=0
EndChar

StartChar: B
Encoding: 66 66 35
Width: 582
GlyphClass: 2
Flags: MW
HStem: -3 44<244.5 346 235 388.5> 327 44<189 261 189 261 261 276> 604 44<249.5 302>
VStem: 103 86<200 327 371 445 445 482.5> 395 87<465.5 526.5 465.5 532> 442 99<141 210>
AnchorPoint: "Anker-5" 282 700 basechar 0
AnchorPoint: "Anker-4" 281 798 basechar 0
AnchorPoint: "Anker-3" 268 -108 basechar 0
AnchorPoint: "Anker-2" 250 0 basechar 0
LayerCount: 2
Fore
SplineSet
189 559 m 2xf8
 189 371 l 1
 261 371 l 2
 344 371 395 396 395 481 c 0
 395 583 330 604 274 604 c 0
 193 604 189 592.333 189 559 c 2xf8
189 327 m 1
 189 88 l 2
 189 55 200 41 270 41 c 0
 422 41 442 92 442 165 c 0xf4
 442 255 393 327 276 327 c 2
 189 327 l 1
146 645 m 0
 193.204 645 232 648 267 648 c 0
 453 648 482 560 482 493 c 0xf8
 482 438 440 385 389 360 c 1
 476 335 541 280 541 184 c 0
 541 98 488 -3 289 -3 c 0
 200 -3 201.782 0 146 0 c 0
 111 0 94 -3 94 -3 c 1
 93 0 l 1
 101 54 103 124.999 103 200 c 2
 103 445 l 2
 103 520 101 588 93 645 c 1
 95 648 l 1
 95 648 112 645 146 645 c 0
EndSplineSet
Substitution2: "'c2sc' Capitals to Small Capitals lookup 9 subtable" b.sc
Position2: "'cpsp' Capital Spacing lookup 0 subtable" dx=2 dy=0 dh=5 dv=0
EndChar

StartChar: C
Encoding: 67 67 36
Width: 650
GlyphClass: 2
Flags: MW
HStem: -10 51<282.5 399.5> 611 47<310 396>
VStem: 37 103<261 413.5>
AnchorPoint: "Anker-5" 366 700 basechar 0
AnchorPoint: "Anker-4" 366 798 basechar 0
AnchorPoint: "Anker-3" 369 -110 basechar 0
AnchorPoint: "Anker-2" 362 -7 basechar 0
LayerCount: 2
Fore
SplineSet
365 658 m 0
 487 658 582.999 613 582.999 613 c 1
 584.999 609.999 l 1
 573.237 560.747 568.554 549.993 565 499 c 1
 555 498 l 1
 514 580 441 611 351 611 c 0
 269 611 140 537 140 334 c 0
 140 188 205 41 360 41 c 0
 453 41 521 62 592 140 c 1
 615 125 l 1
 547 36 448 -10 351 -10 c 0
 136 -10 37 154 37 315 c 0
 37 512 196 658 365 658 c 0
EndSplineSet
Substitution2: "'c2sc' Capitals to Small Capitals lookup 9 subtable" c.sc
Position2: "'cpsp' Capital Spacing lookup 0 subtable" dx=2 dy=0 dh=5 dv=0
EndChar

StartChar: D
Encoding: 68 68 37
Width: 698
GlyphClass: 2
Flags: MW
HStem: -2 44<275.5 366.5 247 397.5> 604 44<277 379>
VStem: 101 86<200 445 445 482.5> 552 103<185 361>
AnchorPoint: "Anker-5" 306 700 basechar 0
AnchorPoint: "Anker-4" 306 798 basechar 0
AnchorPoint: "Anker-3" 279 -107 basechar 0
AnchorPoint: "Anker-2" 279 4 basechar 0
LayerCount: 2
Fore
SplineSet
187 82 m 2
 187 50 198 42 296 42 c 0
 437 42 552 82 552 284 c 0
 552 438 487 604 271 604 c 0
 222 604 187 599 187 564 c 2
 187 82 l 2
144 645 m 0
 208 645 245 648 309 648 c 0
 501 648 655 494 655 308 c 0
 655 62 468 -2 327 -2 c 0
 224 -2 215 0 144 0 c 0
 109 0 92 -3 92 -3 c 1
 91 0 l 1
 99 54 101 124.999 101 200 c 2
 101 445 l 2
 101 520 99 588 91 645 c 1
 93 648 l 1
 93 648 110 645 144 645 c 0
EndSplineSet
Substitution2: "'c2sc' Capitals to Small Capitals lookup 9 subtable" d.sc
Position2: "'cpsp' Capital Spacing lookup 0 subtable" dx=2 dy=0 dh=5 dv=0
EndChar

StartChar: E
Encoding: 69 69 38
Width: 522
GlyphClass: 2
Flags: MW
HStem: 0 54<121.5 257 190 257 190 412> 321 42<182 206> 596 49<190 257>
VStem: 96 86<200 321 363 445>
AnchorPoint: "Anker-5" 280 700 basechar 0
AnchorPoint: "Anker-4" 283 805 basechar 0
AnchorPoint: "Anker-3" 279 -107 basechar 0
AnchorPoint: "Anker-2" 279 4 basechar 0
LayerCount: 2
Fore
SplineSet
182 200 m 2
 182 183 183 78 190 54 c 1
 324 54 472 66 472 66 c 1
 474 62 l 1
 473 54 472 39 472 29 c 0
 472 19 473 14 474 0 c 1
 472 -3 l 1
 456 -1 433 0 412 0 c 2
 139 0 l 2
 104 0 87 -3 87 -3 c 1
 86 0 l 1
 94 54 96 125 96 200 c 2
 96 445 l 2
 96 520 94 588 86 645 c 1
 88 648 l 1
 88 648 105 645 139 645 c 2
 402 645 l 2
 423 645 446 646 462 648 c 1
 464 645 l 1
 463 631 462 622 462 614 c 0
 462 605 463 596 464 588 c 1
 462 584 l 1
 462 584 324 596 190 596 c 1
 183 572 182 462 182 445 c 2
 182 363 l 1
 300 363 346 368 405 373 c 1
 408 370 l 1
 406 361 405 351 405 342 c 0
 405 333 406 323 408 314 c 1
 405 311 l 1
 336 318 230 321 182 321 c 1
 182 200 l 2
EndSplineSet
Substitution2: "'c2sc' Capitals to Small Capitals lookup 9 subtable" e.sc
Position2: "'cpsp' Capital Spacing lookup 0 subtable" dx=2 dy=0 dh=5 dv=0
EndChar

StartChar: F
Encoding: 70 70 39
Width: 477
GlyphClass: 2
Flags: MW
HStem: -3 21G<89 89 192 192> 321 42<184 208> 596 49<192 259>
VStem: 98 86<200 321 363 445>
AnchorPoint: "Anker-5" 287 700 basechar 0
AnchorPoint: "Anker-4" 286 798 basechar 0
AnchorPoint: "Anker-3" 201 -111 basechar 0
AnchorPoint: "Anker-2" 145 -1 basechar 0
LayerCount: 2
Fore
SplineSet
401 645 m 2
 425 645 448 646 464 648 c 1
 466 645 l 1
 465 631 464 622 464 614 c 0
 464 605 465 596 466 588 c 1
 464 584 l 1
 464 584 326 596 192 596 c 1
 185 572 184 462 184 445 c 2
 184 363 l 1
 302 363 348 368 407 373 c 1
 410 370 l 1
 408 361 407 351 407 342 c 0
 407 333 408 323 410 314 c 1
 407 311 l 1
 338 318 232 321 184 321 c 1
 184 200 l 2
 184 125 186 57 194 0 c 1
 192 -3 l 1
 192 -3 175 0 141 0 c 0
 106 0 89 -3 89 -3 c 1
 88 0 l 1
 96 54 98 125 98 200 c 2
 98 445 l 2
 98 520 96 588 88 645 c 1
 90 648 l 1
 90 648 107 645 141 645 c 2
 401 645 l 2
EndSplineSet
Substitution2: "'c2sc' Capitals to Small Capitals lookup 9 subtable" f.sc
Position2: "'cpsp' Capital Spacing lookup 0 subtable" dx=2 dy=0 dh=5 dv=0
EndChar

StartChar: G
Encoding: 71 71 40
Width: 699
GlyphClass: 2
Flags: MW
HStem: -10 46<310 426 310 434.229> 611 47<299.5 412>
VStem: 32 103 546 86
AnchorPoint: "Anker-5" 369 700 basechar 0
AnchorPoint: "Anker-4" 369 798 basechar 0
AnchorPoint: "Anker-3" 371 -111 basechar 0
AnchorPoint: "Anker-2" 371 2 basechar 0
LayerCount: 2
Fore
SplineSet
546 117 m 2
 544.529 191.985 543.999 250 535.999 307 c 1
 537.999 310 l 1
 537.999 310 554.999 307 588.999 307 c 0
 623.999 307 640.999 310 640.999 310 c 1
 641.999 307 l 1
 633.999 254 631.999 212 631.999 137 c 2
 631.999 131 l 2
 631.999 120 633.332 93.667 641.999 83 c 1
 641.999 80 l 1
 574.547 23.3506 492.46 -10 375.999 -10 c 0
 174.999 -10 31.999 134 31.999 307 c 0
 31.999 527 208.999 658 380.999 658 c 0
 502.999 658 598.999 613 598.999 613 c 1
 600.999 609.999 l 1
 589.237 560.747 584.554 549.993 581 499 c 1
 571 498 l 1
 530 580 457 611 367 611 c 0
 232 611 135 502 135 327 c 0
 135 195 221 36 399 36 c 0
 453 36 512 42 546 74 c 1
 546 117 l 2
EndSplineSet
Substitution2: "'c2sc' Capitals to Small Capitals lookup 9 subtable" g.sc
Position2: "'cpsp' Capital Spacing lookup 0 subtable" dx=2 dy=0 dh=5 dv=0
EndChar

StartChar: H
Encoding: 72 72 41
Width: 700
GlyphClass: 2
Flags: MW
HStem: -3 21G<94 94 197 197 502 502 605 605> 321 42<189 511 189 511> 628 20G<95 95 198 198 503 503 606 606>
VStem: 103 86<200 321 363 445> 511 86<200 321 321 321 363 445>
AnchorPoint: "Anker-5" 351 700 basechar 0
AnchorPoint: "Anker-4" 351 798 basechar 0
AnchorPoint: "Anker-3" 350 -107 basechar 0
AnchorPoint: "Anker-2" 150 0 basechar 0
LayerCount: 2
Fore
SplineSet
511 445 m 2
 511 520 509 588 501 645 c 1
 503 648 l 1
 503 648 520 645 554 645 c 0
 589 645 606 648 606 648 c 1
 607 645 l 1
 599 592 597 520 597 445 c 2
 597 200 l 2
 597 125 599 57 607 0 c 1
 605 -3 l 1
 605 -3 588 0 554 0 c 0
 519 0 502 -3 502 -3 c 1
 501 0 l 1
 509 54 511 125 511 200 c 2
 511 321 l 1
 189 321 l 1
 189 200 l 2
 189 125 191 57 199 0 c 1
 197 -3 l 1
 197 -3 180 0 146 0 c 0
 111 0 94 -3 94 -3 c 1
 93 0 l 1
 101 54 103 125 103 200 c 2
 103 445 l 2
 103 520 101 588 93 645 c 1
 95 648 l 1
 95 648 112 645 146 645 c 0
 181 645 198 648 198 648 c 1
 199 645 l 1
 191 592 189 520 189 445 c 2
 189 363 l 1
 511 363 l 1
 511 445 l 2
EndSplineSet
Substitution2: "'c2sc' Capitals to Small Capitals lookup 9 subtable" h.sc
Position2: "'cpsp' Capital Spacing lookup 0 subtable" dx=2 dy=0 dh=5 dv=0
EndChar

StartChar: I
Encoding: 73 73 42
Width: 293
GlyphClass: 2
Flags: MW
HStem: -3 21G<97 97 200 200> 628 20G<98 98 201 201>
VStem: 106 86<200 445>
AnchorPoint: "Anker-5" 146 700 basechar 0
AnchorPoint: "Anker-4" 146 798 basechar 0
AnchorPoint: "Anker-3" 145 -109 basechar 0
AnchorPoint: "Anker-2" 145 1 basechar 0
LayerCount: 2
Fore
SplineSet
106 445 m 2
 106 520 104 588 96 645 c 1
 98 648 l 1
 98 648 115 645 149 645 c 0
 184 645 201 648 201 648 c 1
 202 645 l 1
 194 592 192 520 192 445 c 2
 192 200 l 2
 192 125 194 57 202 0 c 1
 200 -3 l 1
 200 -3 183 0 149 0 c 0
 114 0 97 -3 97 -3 c 1
 96 0 l 1
 104 54 106 125 106 200 c 2
 106 445 l 2
EndSplineSet
Substitution2: "'c2sc' Capitals to Small Capitals lookup 9 subtable" i.sc
Position2: "'cpsp' Capital Spacing lookup 0 subtable" dx=2 dy=0 dh=5 dv=0
EndChar

StartChar: J
Encoding: 74 74 43
Width: 315
GlyphClass: 2
Flags: MW
HStem: -172 60<-4.5 95.5> 628 20G<132 132 235 235>
VStem: 140 86<95 117 117 445>
AnchorPoint: "Anker-5" 181 723 basechar 0
AnchorPoint: "Anker-4" 182 806 basechar 0
LayerCount: 2
Fore
SplineSet
140 95 m 2
 140 445 l 2
 140 520 138 588 130 645 c 1
 132 648 l 1
 132 648 149 645 183 645 c 0
 218 645 235 648 235 648 c 1
 236 645 l 1
 228 592 226 520 226 445 c 2
 226 117 l 2
 226 2.5 216 -27 163 -96 c 0
 121 -150 68 -172 5 -172 c 0
 -14 -172 -32 -168 -40 -163 c 1
 -41 -160 l 1
 -30 -141 -20 -105 -13 -78 c 1
 -2 -77 l 1
 9 -97 27 -112 56 -112 c 0
 135 -112 140 7.02148 140 95 c 2
EndSplineSet
Substitution2: "'ss02' Stilgruppe 2 lookup 20 subtable" J.alt
Substitution2: "'c2sc' Capitals to Small Capitals lookup 9 subtable" j.sc
Position2: "'cpsp' Capital Spacing lookup 0 subtable" dx=2 dy=0 dh=5 dv=0
EndChar

StartChar: K
Encoding: 75 75 44
Width: 637
GlyphClass: 2
Flags: MW
HStem: -3 21G<97 97 200 200> 628 20G
VStem: 106 86<200 324.967 347.947 444.998>
AnchorPoint: "Anker-5" 335 719 basechar 0
AnchorPoint: "Anker-4" 336 798 basechar 0
AnchorPoint: "Anker-3" 342 -109 basechar 0
AnchorPoint: "Anker-2" 148 -1 basechar 0
LayerCount: 2
Fore
SplineSet
106 445 m 2
 106 520 104 587.998 96 644.998 c 1
 98 647.998 l 1
 98 647.998 115 644.998 149 644.998 c 0
 184 644.998 201 647.998 201 647.998 c 1
 202 644.998 l 1
 194 591.998 192 519.998 192 444.998 c 2
 192 347.947 l 1
 194.812 349.231 197.588 350.888 200 352.999 c 0
 288 429.999 396 545.999 485 647.999 c 1
 498 644.999 521 644.999 534 644.999 c 0
 549 644.999 569 644.999 585 647.999 c 1
 497 570.999 349 432.999 281 353.999 c 1
 281 351.999 l 1
 595 -3.00098 l 1
 576 -0.000976562 552 -0.000976562 533 -0.000976562 c 0
 516 -0.000976562 488 -0.000976562 471 -3.00098 c 1
 381 107.999 238 280.999 197 321.999 c 0
 195.631 323.141 193.896 324.126 192 324.967 c 1
 192 200 l 2
 192 125 194 57 202 0 c 1
 200 -3 l 1
 200 -3 183 0 149 0 c 0
 114 0 97 -3 97 -3 c 1
 96 0 l 1
 104 54 106 125 106 200 c 2
 106 445 l 2
EndSplineSet
Substitution2: "'ss02' Stilgruppe 2 lookup 20 subtable" K.alt
Substitution2: "'c2sc' Capitals to Small Capitals lookup 9 subtable" k.sc
AlternateSubs2: "'aalt' Access All Alternates lookup 0 subtable" K.alt k.sc
Position2: "'cpsp' Capital Spacing lookup 0 subtable" dx=2 dy=0 dh=5 dv=0
EndChar

StartChar: L
Encoding: 76 76 45
Width: 526
GlyphClass: 2
Flags: MW
HStem: 0 54<129 264 197 264 197 419> 628 20G<94 94 198 198>
VStem: 103 86<200 445>
AnchorPoint: "Anker-5" 148 721 basechar 0
AnchorPoint: "Anker-4" 149 804 basechar 0
AnchorPoint: "Anker-3" 260 -110 basechar 0
AnchorPoint: "Anker-2" 260 1 basechar 0
LayerCount: 2
Fore
SplineSet
189 200 m 2
 189 183 190 78 197 54 c 1
 331 54 479 66 479 66 c 1
 481 62 l 1
 480 54 479 39 479 29 c 0
 479 19 480 14 481 0 c 1
 479 -3 l 1
 463 -1 440 0 419 0 c 2
 146 0 l 2
 112 0 94 -3 94 -3 c 1
 93 0 l 1
 101 54 103 125 103 200 c 2
 103 445 l 2
 103 520.008 100 588 92 645 c 1
 94 648 l 1
 94 648 112 645 146 645 c 0
 181 645 198 648 198 648 c 1
 199 645 l 1
 191 592 189 520.005 189 445 c 2
 189 200 l 2
EndSplineSet
Substitution2: "'c2sc' Capitals to Small Capitals lookup 9 subtable" l.sc
Position2: "'cpsp' Capital Spacing lookup 0 subtable" dx=2 dy=0 dh=5 dv=0
EndChar

StartChar: M
Encoding: 77 77 46
Width: 839
GlyphClass: 2
Flags: MW
HStem: -3 21G
AnchorPoint: "Anker-5" 416 721 basechar 0
AnchorPoint: "Anker-4" 417 804 basechar 0
AnchorPoint: "Anker-3" 393 -110 basechar 0
AnchorPoint: "Anker-2" 107 2 basechar 0
LayerCount: 2
Fore
SplineSet
133 662 m 1
 159 662 l 1
 243.356 487.404 330.066 320.799 424.898 146.533 c 1
 703 662 l 1
 725 662 l 1
 753 419 772 214 803 -3 c 1
 788 0 768 0 753 0 c 0
 738 0 719 0 704 -3 c 1
 690.347 162.781 677.646 315.248 658.476 472.949 c 1
 574.608 318.153 490.104 166.678 416.999 0.000976562 c 1
 397.999 0.000976562 l 1
 325.935 152.893 241.543 312.423 160.523 472.127 c 1
 142.612 315.977 117.973 101.108 117 -3 c 1
 106 0 90 0 79 0 c 0
 67 0 52 0 41 -3 c 1
 74 207 112 461 133 662 c 1
EndSplineSet
Substitution2: "'c2sc' Capitals to Small Capitals lookup 9 subtable" m.sc
Position2: "'cpsp' Capital Spacing lookup 0 subtable" dx=2 dy=0 dh=5 dv=0
EndChar

StartChar: N
Encoding: 78 78 47
Width: 695
GlyphClass: 2
Flags: MW
HStem: -3 21G<92 92 162 162> 628 20G<93 93 545 545 615 615>
VStem: 101 53<200 439> 553 53<178 445>
AnchorPoint: "Anker-5" 345 721 basechar 0
AnchorPoint: "Anker-4" 346 804 basechar 0
AnchorPoint: "Anker-3" 348 -109 basechar 0
AnchorPoint: "Anker-2" 124 -3 basechar 0
LayerCount: 2
Fore
SplineSet
101 445 m 2
 101 520 99 588 91 645 c 1
 93 648 l 1
 93 648 110 645 144 645 c 0
 148.5 645 158 647 158 647 c 1
 501 203 l 2
 544.323 146.92 553 123.553 553 178 c 2
 553 445 l 2
 553 520 551 588 543 645 c 1
 545 648 l 1
 545 648 555.667 645 580 645 c 0
 602.333 645 615 648 615 648 c 1
 616 645 l 1
 608 592 606 520 606 445 c 2
 606 21 l 2
 606 2 599 -10 585 -10 c 0
 569 -10 553 -1 542 14 c 2
 193 455 l 2
 155.887 503.029 154 499.961 154 439 c 2
 154 200 l 2
 154 125 156 57 164 0 c 1
 162 -3 l 1
 162 -3 151.333 0 127 0 c 0
 104.667 0 92 -3 92 -3 c 1
 91 0 l 1
 99 53 101 125 101 200 c 2
 101 445 l 2
EndSplineSet
Substitution2: "'c2sc' Capitals to Small Capitals lookup 9 subtable" n.sc
Position2: "'cpsp' Capital Spacing lookup 0 subtable" dx=2 dy=0 dh=5 dv=0
EndChar

StartChar: O
Encoding: 79 79 48
Width: 721
GlyphClass: 2
Flags: MW
HStem: -10 44<319 436 319 454.5> 614 44<297 415.5>
VStem: 42 103<231 408> 576 103<229 414>
AnchorPoint: "Anker-5" 365 721 basechar 0
AnchorPoint: "Anker-4" 366 804 basechar 0
AnchorPoint: "Anker-3" 361 -113 basechar 0
AnchorPoint: "Anker-2" 361 0 basechar 0
LayerCount: 2
Fore
SplineSet
345 614 m 0
 249 614 145 537 145 327 c 0
 145 135 259 34 379 34 c 0
 493 34 576 131 576 310 c 0
 576 518 486 614 345 614 c 0
679 329 m 0
 679 129 550 -10 359 -10 c 0
 187 -10 42 113 42 310 c 0
 42 506 179 658 358 658 c 0
 538 658 679 527 679 329 c 0
EndSplineSet
Substitution2: "'c2sc' Capitals to Small Capitals lookup 9 subtable" o.sc
Position2: "'cpsp' Capital Spacing lookup 0 subtable" dx=2 dy=0 dh=5 dv=0
EndChar

StartChar: P
Encoding: 80 80 49
Width: 522
GlyphClass: 2
Flags: MW
HStem: -3 21G<94 94 197 197> 282 34<245.5 306.5 245.5 354> 618 34<263 303.5>
VStem: 103 86<200 292 326 445 445 482.5> 401 97<443.5 515.5 443.5 531.5>
AnchorPoint: "Anker-5" 276 720 basechar 0
AnchorPoint: "Anker-4" 277 803 basechar 0
AnchorPoint: "Anker-3" 240 -110 basechar 0
AnchorPoint: "Anker-2" 150 -3 basechar 0
LayerCount: 2
Fore
SplineSet
189 574 m 2
 189 326 l 1
 202 319 233 316 258 316 c 0
 355 316 401 360 401 468 c 0
 401 595 338 618 269 618 c 0
 197 618 189 603 189 574 c 2
103 445 m 2
 103 520 101 588 93 645 c 1
 95 648 l 1
 95 648 112 645 146 645 c 0
 176 645 250 652 276 652 c 0
 461 652 498 545 498 486 c 0
 498 401 445 282 263 282 c 0
 228 282 211 285 189 292 c 1
 189 200 l 2
 189 125 191 57 199 0 c 1
 197 -3 l 1
 197 -3 180 0 146 0 c 0
 111 0 94 -3 94 -3 c 1
 93 0 l 1
 101 54 103 124.999 103 200 c 2
 103 445 l 2
EndSplineSet
Substitution2: "'c2sc' Capitals to Small Capitals lookup 9 subtable" p.sc
Position2: "'cpsp' Capital Spacing lookup 0 subtable" dx=2 dy=0 dh=5 dv=0
EndChar

StartChar: Q
Encoding: 81 81 50
Width: 721
GlyphClass: 2
Flags: MW
HStem: -10 44 614 44
VStem: 42 103 576 103
AnchorPoint: "Anker-5" 346 720 basechar 0
AnchorPoint: "Anker-4" 348 803 basechar 0
LayerCount: 2
Fore
SplineSet
345 614 m 0
 249 614 145 537 145 327 c 0
 145 135 259 34 379 34 c 0
 493 34 576 131 576 310 c 0
 576 518 486 614 345 614 c 0
473.811 8.80859 m 1
 438.91 -3.46582 400.411 -9.99902 358.999 -9.99902 c 0
 186.999 -9.99902 41.999 113.001 41.999 310.001 c 0
 41.999 506.001 178.999 658.001 357.999 658.001 c 0
 537.999 658.001 678.999 527.001 678.999 329.001 c 0
 678.999 207.271 631.21 108.138 550.739 49.1904 c 1
 608.357 17.3994 690.294 -39.6523 799.999 -76.999 c 1
 799.999 -82.999 l 1
 763.999 -101.999 724.999 -124.999 705.999 -139.999 c 1
 595.287 -77.0947 603.714 -59.7246 473.811 8.80859 c 1
EndSplineSet
Substitution2: "'c2sc' Capitals to Small Capitals lookup 9 subtable" q.sc
Position2: "'cpsp' Capital Spacing lookup 0 subtable" dx=2 dy=0 dh=5 dv=0
EndChar

StartChar: R
Encoding: 82 82 51
Width: 579
GlyphClass: 2
Flags: MW
HStem: -3 21G 286 44<189 201.287> 613 39
VStem: 103 86 401 97
AnchorPoint: "Anker-5" 268 725 basechar 0
AnchorPoint: "Anker-4" 269 808 basechar 0
AnchorPoint: "Anker-3" 258 -111 basechar 0
AnchorPoint: "Anker-2" 148 -1 basechar 0
LayerCount: 2
Fore
SplineSet
272 613 m 0
 201 613 189 598 189 569 c 2
 189 330 l 1
 237 330 l 2
 334 330 401 353 401 478 c 0
 401 596 333 613 272 613 c 0
189 286 m 1
 189.001 200.001 l 2
 189.001 125.001 191.001 57.001 199.001 0.000976562 c 1
 197.001 -2.99902 l 1
 197.001 -2.99902 180.001 0.000976562 146.001 0.000976562 c 0
 111.001 0.000976562 94.001 -2.99902 94.001 -2.99902 c 1
 93.001 0.000976562 l 1
 101.001 54.001 103.001 125.001 103.001 200.001 c 2
 103.001 445.001 l 2
 103.001 520.001 101.001 588.001 93.001 645.001 c 1
 95.001 648.001 l 1
 95.001 648.001 112.001 645.001 146.001 645.001 c 0
 176.001 645.001 246.001 652.001 271.001 652.001 c 0
 334.001 652.001 397.001 649.001 445.001 604.001 c 0
 481.001 570.001 498.001 529.001 498.001 479.001 c 0
 498.001 397.001 452.001 345.001 398.001 318.001 c 0
 384.942 311.285 369.935 305.126 349.758 300.043 c 1
 413.535 215.989 518.933 56.6816 569 0.000976562 c 1
 567 -2.99902 l 1
 547 0.000976562 535 0.000976562 515 0.000976562 c 0
 496 0.000976562 466 0.000976562 447 -2.99902 c 1
 436 31.001 390 104.001 340 176.001 c 0
 312.564 214.941 283.562 254.665 254.38 287.547 c 1
 235.21 286.541 213.573 286 189 286 c 1
EndSplineSet
Substitution2: "'ss02' Stilgruppe 2 lookup 20 subtable" R.alt
Substitution2: "'c2sc' Capitals to Small Capitals lookup 9 subtable" r.sc
AlternateSubs2: "'aalt' Access All Alternates lookup 0 subtable" R.alt r.sc
Position2: "'cpsp' Capital Spacing lookup 0 subtable" dx=2 dy=0 dh=5 dv=0
EndChar

StartChar: S
Encoding: 83 83 52
Width: 480
GlyphClass: 2
Flags: MW
HStem: -10 43<193 263 193 277.5> 618 40<202 271>
VStem: 54 74<470.5 538> 354 85<135 195>
AnchorPoint: "Anker-5" 254 720 basechar 0
AnchorPoint: "Anker-4" 255 803 basechar 0
AnchorPoint: "Anker-3" 237 -111 basechar 0
AnchorPoint: "Anker-2" 217 2 basechar 0
LayerCount: 2
Fore
SplineSet
229 33 m 0
 297 33 354 70 354 151 c 0
 354 239 307 265 246 289 c 0
 155.271 324.696 54 373 54 485 c 0
 54 591 157 658 244 658 c 0
 366 658 402 613 402 613 c 1
 404 610 l 1
 395 580 388 550 384 514 c 1
 374 513 l 1
 346 575 307 618 235 618 c 0
 169 618 128 573 128 512 c 0
 128 429 219 394 261 379 c 0
 345 349 439 302 439 186 c 0
 439 84 335 -10 220 -10 c 0
 98 -10 39 35 39 35 c 1
 37 38 l 1
 45 68 53 100 57 136 c 1
 67 137 l 1
 95 75 157 33 229 33 c 0
EndSplineSet
Substitution2: "'c2sc' Capitals to Small Capitals lookup 9 subtable" s.sc
Position2: "'cpsp' Capital Spacing lookup 0 subtable" dx=2 dy=0 dh=5 dv=0
EndChar

StartChar: T
Encoding: 84 84 53
Width: 540
GlyphClass: 2
Flags: MW
HStem: -3 21G<218 218 321 321> 574 21G<17 17 523 523> 586 59<152 219 321 388>
VStem: 227 86<200 445>
AnchorPoint: "Anker-5" 268 720 basechar 0
AnchorPoint: "Anker-4" 270 803 basechar 0
AnchorPoint: "Anker-3" 273 -107 basechar 0
AnchorPoint: "Anker-2" 266 1 basechar 0
LayerCount: 2
Fore
SplineSet
227 445 m 2xb0
 227 462 226 562 219 586 c 1xb0
 85 586 17 574 17 574 c 1xd0
 15 578 l 1
 17 593 17 617 15 645 c 1
 17 648 l 1
 33 646 56 645 77 645 c 2
 463 645 l 2
 484 645 507 646 523 648 c 1
 525 645 l 1xb0
 523 617 523 593 525 578 c 1
 523 574 l 1xd0
 523 574 455 586 321 586 c 1
 314 562 313 462 313 445 c 2
 313 200 l 2
 313 125 315 57 323 0 c 1
 321 -3 l 1
 321 -3 304 0 270 0 c 0
 235 0 218 -3 218 -3 c 1
 217 0 l 1
 225 54 227 125 227 200 c 2
 227 445 l 2xb0
EndSplineSet
Substitution2: "'c2sc' Capitals to Small Capitals lookup 9 subtable" t.sc
Position2: "'cpsp' Capital Spacing lookup 0 subtable" dx=2 dy=0 dh=5 dv=0
EndChar

StartChar: U
Encoding: 85 85 54
Width: 661
GlyphClass: 2
Flags: MW
HStem: -10 51<276 423.5> 628 20G<78 78 181 181 513 513 583 583>
VStem: 86 86<242.006 269 269 445> 521 53<277 295 295 445>
AnchorPoint: "Anker-5" 345 722 basechar 0
AnchorPoint: "Anker-4" 346 805 basechar 0
AnchorPoint: "Anker-3" 328 -109 basechar 0
AnchorPoint: "Anker-2" 328 4 basechar 0
LayerCount: 2
Fore
SplineSet
521 445 m 2
 521 520 519 588 511 645 c 1
 513 648 l 1
 513 648 523.667 645 548 645 c 0
 570.333 645 583 648 583 648 c 1
 584 645 l 1
 576 592 574 520 574 445 c 2
 574 295 l 2
 574 117 526 -10 321 -10 c 0
 231 -10 86 32 86 236 c 2
 86 445 l 2
 86 520 84 588 76 645 c 1
 78 648 l 1
 78 648 95 645 129 645 c 0
 164 645 181 648 181 648 c 1
 182 645 l 1
 174 592 172 520 172 445 c 2
 172 269 l 2
 172 215.013 174 41 342 41 c 0
 511 41 521 165 521 277 c 2
 521 445 l 2
EndSplineSet
Substitution2: "'c2sc' Capitals to Small Capitals lookup 9 subtable" u.sc
Position2: "'cpsp' Capital Spacing lookup 0 subtable" dx=2 dy=0 dh=5 dv=0
EndChar

StartChar: V
Encoding: 86 86 55
Width: 631
GlyphClass: 2
Flags: MW
HStem: -10 21G 628 20G
AnchorPoint: "Anker-5" 329 722 basechar 0
AnchorPoint: "Anker-4" 331 805 basechar 0
AnchorPoint: "Anker-3" 303 -108 basechar 0
AnchorPoint: "Anker-2" 303 3 basechar 0
LayerCount: 2
Fore
SplineSet
323.992 132.252 m 1
 395.685 298.297 493.642 519.403 528 647.999 c 1
 540 644.999 567 644.999 578 644.999 c 0
 589 644.999 601 644.999 613 647.999 c 1
 318 -10.001 l 1
 290 -10.001 l 1
 198 208.999 66 546.999 16 647.999 c 1
 33 644.999 59 644.999 76 644.999 c 0
 93 644.999 114 644.999 131 647.999 c 1
 140.873 613.442 190.771 436.012 321.991 132.252 c 1
 323.992 132.252 l 1
EndSplineSet
Substitution2: "'c2sc' Capitals to Small Capitals lookup 9 subtable" v.sc
AlternateSubs2: "'aalt' Access All Alternates lookup 0 subtable" V.alt
Position2: "'cpsp' Capital Spacing lookup 0 subtable" dx=2 dy=0 dh=5 dv=0
EndChar

StartChar: W
Encoding: 87 87 56
Width: 951
GlyphClass: 2
Flags: MW
HStem: -10 21G<290 318 290 290 610 638 610 610> 628 20G<933 933>
AnchorPoint: "Anker-5" 429 722 basechar 0
AnchorPoint: "Anker-4" 430 805 basechar 0
AnchorPoint: "Anker-3" 449 -107 basechar 0
AnchorPoint: "Anker-2" 295 0 basechar 0
LayerCount: 2
Fore
SplineSet
644 132 m 1
 716 298 814 519 848 648 c 1
 860 645 887 645 898 645 c 0
 909 645 921 645 933 648 c 1
 638 -10 l 1
 610 -10 l 1
 470.618 330.416 l 1
 318 -10 l 1
 290 -10 l 1
 198 209 66 547 16 648 c 1
 33 645 59 645 76 645 c 0
 93 645 109 645 126 648 c 1
 136 613 188 434 323 123 c 1
 325 123 l 1
 442.764 398.729 l 1
 397.936 508.316 358.595 602.357 336 648 c 1
 353 645 379 645 396 645 c 0
 413 645 434 645 451 648 c 1
 461 613 511 436 642 132 c 1
 644 132 l 1
EndSplineSet
Substitution2: "'c2sc' Capitals to Small Capitals lookup 9 subtable" w.sc
AlternateSubs2: "'aalt' Access All Alternates lookup 0 subtable" W.alt
Position2: "'cpsp' Capital Spacing lookup 0 subtable" dx=2 dy=0 dh=5 dv=0
EndChar

StartChar: X
Encoding: 88 88 57
Width: 571
GlyphClass: 2
Flags: MW
HStem: -2 28 586 27
AnchorPoint: "Anker-5" 331 722 basechar 0
AnchorPoint: "Anker-4" 332 805 basechar 0
AnchorPoint: "Anker-3" 307 -107 basechar 0
AnchorPoint: "Anker-2" 97 0 basechar 0
LayerCount: 2
Fore
SplineSet
554 -3 m 1
 536 0 513.999 0.00195312 495.999 0.00195312 c 0
 477.999 0.00195312 455.999 0.00195312 437.999 -2.99805 c 1
 384.289 100.126 339.382 182.687 279.516 282.751 c 1
 221.585 194.933 161.752 98.082 107 -2.99902 c 1
 96 0.000976562 77 0.000976562 65 0.000976562 c 0
 54 0.000976562 34 0.000976562 23 -2.99902 c 1
 250.494 330.714 l 1
 48 648.001 l 1
 65 645.001 87 645.001 104 645.001 c 0
 121 645.001 143 645.001 161 648.001 c 1
 189.066 589.813 230.882 519.101 301.502 404.549 c 1
 377.557 514.731 401.924 551.709 454 648 c 1
 465 645 485 645 496 645 c 0
 507 645 527 645 538 648 c 1
 330.203 358.123 l 1
 554 -3 l 1
EndSplineSet
Substitution2: "'c2sc' Capitals to Small Capitals lookup 9 subtable" x.sc
Position2: "'cpsp' Capital Spacing lookup 0 subtable" dx=2 dy=0 dh=5 dv=0
EndChar

StartChar: Y
Encoding: 89 89 58
Width: 591
GlyphClass: 2
Flags: MW
HStem: -3 21G 628 20G
VStem: 245.956 88.3482
AnchorPoint: "Anker-5" 293 722 basechar 0
AnchorPoint: "Anker-4" 295 805 basechar 0
AnchorPoint: "Anker-3" 295 -109 basechar 0
AnchorPoint: "Anker-2" 295 1 basechar 0
LayerCount: 2
Fore
SplineSet
334.305 285.594 m 1
 335.192 186.485 337.939 44.9229 342.001 -2.99902 c 1
 326.001 0.000976562 305.001 0.000976562 290.001 0.000976562 c 0
 275.001 0.000976562 255.001 0.000976562 239.001 -2.99902 c 1
 244.713 52.4824 245.764 177.439 245.957 275.076 c 1
 207.885 340.191 55.9854 588.024 16.001 648.001 c 1
 33.001 645.001 56.001 645.001 73.001 645.001 c 0
 90.001 645.001 113.001 645.001 130.001 648.001 c 1
 183.654 542.646 242.065 448.711 305.234 340.202 c 1
 363.047 431.098 429.531 543.179 480.001 648.001 c 1
 492.001 645.001 509.001 645.001 522.001 645.001 c 0
 534.001 645.001 551.001 645.001 564.001 648.001 c 1
 443.3 463.458 375.337 365.485 334.305 285.594 c 1
EndSplineSet
Substitution2: "'c2sc' Capitals to Small Capitals lookup 9 subtable" y.sc
Position2: "'cpsp' Capital Spacing lookup 0 subtable" dx=2 dy=0 dh=5 dv=0
EndChar

StartChar: Z
Encoding: 90 90 59
Width: 604
GlyphClass: 2
Flags: MW
HStem: 0 54<167 232.5 167 496> 0 65<567 569> 580 65<58 60> 591 54<373.5 437.5>
AnchorPoint: "Anker-5" 319 720 basechar 0
AnchorPoint: "Anker-4" 320 803 basechar 0
AnchorPoint: "Anker-3" 287 -107 basechar 0
AnchorPoint: "Anker-2" 287 4 basechar 0
LayerCount: 2
Fore
SplineSet
167 54 m 1x90
 298 54 567 65 567 65 c 1x40
 569 62 l 1
 568 54 567 39 567 29 c 0
 567 19 568 14 569 0 c 1x80
 567 -3 l 1
 551 -1 531.75 0 496 0 c 2x40
 113 0 l 2
 83 0 26 -3 26 -3 c 1
 23 1 l 1
 34 15 43 30 49 38 c 2
 438 579 l 2
 443 586 440 591 435 591 c 0x90
 312 591 60 580 60 580 c 1x20
 58 583 l 1
 59 591 60 606 60 616 c 0
 60 626 59 631 58 645 c 1x10
 60 648 l 1
 76 646 99 645 121 645 c 2x20
 445 645 l 2
 476 645 554.5 648.75 571 651 c 0
 575.5 651 577 649 577 645 c 0
 577 634 567 619 547 591 c 2
 172 72 l 2
 167 63 167 59 167 54 c 1x90
EndSplineSet
Substitution2: "'c2sc' Capitals to Small Capitals lookup 9 subtable" z.sc
Position2: "'cpsp' Capital Spacing lookup 0 subtable" dx=2 dy=0 dh=5 dv=0
EndChar

StartChar: bracketleft
Encoding: 91 91 60
Width: 361
GlyphClass: 2
Flags: MW
HStem: -192 29<110 325> 673 30<110 325>
VStem: 110 68<-93.5 -50 -50 561>
LayerCount: 2
Fore
SplineSet
110 -192 m 1
 110 703 l 1
 325 703 l 1
 325 673 l 1
 188 663 178 648 178 561 c 2
 178 -50 l 2
 178 -137 187 -152 325 -163 c 1
 325 -192 l 1
 110 -192 l 1
EndSplineSet
Substitution2: "'case' Case-Sensitive Forms lookup 23 subtable" bracketleft.sc
Substitution2: "'c2sc' Capitals to Small Capitals lookup 9 subtable" bracketleft.sc
AlternateSubs2: "'aalt' Access All Alternates lookup 0 subtable" bracketleft.sc
EndChar

StartChar: backslash
Encoding: 92 92 61
Width: 292
GlyphClass: 2
Flags: MW
HStem: 688 21G
LayerCount: 2
Fore
SplineSet
60 698 m 1
 290 -48 l 1
 241 -48 l 1
 11 698 l 1
 60 698 l 1
EndSplineSet
EndChar

StartChar: bracketright
Encoding: 93 93 62
Width: 361
GlyphClass: 2
Flags: MW
HStem: -192 30<36 251 36 36> 674 29<36 251>
VStem: 183 68<-50 561 561 604.5>
LayerCount: 2
Fore
SplineSet
251 703 m 1
 251 -192 l 1
 36 -192 l 1
 36 -162 l 1
 173 -152 183 -137 183 -50 c 2
 183 561 l 2
 183 648 174 663 36 674 c 1
 36 703 l 1
 251 703 l 1
EndSplineSet
Substitution2: "'case' Case-Sensitive Forms lookup 23 subtable" bracketright.sc
Substitution2: "'c2sc' Capitals to Small Capitals lookup 9 subtable" bracketright.sc
AlternateSubs2: "'aalt' Access All Alternates lookup 0 subtable" bracketright.sc
EndChar

StartChar: asciicircum
Encoding: 94 94 63
Width: 518
GlyphClass: 2
Flags: MW
HStem: 346 304<112 281 112 281 239 362 239 407>
VStem: 112 295<346 346>
LayerCount: 2
Fore
SplineSet
259 593 m 1
 157 346 l 1
 112 346 l 1
 239 650 l 1
 281 650 l 1
 407 346 l 1
 362 346 l 1
 259 593 l 1
EndSplineSet
EndChar

StartChar: underscore
Encoding: 95 95 64
Width: 486
GlyphClass: 2
Flags: MW
HStem: -154 44<5 482 5 482>
LayerCount: 2
Fore
SplineSet
482 -110 m 1
 482 -154 l 1
 5 -154 l 1
 5 -110 l 1
 482 -110 l 1
EndSplineSet
EndChar

StartChar: grave
Encoding: 96 96 65
Width: 392
GlyphClass: 2
Flags: MW
HStem: 538 163<146 243>
VStem: 96 158<546.5 667>
LayerCount: 2
Fore
SplineSet
178 699 m 1
 248 573 l 2
 253 563 254 556 254 549 c 0
 254 544 247 538 239 538 c 0
 233 538 226 543 210 558 c 2
 96 667 l 1
 98 678 l 1
 106 684 129 701 163 701 c 0
 168 701 174 700 178 699 c 1
EndSplineSet
Substitution2: "'case' Case-Sensitive Forms lookup 23 subtable" grave.cap
EndChar

StartChar: a
Encoding: 97 97 66
Width: 461
GlyphClass: 2
Flags: MW
HStem: -10 51<168 186> 394 45<180.5 220>
VStem: 42 81<86.5 124.5 86.5 132> 291 77<48 90.5>
AnchorPoint: "Anker-5" 210 550 basechar 0
AnchorPoint: "Anker-4" 209 645 basechar 0
AnchorPoint: "Anker-3" 196 -108 basechar 0
AnchorPoint: "Anker-2" 167 -5 basechar 0
AnchorPoint: "Anker-1" 410 16 basechar 0
LayerCount: 2
Fore
SplineSet
292 223 m 1
 212 202 l 2
 138.104 182.603 123 147 123 102 c 0
 123 71 147 41 189 41 c 0
 217 41 249 63 275 84 c 0
 283 90 289 97 289 110 c 2
 292 223 l 1
368 76 m 0
 368 56 373 45 384 45 c 0
 398 45 411 59 420 66 c 1
 423 64 l 1
 439 43 l 1
 408 3 382 -10 351 -10 c 0
 304 -10 293 32 291 48 c 1
 289 48 l 1
 239 3 212 -10 160 -10 c 0
 90 -10 42 24 42 98 c 0
 42 166 103 220 199 243 c 2
 287 264 l 2
 290 265 293 269 293 276 c 0
 293 389 237 394 203 394 c 0
 158 394 116 350 90 305 c 1
 77 306 l 1
 61 373 l 1
 64 377 l 1
 88 398 140 439 212 439 c 0
 284 439 372 412 372 277 c 0
 372 266 368 105 368 76 c 0
EndSplineSet
Substitution2: "'sinf' Wissenschaftliche Indices lookup 8 subtable" a.inferior
Substitution2: "'sups' Superscript lookup 7 subtable" a.superior
Substitution2: "'smcp' Gemeine nach Kapit+AOQA-lchen lookup 3 subtable" a.sc
AlternateSubs2: "'aalt' Access All Alternates lookup 0 subtable" a.sc
EndChar

StartChar: b
Encoding: 98 98 67
Width: 497
GlyphClass: 2
Flags: MW
HStem: -10 44<214.5 277.5 214.5 287> 385 54<256 290.5> 678 20G<156 159.167>
VStem: 75 80<81 81 81 343 384 482 482 500> 375 85<167 272.5>
AnchorPoint: "Anker-5" 276 553 basechar 0
AnchorPoint: "Anker-3" 234 -108 basechar 0
LayerCount: 2
Fore
SplineSet
155 81 m 1
 175 56 199 34 230 34 c 0
 325 34 375 110 375 224 c 0
 375 321 321 385 260 385 c 0
 249 385 194 383 155 343 c 1
 155 81 l 1
155 500 m 2
 155 384 l 1
 189 421 232 439 280 439 c 0
 367 439 460 364 460 242 c 0
 460 83 338 -10 236 -10 c 0
 193 -10 163 2 134 27 c 1
 119.5 14 110 2 101 -12 c 1
 91.5 -12 76 -10.75 70 -7 c 1
 74.25 14.75 75 32 75 71 c 2
 75 482 l 2
 75 558 72.667 627.333 65 670 c 1
 67 673 l 1
 107.5 676 130.931 687.972 156 698 c 1
 162.333 698 165 695 165 688 c 0
 157.333 626.667 155 574 155 500 c 2
EndSplineSet
Substitution2: "'sinf' Wissenschaftliche Indices lookup 8 subtable" b.inferior
Substitution2: "'sups' Superscript lookup 7 subtable" b.superior
Substitution2: "'smcp' Gemeine nach Kapit+AOQA-lchen lookup 3 subtable" b.sc
AlternateSubs2: "'aalt' Access All Alternates lookup 0 subtable" b.sc
EndChar

StartChar: c
Encoding: 99 99 68
Width: 437
GlyphClass: 2
Flags: MW
HStem: -10 54<232.5 279> 394 45<227 279.25>
VStem: 36 85<171.5 279>
AnchorPoint: "Anker-5" 256 550 basechar 0
AnchorPoint: "Anker-4" 253 645 basechar 0
AnchorPoint: "Anker-3" 247 -113 basechar 0
AnchorPoint: "Anker-2" 263 3 basechar 0
AnchorPoint: "Anker-1" 370 42 basechar 0
LayerCount: 2
Fore
SplineSet
260 394 m 0
 194 394 121 340 121 230 c 0
 121 113 194 44 271 44 c 0
 314 44 350 62 381 107 c 1
 385 107 l 1
 405 91 l 1
 372 22.5 309 -10 249 -10 c 0
 123 -10 36 79 36 208 c 0
 36 350 153 439 261 439 c 0
 311 439 364 423 395 407 c 1
 397 404 l 1
 374 322 l 1
 361 321 l 1
 334.5 366.5 298.5 394 260 394 c 0
EndSplineSet
Substitution2: "'sinf' Wissenschaftliche Indices lookup 8 subtable" c.inferior
Substitution2: "'sups' Superscript lookup 7 subtable" c.superior
Substitution2: "'smcp' Gemeine nach Kapit+AOQA-lchen lookup 3 subtable" c.sc
AlternateSubs2: "'aalt' Access All Alternates lookup 0 subtable" c.sc
EndChar

StartChar: d
Encoding: 100 100 69
Width: 514
GlyphClass: 2
Flags: MW
HStem: -10 57<217 242> -3 21G<374 377 456 456> 394 45<241.8 287 211.9 289.5> 678 20G<442 445.167>
VStem: 40 85<158.5 271.003> 361 80<154.5 192 192 335 335 335 417 482 482 500>
AnchorPoint: "Anker-5" 240 550 basechar 0
AnchorPoint: "Anker-4" 239 645 basechar 0
AnchorPoint: "Anker-3" 242 -107 basechar 0
AnchorPoint: "Anker-1" 333 20 basechar 0
LayerCount: 2
Fore
SplineSet
361 109 m 1xbc
 361 335 l 1
 337 373 313 394 266 394 c 0
 217.6 394 125 371.027 125 221 c 0
 125 96 190 47 244 47 c 0
 284.5 47 324.5 62.5 361 109 c 1xbc
361 64 m 1
 325 17.5 266 -10 218 -10 c 0xbc
 110 -10 40 80 40 203 c 0
 40 339.006 146.8 439 277 439 c 0
 297 439 338 430 361 417 c 1
 361 482 l 2
 361 558 358.667 627.333 351 670 c 1
 353 673 l 1
 393.5 676 416.931 687.972 442 698 c 1
 448.333 698 451 695 451 688 c 0
 443.333 626.667 441 574 441 500 c 2
 441 192 l 2
 441 117 450 43 458 0 c 1
 456 -3 l 1
 443 -1 424.127 0 411.5 0 c 0
 397 0 390.333 -1.33301 377 -3 c 0x7c
 371 -3 368 -2 368 0 c 2
 363 64 l 1
 361 64 l 1
EndSplineSet
Substitution2: "'sinf' Wissenschaftliche Indices lookup 8 subtable" d.inferior
Substitution2: "'sups' Superscript lookup 7 subtable" d.superior
Substitution2: "'smcp' Gemeine nach Kapit+AOQA-lchen lookup 3 subtable" d.sc
AlternateSubs2: "'aalt' Access All Alternates lookup 0 subtable" d.sc
EndChar

StartChar: e
Encoding: 101 101 70
Width: 442
GlyphClass: 2
Flags: MW
HStem: -10 59<237 281> 243 44<125 306 306 311 125 391 122 306> 399 40<227.5 257>
VStem: 34 88<168.5 243 168.5 275> 320 89<296.5 302 254.5 338.5>
AnchorPoint: "Anker-5" 245 550 basechar 0
AnchorPoint: "Anker-4" 238 645 basechar 0
AnchorPoint: "Anker-3" 237 -108 basechar 0
AnchorPoint: "Anker-1" 373 41 basechar 0
LayerCount: 2
Fore
SplineSet
125 287 m 1
 306 287 l 2
 316 287 320 292 320 301 c 0
 320 376 275 399 239 399 c 0
 216 399 142 391 125 287 c 1
396 105 m 1
 416 79 l 1
 378 27 317 -10 245 -10 c 0
 108 -10 34 84 34 199 c 0
 34 351 144 439 239 439 c 0
 371 439 409 344 409 260 c 0
 409 249 402 243 391 243 c 2
 122 243 l 1
 122 94 209 49 265 49 c 0
 320 49 361 67 396 105 c 1
EndSplineSet
Substitution2: "'sinf' Wissenschaftliche Indices lookup 8 subtable" e.inferior
Substitution2: "'sups' Superscript lookup 7 subtable" e.superior
Substitution2: "'smcp' Gemeine nach Kapit+AOQA-lchen lookup 3 subtable" e.sc
AlternateSubs2: "'aalt' Access All Alternates lookup 0 subtable" e.sc
EndChar

StartChar: f
Encoding: 102 102 71
Width: 308
GlyphClass: 2
Flags: MW
HStem: -3 21G<84 84 181 181> 385 44<25 93 45 93 45 93 173 266> 638 60<222.329 311.5>
VStem: 93 80<200 385 429 439>
AnchorPoint: "Anker-3" 132 -111 basechar 0
AnchorPoint: "Anker-2" 133 10 basechar 0
LayerCount: 2
Fore
SplineSet
148 622 m 0
 184 671 239 698 302 698 c 0
 321 698 339 694 347 689 c 1
 348 686 l 1
 337 667 327 631 320 604 c 1
 309 603 l 1
 298 623 280 638 251 638 c 0
 193.657 638 168 590.172 168 535 c 0
 168 517 173 476 173 439 c 2
 173 429 l 1
 281 429 l 2
 286 429 289 427 289 423 c 2
 289 398 l 2
 289 389 275 385 266 385 c 2
 173 385 l 1
 173 200 l 2
 173 124.766 174.5 57 183 0 c 1
 181 -3 l 1
 181 -3 167.333 0 133 0 c 0
 98 0 84 -3 84 -3 c 1
 83 0 l 1
 91.5 53.5 93 125.497 93 200 c 2
 93 385 l 1
 27 385 l 2
 23 385 22 386 22 391 c 2
 22 409 l 2
 22 417 27 429 45 429 c 2
 93 429 l 1
 93 469 l 2
 93 547 112 573 148 622 c 0
EndSplineSet
Substitution2: "'sinf' Wissenschaftliche Indices lookup 8 subtable" f.inferior
Substitution2: "'sups' Superscript lookup 7 subtable" f.superior
Substitution2: "'smcp' Gemeine nach Kapit+AOQA-lchen lookup 3 subtable" f.sc
AlternateSubs2: "'aalt' Access All Alternates lookup 0 subtable" f.sc
EndChar

StartChar: g
Encoding: 103 103 72
Width: 479
GlyphClass: 2
Flags: MW
HStem: -238 43 -15 62 -12 66 136 44 395 44
VStem: 32 66 59 78 64 56 308 76 392 61
AnchorPoint: "Anker-5" 220 549 basechar 0
AnchorPoint: "Anker-4" 220 645 basechar 0
AnchorPoint: "Anker-3" 225 -88 basechar 0
LayerCount: 2
Fore
SplineSet
147.1 -13.7109 m 1xdcc0
 110.3 -42.9531 97.999 -70.918 97.999 -103.999 c 0
 97.999 -171.999 177.999 -194.999 211.999 -194.999 c 0
 297.999 -194.999 391.999 -151.999 391.999 -90.999 c 0
 391.999 -64.999 385.496 -50.8154 347.999 -28.999 c 0
 320.499 -12.999 282.999 -11.999 234.999 -11.999 c 0xbcc0
 221.199 -11.999 195.499 -14.999 165.999 -14.999 c 0
 160.078 -14.999 153.516 -14.5322 147.1 -13.7109 c 1xdcc0
383.999 289.001 m 0
 383.999 191.001 305.999 136.001 221.999 136.001 c 0
 184.999 136.001 159.999 143.001 136.999 157.001 c 1xbac0
 125.999 140.001 119.999 119.001 119.999 99.001 c 0
 119.999 56.001 149.999 47.001 177.999 47.001 c 0xd9c0
 182.999 47.001 192.999 48.001 206.999 49.001 c 0
 229.999 52.001 252.999 54.001 269.999 54.001 c 0
 304.999 54.001 373.499 53.001 410.999 21.001 c 0
 438.99 -2.88477 452.999 -35.999 452.999 -67.999 c 0
 452.999 -175.999 312.999 -237.999 183.999 -237.999 c 0
 110.999 -237.999 31.999 -210.999 31.999 -123.999 c 0xbcc0
 31.999 -80.999 58.999 -34.999 109.999 -2.99902 c 1
 84.999 10.001 63.999 38.001 63.999 74.001 c 0xb9c0
 63.999 108.001 78.999 151.001 105.999 175.001 c 1
 78.999 202.001 58.999 233.001 58.999 287.001 c 0xbac0
 58.999 379.001 137.999 439.001 222.999 439.001 c 0
 244.463 439.001 264.338 436.039 282.269 430.443 c 1
 356.818 434.32 392.164 444.947 439.998 449.001 c 1
 442.998 446.001 l 1
 440.998 437.001 439.998 429.001 439.998 420.001 c 0
 439.998 411.001 440.998 403.001 442.998 394.001 c 1
 439.998 391.001 l 1
 398.778 395.183 365.768 399.008 335.634 401.41 c 1
 366.336 375.041 383.999 336.135 383.999 289.001 c 0
307.999 279.001 m 0
 307.999 354.001 273.999 395.001 213.999 395.001 c 0
 161.999 395.001 136.999 347.001 136.999 302.001 c 0
 136.999 238.001 160.999 180.001 226.999 180.001 c 0
 261.999 180.001 307.999 208.001 307.999 279.001 c 0
EndSplineSet
Substitution2: "'sinf' Wissenschaftliche Indices lookup 8 subtable" g.inferior
Substitution2: "'sups' Superscript lookup 7 subtable" g.superior
Substitution2: "'smcp' Gemeine nach Kapit+AOQA-lchen lookup 3 subtable" g.sc
AlternateSubs2: "'aalt' Access All Alternates lookup 0 subtable" g.sc
EndChar

StartChar: h
Encoding: 104 104 73
Width: 520
GlyphClass: 2
Flags: MW
HStem: -3 21G<74 74 171 171 349 349 446 446> 382 57<308.5 311> 678 20G<164 167.167>
VStem: 83 80<180 309 360 481 481 501> 358 80<180 284>
AnchorPoint: "Anker-5" 300 550 basechar 0
AnchorPoint: "Anker-4" 299 645 basechar 0
AnchorPoint: "Anker-3" 259 -111 basechar 0
AnchorPoint: "Anker-1" 411 10 basechar 0
LayerCount: 2
Fore
SplineSet
358 180 m 2
 358 285 l 2
 358 366 339 382 283 382 c 0
 254 382 211 356 163 309 c 1
 163 180 l 2
 163 103.766 164.5 57 173 0 c 1
 171 -3 l 1
 171 -3 157.333 0 123 0 c 0
 88 0 74 -3 74 -3 c 1
 73 0 l 1
 81.5 53.5 83 105.477 83 180 c 2
 83 481 l 2
 83 557 80.667 627.333 73 670 c 1
 75 673 l 1
 115.5 676 138.931 687.972 164 698 c 1
 170.333 698 173 695 173 688 c 0
 165.333 626.667 163 575 163 501 c 2
 163 360 l 1
 230 427 289 439 328 439 c 0
 400 439 438 387 438 284 c 2
 438 180 l 2
 438 103.759 439.5 57 448 0 c 1
 446 -3 l 1
 446 -3 432.333 0 398 0 c 0
 363 0 349 -3 349 -3 c 1
 348 0 l 1
 356.5 53.5 358 105.47 358 180 c 2
EndSplineSet
Substitution2: "'salt' Stilistische Alternativformen lookup 18 subtable" h.alt
Substitution2: "'sinf' Wissenschaftliche Indices lookup 8 subtable" h.inferior
Substitution2: "'sups' Superscript lookup 7 subtable" h.superior
Substitution2: "'smcp' Gemeine nach Kapit+AOQA-lchen lookup 3 subtable" h.sc
AlternateSubs2: "'aalt' Access All Alternates lookup 0 subtable" h.sc h.alt
EndChar

StartChar: i
Encoding: 105 105 74
Width: 268
GlyphClass: 2
Flags: MW
HStem: -3 21G<85 85 182 182> 419 20G<175 178> 519 102<120.5 147.5>
VStem: 83 102<556.5 583.5> 94 80<180 235 235 251 142 272.5>
AnchorPoint: "Anker-3" 136 -107 basechar 0
AnchorPoint: "Anker-2" 137 12 basechar 0
AnchorPoint: "Anker-1" 209 10 basechar 0
LayerCount: 2
Fore
SplineSet
83 570 m 0xf0
 83 597 107 621 134 621 c 0
 161 621 185 597 185 570 c 0
 185 543 161 519 134 519 c 0
 107 519 83 543 83 570 c 0xf0
94 235 m 2xe8
 94 310 92 368 84 411 c 1
 86 414 l 1
 126 417 150 429 175 439 c 1
 181 439 184 436 184 429 c 0
 176 368 174 326 174 251 c 2
 174 180 l 2
 174 104 176 57 184 0 c 1
 182 -3 l 1
 182 -3 168 0 134 0 c 0
 99 0 85 -3 85 -3 c 1
 84 0 l 1
 92 54 94 105 94 180 c 2
 94 235 l 2xe8
EndSplineSet
Substitution2: "'sinf' Wissenschaftliche Indices lookup 8 subtable" i.inferior
Substitution2: "'sups' Superscript lookup 7 subtable" i.superior
Substitution2: "'smcp' Gemeine nach Kapit+AOQA-lchen in Latin lookup 4 subtable" idotaccent.sc
Substitution2: "'smcp' Gemeine nach Kapit+AOQA-lchen lookup 2 subtable" i.sc
AlternateSubs2: "'aalt' Access All Alternates lookup 0 subtable" i.sc
EndChar

StartChar: j
Encoding: 106 106 75
Width: 282
GlyphClass: 2
Flags: MW
HStem: -213 54<31.5 47> 419 20G<193 196> 519 102<138.5 165.5>
VStem: 101 102<556.5 583.5> 112 80<96 235 235 251>
LayerCount: 2
Fore
SplineSet
101 570 m 0xf0
 101 597 125 621 152 621 c 0
 179 621 203 597 203 570 c 0
 203 543 179 519 152 519 c 0
 125 519 101 543 101 570 c 0xf0
115 -63 m 0
 115 -47 112 -13 112 96 c 2
 112 235 l 2
 112 310 110 368 102 411 c 1
 104 414 l 1
 144 417 168 429 193 439 c 1
 199 439 202 436 202 429 c 0
 194 368 192 326.001 192 251 c 2
 192 -2 l 2xe8
 192 -75 184 -99 151 -144 c 0
 117 -190 76 -213 18 -213 c 0
 0 -213 -17 -209 -24 -205 c 1
 -25 -202 l 1
 -15 -184 -16 -153 -9 -128 c 1
 1 -127 l 1
 11 -145 18 -159 45 -159 c 0
 98 -159 115 -115 115 -63 c 0
EndSplineSet
Substitution2: "'sinf' Wissenschaftliche Indices lookup 8 subtable" j.inferior
Substitution2: "'sups' Superscript lookup 7 subtable" j.superior
Substitution2: "'smcp' Gemeine nach Kapit+AOQA-lchen lookup 3 subtable" j.sc
AlternateSubs2: "'aalt' Access All Alternates lookup 0 subtable" j.sc idotaccent.sc
EndChar

StartChar: k
Encoding: 107 107 76
Width: 476
GlyphClass: 2
Flags: MW
HStem: -3 21G<76 76 173 173 467.001 467.001> 412 20G 678 20G
VStem: 85 80<162.749 200>
AnchorPoint: "Anker-5" 276 551 basechar 0
AnchorPoint: "Anker-4" 275 646 basechar 0
AnchorPoint: "Anker-3" 263 -107 basechar 0
AnchorPoint: "Anker-2" 125 9 basechar 0
LayerCount: 2
Fore
SplineSet
85 200 m 2
 84.999 482.001 l 2
 84.999 558.001 82.666 627.334 74.999 670.001 c 1
 76.999 673.001 l 1
 117.499 676.001 140.93 687.973 165.999 698.001 c 1
 172.332 698.001 174.999 695.001 174.999 688.001 c 0
 167.332 626.668 164.999 575.001 164.999 500.001 c 2
 164.999 237.946 l 1
 172.77 239.826 180.263 244.511 190 252.001 c 0
 229.641 282.494 301.875 366.471 345 429.001 c 1
 372 429.001 427 429.001 446 432.001 c 1
 448 429.001 l 1
 383.038 373.882 300.436 278.896 261.001 238 c 1
 356.427 122.83 394.617 78.6338 469.001 0 c 1
 467.001 -3 l 1
 458.001 -1.16699 423.668 0 407.001 0 c 0
 390.001 0 356.334 -1.16699 341.001 -3 c 1
 270.05 95.8252 251.001 135 186.001 203 c 0
 179.809 208.504 171.723 210.694 165 211.525 c 1
 165 200 l 2
 165 124.766 166.5 57 175 0 c 1
 173 -3 l 1
 173 -3 159.333 0 125 0 c 0
 90 0 76 -3 76 -3 c 1
 75 0 l 1
 83.5 53.5 85 125.497 85 200 c 2
EndSplineSet
Substitution2: "'sinf' Wissenschaftliche Indices lookup 8 subtable" k.inferior
Substitution2: "'sups' Superscript lookup 7 subtable" k.superior
Substitution2: "'smcp' Gemeine nach Kapit+AOQA-lchen lookup 3 subtable" k.sc
AlternateSubs2: "'aalt' Access All Alternates lookup 0 subtable" k.sc
EndChar

StartChar: l
Encoding: 108 108 77
Width: 260
GlyphClass: 2
Flags: MW
HStem: -3 21G<81 81 178 178> 678 20G<171 174.167>
VStem: 90 80<200 482 482 500>
AnchorPoint: "Anker-3" 135 -107 basechar 0
AnchorPoint: "Anker-2" 130 10 basechar 0
LayerCount: 2
Fore
SplineSet
90 200 m 2
 90 482 l 2
 90 558 87.667 627.333 80 670 c 1
 82 673 l 1
 122.5 676 145.931 687.972 171 698 c 1
 177.333 698 180 695 180 688 c 0
 172.333 626.667 170 575 170 500 c 2
 170 200 l 2
 170 124.766 171.5 57 180 0 c 1
 178 -3 l 1
 178 -3 164.333 0 130 0 c 0
 95 0 81 -3 81 -3 c 1
 80 0 l 1
 88.5 53.5 90 125.497 90 200 c 2
EndSplineSet
Substitution2: "'sinf' Wissenschaftliche Indices lookup 8 subtable" l.inferior
Substitution2: "'sups' Superscript lookup 7 subtable" l.superior
Substitution2: "'smcp' Gemeine nach Kapit+AOQA-lchen lookup 3 subtable" l.sc
AlternateSubs2: "'aalt' Access All Alternates lookup 0 subtable" l.sc
EndChar

StartChar: m
Encoding: 109 109 78
Width: 765
GlyphClass: 2
Flags: MW
HStem: -3 21G<71 71 168 168 333 333 430 430 596 596 693 693> 381 58<274 288 540 558>
VStem: 80 80<180 235 235 272.333> 342 80<180 281> 605 80<180 280>
AnchorPoint: "Anker-5" 386 550 basechar 0
AnchorPoint: "Anker-4" 385 645 basechar 0
AnchorPoint: "Anker-3" 385 -105 basechar 0
AnchorPoint: "Anker-2" 120 9 basechar 0
LayerCount: 2
Fore
SplineSet
605 180 m 2
 605 292 l 2
 605 359 585 381 531 381 c 0
 492 381 469 364 421 311 c 1
 422 299 422 295 422 281 c 2
 422 180 l 2
 422 103.766 423.5 57 432 0 c 1
 430 -3 l 1
 430 -3 416.333 0 382 0 c 0
 347 0 333 -3 333 -3 c 1
 332 0 l 1
 340.5 53.5 342 105.483 342 180 c 2
 342 290 l 2
 342 357 307 381 269 381 c 0
 234 381 207 359 160 310 c 1
 160 180 l 2
 160 104 161.5 57 170 0 c 1
 168 -3 l 1
 168 -3 154.333 0 120 0 c 0
 85 0 71 -3 71 -3 c 1
 70 0 l 1
 78.5 53.5 80 105 80 180 c 2
 80 235 l 2
 80 309.667 77.667 368.333 70 411 c 1
 72 414 l 1
 112.5 417 132.931 428.972 158 439 c 1
 164.333 439 167 436 167 429 c 1
 162 398.667 157.806 360 157.806 360 c 1
 160 360 l 1
 207 410 243 439 305 439 c 0
 361 439 408 405 415 360 c 1
 472 420 513 439 567 439 c 0
 675 439 685 369 685 280 c 2
 685 180 l 2
 685 103.766 686.5 57 695 0 c 1
 693 -3 l 1
 693 -3 679.333 0 645 0 c 0
 610 0 596 -3 596 -3 c 1
 595 0 l 1
 603.5 53.5 605 105.483 605 180 c 2
EndSplineSet
Substitution2: "'sinf' Wissenschaftliche Indices lookup 8 subtable" m.inferior
Substitution2: "'sups' Superscript lookup 7 subtable" m.superior
Substitution2: "'smcp' Gemeine nach Kapit+AOQA-lchen lookup 3 subtable" m.sc
AlternateSubs2: "'aalt' Access All Alternates lookup 0 subtable" m.sc
EndChar

StartChar: n
Encoding: 110 110 79
Width: 523
GlyphClass: 2
Flags: MW
HStem: -3 21G<75 75 172 172 349 349 446 446> 381 58<299.5 321.5>
VStem: 84 79.999 358 80<180 278 278 281>
AnchorPoint: "Anker-5" 261 550 basechar 0
AnchorPoint: "Anker-4" 260 646 basechar 0
AnchorPoint: "Anker-3" 261 -111 basechar 0
AnchorPoint: "Anker-2" 124 9 basechar 0
LayerCount: 2
Fore
SplineSet
438 180 m 2
 438 104 439 57 448 0 c 1
 446 -3 l 1
 446 -3 432 0 398 0 c 0
 363 0 349 -3 349 -3 c 1
 348 0 l 1
 357 54 358 105 358 180 c 2
 358 278 l 2
 358 348 348 381 295 381 c 0
 251 381 214.999 367 163.999 307 c 1
 163.999 180 l 2
 163.999 104 165.5 57 174 0 c 1
 172 -3 l 1
 172 -3 158.333 0 124 0 c 0
 89 0 75 -3 75 -3 c 1
 74 0 l 1
 82.5 53.5 84 105 84 180 c 2
 84 235 l 2
 84 309.667 81.667 368.333 74 411 c 1
 76 414 l 1
 116.5 417 136.931 428.972 162 439 c 1
 168.333 439 171 436 171 429 c 1
 166 398.667 161.806 356.998 161.806 356.998 c 1
 163.999 356.998 l 1
 227.999 431.998 274 439 325 439 c 0
 415 439 438 370 438 281 c 2
 438 180 l 2
EndSplineSet
Substitution2: "'sinf' Wissenschaftliche Indices lookup 8 subtable" n.inferior
Substitution2: "'sups' Superscript lookup 7 subtable" n.superior
Substitution2: "'smcp' Gemeine nach Kapit+AOQA-lchen lookup 3 subtable" n.sc
AlternateSubs2: "'aalt' Access All Alternates lookup 0 subtable" n.sc
EndChar

StartChar: o
Encoding: 111 111 80
Width: 510
GlyphClass: 2
Flags: MW
HStem: -10 41<217 291.5 217 326.5> 398 41<207 292.5>
VStem: 36 90<189.5 271.5 189.5 273.5> 384 90<160.5 260.5>
AnchorPoint: "Anker-5" 261 550 basechar 0
AnchorPoint: "Anker-4" 251 645 basechar 0
AnchorPoint: "Anker-3" 262 -107 basechar 0
AnchorPoint: "Anker-2" 255 -3 basechar 0
AnchorPoint: "Anker-1" 402 44 basechar 0
LayerCount: 2
Fore
SplineSet
36 205 m 0
 36 342 126 439 257 439 c 0
 414 439 474 318 474 214 c 0
 474 107 398 -10 255 -10 c 0
 117 -10 36 95 36 205 c 0
250 398 m 0
 164 398 126 315 126 228 c 0
 126 151 165 31 269 31 c 0
 314 31 384 63 384 187 c 0
 384 334 335 398 250 398 c 0
EndSplineSet
Substitution2: "'sinf' Wissenschaftliche Indices lookup 8 subtable" o.inferior
Substitution2: "'sups' Superscript lookup 7 subtable" o.superior
Substitution2: "'smcp' Gemeine nach Kapit+AOQA-lchen lookup 3 subtable" o.sc
AlternateSubs2: "'aalt' Access All Alternates lookup 0 subtable" o.sc
EndChar

StartChar: p
Encoding: 112 112 81
Width: 506
GlyphClass: 2
Flags: MW
HStem: -235 21G<66 66 163 163> -10 44<230 291.5 230 308.624> 383 56<270 289.5>
VStem: 75 80<-32 12 77 235 235 272.333> 370 96<167 264.5>
AnchorPoint: "Anker-5" 272 551 basechar 0
AnchorPoint: "Anker-4" 271 646 basechar 0
LayerCount: 2
Fore
SplineSet
155 301 m 1
 155 77 l 1
 190 36 222 34 238 34 c 0
 345 34 370 126 370 208 c 0
 370 321 320 383 259 383 c 0
 225 383 177 354 155 301 c 1
75 -32 m 2
 75 235 l 2
 75 309.667 72.667 368.333 65 411 c 1
 67 414 l 1
 107.5 417 128.931 428.972 154 439 c 1
 160.333 439 163 436 163 429 c 1
 158 398.667 153.806 360 153.806 360 c 1
 156 360 l 1
 202 430 254 439 286 439 c 0
 383 439 466 341 466 235 c 0
 466 94.1387 373.248 -10 244 -10 c 0
 208 -10 181 -2 155 12 c 1
 155 -32 l 2
 155 -107.234 156.5 -175 165 -232 c 1
 163 -235 l 1
 163 -235 149.333 -232 115 -232 c 0
 80 -232 66 -235 66 -235 c 1
 65 -232 l 1
 73.5 -178.5 75 -106.503 75 -32 c 2
EndSplineSet
Substitution2: "'sinf' Wissenschaftliche Indices lookup 8 subtable" p.inferior
Substitution2: "'sups' Superscript lookup 7 subtable" p.superior
Substitution2: "'smcp' Gemeine nach Kapit+AOQA-lchen lookup 3 subtable" p.sc
AlternateSubs2: "'aalt' Access All Alternates lookup 0 subtable" p.sc
EndChar

StartChar: q
Encoding: 113 113 82
Width: 506
GlyphClass: 2
Flags: MW
HStem: -235 21G<339 339 436 436> -10 54<242 275.5> 395 44<208 269>
VStem: 36 96<160.5 273> 348 80<-32 23 23 23 66 326 326 326>
AnchorPoint: "Anker-5" 247 550 basechar 0
AnchorPoint: "Anker-4" 246 645 basechar 0
LayerCount: 2
Fore
SplineSet
348 326 m 1
 321 371 290 395 248 395 c 0
 168 395 132 331 132 227 c 0
 132 76 213 44 271 44 c 0
 290 44 322 46 348 66 c 1
 348 326 l 1
348 -32 m 2
 348 23 l 1
 333 10 304 -10 247 -10 c 0
 103 -10 36 114 36 207 c 0
 36 339 130 439 252 439 c 0
 301 439 344 428 377 399 c 1
 392 423 l 2
 399 435 408 442 415 442 c 0
 426 442 428 431 428 417 c 2
 428 -32 l 2
 428 -107.234 429.5 -175 438 -232 c 1
 436 -235 l 1
 436 -235 422.333 -232 388 -232 c 0
 353 -232 339 -235 339 -235 c 1
 338 -232 l 1
 346.5 -178.5 348 -106 348 -32 c 2
EndSplineSet
Substitution2: "'sinf' Wissenschaftliche Indices lookup 8 subtable" q.inferior
Substitution2: "'sups' Superscript lookup 7 subtable" q.superior
Substitution2: "'smcp' Gemeine nach Kapit+AOQA-lchen lookup 3 subtable" q.sc
AlternateSubs2: "'aalt' Access All Alternates lookup 0 subtable" q.sc
EndChar

StartChar: r
Encoding: 114 114 83
Width: 355
GlyphClass: 2
Flags: MW
HStem: -3 21G<85 85 182 182> 366 73
VStem: 94 80<180 235 235 272>
AnchorPoint: "Anker-5" 192 551 basechar 0
AnchorPoint: "Anker-4" 191 646 basechar 0
AnchorPoint: "Anker-3" 135 -108 basechar 0
AnchorPoint: "Anker-2" 134 7 basechar 0
LayerCount: 2
Fore
SplineSet
174 354 m 1
 200 393 252 439 299 439 c 0
 317 439 323 437 340 432 c 1
 344 428 l 1
 324 354 l 1
 316 352 l 1
 298 366 277 366 258 366 c 0
 243 366 218 356 198 338 c 0
 182 322 174 296 174 272 c 2
 174 180 l 2
 174 104 176 57 184 0 c 1
 182 -3 l 1
 182 -3 168 0 134 0 c 0
 99 0 85 -3 85 -3 c 1
 84 0 l 1
 92 54 94 105 94 180 c 2
 94 235 l 2
 94 310 87 368 79 411 c 1
 81 414 l 1
 122 417 140 429 165 439 c 1
 171 439 174 436 174 429 c 0
 173 400 172 354 172 354 c 1
 174 354 l 1
EndSplineSet
Substitution2: "'sinf' Wissenschaftliche Indices lookup 8 subtable" r.inferior
Substitution2: "'sups' Superscript lookup 7 subtable" r.superior
Substitution2: "'smcp' Gemeine nach Kapit+AOQA-lchen lookup 3 subtable" r.sc
AlternateSubs2: "'aalt' Access All Alternates lookup 0 subtable" r.sc
EndChar

StartChar: s
Encoding: 115 115 84
Width: 366
GlyphClass: 2
Flags: MW
HStem: -10 37<156 198 150.5 239> 17 79<31 47> 403 36<178.5 223.5>
VStem: 51 70<311 356.5 311 358.5> 257 77<99.5 137.5>
AnchorPoint: "Anker-5" 197 550 basechar 0
AnchorPoint: "Anker-4" 196 645 basechar 0
AnchorPoint: "Anker-3" 187 -111 basechar 0
AnchorPoint: "Anker-2" 186 2 basechar 0
AnchorPoint: "Anker-1" 276 13 basechar 0
LayerCount: 2
Fore
SplineSet
47 96 m 1x78
 61 97 l 1
 83 54 128 27 173 27 c 0
 223 27 257 60 257 113 c 0
 257 162 218.87 172.662 164 194 c 0
 128 208 91 222 70 252 c 0
 59 267 51 291 51 317 c 0
 51 400 133 439 203 439 c 0
 251 439 294 422 321 407 c 1
 323 404 l 1
 304 337 l 1
 291 336 l 1
 278 364 248 403 199 403 c 0
 158 403 121 377 121 336 c 0
 121 286 171.109 270.314 206 258 c 0
 274 234 334 209 334 127 c 0
 334 72 304 -10 174 -10 c 0xb8
 138 -10 85 -3 31 17 c 1
 47 96 l 1x78
EndSplineSet
Substitution2: "'sinf' Wissenschaftliche Indices lookup 8 subtable" s.inferior
Substitution2: "'sups' Superscript lookup 7 subtable" s.superior
Substitution2: "'smcp' Gemeine nach Kapit+AOQA-lchen lookup 3 subtable" s.sc
AlternateSubs2: "'aalt' Access All Alternates lookup 0 subtable" s.sc
EndChar

StartChar: t
Encoding: 116 116 85
Width: 302
GlyphClass: 2
Flags: MW
HStem: -10 60<139 210> 385 44<23 24 24 87 167 258> 558 20G<163 166.167>
VStem: 87 80<231 242 242 385 429 458>
AnchorPoint: "Anker-3" 163 -107 basechar 0
AnchorPoint: "Anker-2" 165 -3 basechar 0
AnchorPoint: "Anker-1" 237 15 basechar 0
LayerCount: 2
Fore
SplineSet
87 429 m 1
 87 487 87 508 80 550 c 1
 82 553 l 1
 122.5 556 137.931 567.972 163 578 c 1
 169.333 578 172 575.333 172 568 c 0
 167.5 510 167 503.797 167 429 c 1
 274 429 l 2
 279 429 282 427 282 423 c 2
 282 398 l 2
 282 389 268 385 258 385 c 2
 167 385 l 1
 167 242 l 2
 167 182 164 142 164 112 c 0
 164 71 170 50 197 50 c 0
 223 50 239 52.333 265.667 67.667 c 1
 278 40 l 1
 239.333 4 204 -10 162 -10 c 0
 116 -10 84 22 84 69 c 0
 84 99 87 171 87 231 c 2
 87 385 l 1
 24 385 l 2
 21 385 20 386 20 389 c 2
 20 425 l 2
 20 428 21 429 23 429 c 2
 87 429 l 1
EndSplineSet
Substitution2: "'sinf' Wissenschaftliche Indices lookup 8 subtable" t.inferior
Substitution2: "'sups' Superscript lookup 7 subtable" t.superior
Substitution2: "'smcp' Gemeine nach Kapit+AOQA-lchen lookup 3 subtable" t.sc
AlternateSubs2: "'aalt' Access All Alternates lookup 0 subtable" t.sc
EndChar

StartChar: u
Encoding: 117 117 86
Width: 521
GlyphClass: 2
Flags: MW
HStem: -10 55<223 232.5> -3 21G<363 366 445 445> 412 20G<76 76 173 173 342 342 439 439>
VStem: 84 80<126 150 150 249> 350 80<154.5 192 192 249 154.5 287>
AnchorPoint: "Anker-5" 254 550 basechar 0
AnchorPoint: "Anker-4" 254 646 basechar 0
AnchorPoint: "Anker-3" 238 -111 basechar 0
AnchorPoint: "Anker-2" 212 0 basechar 0
AnchorPoint: "Anker-1" 286 7 basechar 0
LayerCount: 2
Fore
SplineSet
350 64 m 1x78
 294 4 253 -10 212 -10 c 0
 113 -10 84 57 84 126 c 2
 84 249 l 2
 84 325 83 372 74 429 c 1
 76 432 l 1
 76 432 90 429 124 429 c 0
 159 429 173 432 173 432 c 1
 174 429 l 1
 165 376 164 324 164 249 c 2
 164 150 l 2
 164 61 208 45 238 45 c 0xb8
 282.8 45 323.915 88.1729 350 119 c 1
 350 249 l 2
 350 325 349 372 340 429 c 1
 342 432 l 1
 342 432 356 429 390 429 c 0
 425 429 439 432 439 432 c 1
 440 429 l 1
 431 376 430 324 430 249 c 2
 430 192 l 2
 430 117 439 43 447 0 c 1
 445 -3 l 1
 432 -1 413.127 0 400.5 0 c 0
 386 0 379.333 -1.33301 366 -3 c 0
 360 -3 357 -2 357 0 c 2
 352 64 l 1
 350 64 l 1x78
EndSplineSet
Substitution2: "'sinf' Wissenschaftliche Indices lookup 8 subtable" u.inferior
Substitution2: "'sups' Superscript lookup 7 subtable" u.superior
Substitution2: "'smcp' Gemeine nach Kapit+AOQA-lchen lookup 3 subtable" u.sc
AlternateSubs2: "'aalt' Access All Alternates lookup 0 subtable" u.sc
EndChar

StartChar: v
Encoding: 118 118 87
Width: 492
GlyphClass: 2
Flags: MW
HStem: -3 21G 412 20G
AnchorPoint: "Anker-5" 258 551 basechar 0
AnchorPoint: "Anker-4" 257 646 basechar 0
AnchorPoint: "Anker-3" 235 -113 basechar 0
LayerCount: 2
Fore
SplineSet
207 -3 m 1
 151 143 92 284.999 25 431.999 c 1
 41 428.999 62 428.999 78 428.999 c 0
 92 428.999 115 428.999 128 431.999 c 1
 164.323 317.295 206.745 204.632 256.797 90.123 c 1
 258.797 90.123 l 1
 304.744 188.104 349.482 318.927 390 432 c 1
 399 429 414 429 424 429 c 0
 434 429 458 429 467 432 c 1
 402 285 335 143 283 -3 c 1
 274 0 254 0 244 0 c 0
 234 0 217 0 207 -3 c 1
EndSplineSet
Substitution2: "'sinf' Wissenschaftliche Indices lookup 8 subtable" v.inferior
Substitution2: "'sups' Superscript lookup 7 subtable" v.superior
Substitution2: "'smcp' Gemeine nach Kapit+AOQA-lchen lookup 3 subtable" v.sc
AlternateSubs2: "'aalt' Access All Alternates lookup 0 subtable" v.sc
EndChar

StartChar: w
Encoding: 119 119 88
Width: 752
GlyphClass: 2
Flags: MW
HStem: 0 90.124 411 21G
AnchorPoint: "Anker-5" 341 552 basechar 0
AnchorPoint: "Anker-4" 340 646 basechar 0
AnchorPoint: "Anker-3" 347 -111 basechar 0
LayerCount: 2
Fore
SplineSet
206 -4 m 1
 150 142 92 283.998 25 430.998 c 1
 41 427.998 62 427.998 78 427.998 c 0
 92 427.998 115 427.998 128 430.998 c 1
 164.323 316.294 202.745 203.631 252.797 89.1221 c 1
 258.797 89.1221 l 1
 287.141 149.564 316.904 222.503 344.404 296.063 c 1
 285 431.998 l 1
 301 428.998 322 428.998 338 428.998 c 0
 352 428.998 375 428.998 388 431.998 c 1
 424.323 317.294 463.745 204.631 513.797 90.1221 c 1
 521.797 90.1221 l 1
 567.744 188.104 609.482 318.926 650 431.999 c 1
 659 428.999 674 428.999 684 428.999 c 0
 694 428.999 718 428.999 727 431.999 c 1
 662 284.999 592 142.999 540 -3.00098 c 1
 531 -0.000976562 509 -0.000976562 499 -0.000976562 c 0
 489 -0.000976562 473 -0.000976562 463 -3.00098 c 1
 371.329 230.893 l 1
 339.313 153.189 310.066 71.9951 283 -4 c 1
 274 -1 249 -1 239 -1 c 0
 229 -1 216 -1 206 -4 c 1
EndSplineSet
Substitution2: "'sinf' Wissenschaftliche Indices lookup 8 subtable" w.inferior
Substitution2: "'sups' Superscript lookup 7 subtable" w.superior
Substitution2: "'smcp' Gemeine nach Kapit+AOQA-lchen lookup 3 subtable" w.sc
AlternateSubs2: "'aalt' Access All Alternates lookup 0 subtable" w.sc
EndChar

StartChar: x
Encoding: 120 120 89
Width: 455
GlyphClass: 2
Flags: MW
HStem: -3 21G<18 18> 412 20G
AnchorPoint: "Anker-5" 257 551 basechar 0
AnchorPoint: "Anker-4" 256 646 basechar 0
AnchorPoint: "Anker-3" 224 -110 basechar 0
AnchorPoint: "Anker-2" 94 8 basechar 0
LayerCount: 2
Fore
SplineSet
184.468 206.808 m 1
 14.001 432.002 l 1
 30.001 429.002 56.001 429.002 72.001 429.002 c 0
 89.001 429.002 109.001 429.002 126.001 432.002 c 1
 159.642 376.254 196.978 323.278 237.121 268.635 c 1
 279.336 323.278 320.553 376.255 359 432.002 c 1
 370 429.002 385 429.002 396 429.002 c 0
 406 429.002 430 429.002 441 432.002 c 1
 266.897 230.347 l 1
 320.829 152.276 379.461 75.1162 440 -2.99902 c 1
 425 0.000976562 404 0.000976562 389 0.000976562 c 0
 373 0.000976562 347 0.000976562 332 -2.99902 c 1
 295.637 54.2725 255.968 109.064 215.999 165.135 c 1
 176.015 109.064 136.181 54.2715 98 -3 c 1
 88 0 64 0 54 0 c 0
 44 0 28 0 18 -3 c 1
 184.468 206.808 l 1
EndSplineSet
Substitution2: "'sinf' Wissenschaftliche Indices lookup 8 subtable" x.inferior
Substitution2: "'sups' Superscript lookup 7 subtable" x.superior
Substitution2: "'smcp' Gemeine nach Kapit+AOQA-lchen lookup 3 subtable" x.sc
AlternateSubs2: "'aalt' Access All Alternates lookup 0 subtable" x.sc
EndChar

StartChar: y
Encoding: 121 121 90
Width: 486
GlyphClass: 2
Flags: MW
HStem: -237 21G 412 20G
VStem: 94 84<-237 -237>
AnchorPoint: "Anker-5" 284 550 basechar 0
AnchorPoint: "Anker-4" 275 644 basechar 0
LayerCount: 2
Fore
SplineSet
18 432 m 1
 32 429 56.999 428.999 69.999 428.999 c 0
 83.999 428.999 105.999 428.999 118.999 431.999 c 1
 156.408 317.803 203.479 206.515 252.668 87.6387 c 1
 254.668 87.6387 l 1
 303.291 191.241 349.963 319.019 386 432 c 1
 396 429 415 429 425 429 c 0
 435 429 458 429 468 432 c 1
 435 365 216 -112 178 -237 c 1
 168 -234 139 -232 129 -232 c 0
 119 -232 104 -234 94 -237 c 1
 139.19 -161.683 173.835 -93.8047 205.85 -19.1484 c 1
 170.436 75.9375 57.7949 343.227 18 432 c 1
EndSplineSet
Substitution2: "'sinf' Wissenschaftliche Indices lookup 8 subtable" y.inferior
Substitution2: "'sups' Superscript lookup 7 subtable" y.superior
Substitution2: "'smcp' Gemeine nach Kapit+AOQA-lchen lookup 3 subtable" y.sc
AlternateSubs2: "'aalt' Access All Alternates lookup 0 subtable" y.sc
EndChar

StartChar: z
Encoding: 122 122 91
Width: 416
GlyphClass: 2
Flags: MW
HStem: 0 50.0324 378.748 50.2524
AnchorPoint: "Anker-5" 221 551 basechar 0
AnchorPoint: "Anker-4" 220 646 basechar 0
AnchorPoint: "Anker-3" 207 -111 basechar 0
AnchorPoint: "Anker-2" 208 4 basechar 0
LayerCount: 2
Fore
SplineSet
135.9 50.0322 m 1
 257.535 50.6855 386 61 386 61 c 1
 388 58 l 1
 387 50 386 36 386 27 c 0
 386 18 387 13 388 0 c 1
 386 -3 l 1
 371 -1 350 0 330 0 c 2
 104 0 l 2
 75.5 0 23 -3 23 -3 c 1
 20 1.5 l 1
 28 10.667 33.9092 20.0615 42 32 c 2
 276.986 378.748 l 1
 162.396 377.105 49 368 49 368 c 1
 47 371 l 1
 48 379 49 393 49 402 c 0
 49 411 48 416 47 429 c 1
 49 432 l 1
 64 430 85 429 105 429 c 2
 309 429 l 2
 338 429 384.666 435.334 389.666 435.334 c 0
 393.667 435.334 395 433 395 429 c 1
 389 422 382.203 412.302 365 387 c 2
 135.9 50.0322 l 1
EndSplineSet
Substitution2: "'sinf' Wissenschaftliche Indices lookup 8 subtable" z.inferior
Substitution2: "'sups' Superscript lookup 7 subtable" z.superior
Substitution2: "'smcp' Gemeine nach Kapit+AOQA-lchen lookup 3 subtable" z.sc
AlternateSubs2: "'aalt' Access All Alternates lookup 0 subtable" z.sc
EndChar

StartChar: braceleft
Encoding: 123 123 92
Width: 278
GlyphClass: 2
Flags: MW
HStem: -212 22<227 249> 685 22<249 249>
VStem: 106 73<-49 95 370 386 386 554 554 562>
LayerCount: 2
Fore
SplineSet
179 562 m 2
 179 386 l 2
 179 295 165 268 116 247 c 1
 174 222 179 180 179 95 c 2
 179 -64 l 2
 179 -136 205 -190 249 -190 c 1
 249 -212 l 1
 147 -210 106 -179 106 -49 c 2
 106 121 l 2
 106 182 88 226 34 239 c 1
 34 254 l 1
 90 270 106 320 106 370 c 2
 106 554 l 2
 106 669 148 704 249 707 c 1
 249 685 l 1
 211 674 179 653 179 562 c 2
EndSplineSet
Substitution2: "'case' Case-Sensitive Forms lookup 23 subtable" braceleft.sc
Substitution2: "'c2sc' Capitals to Small Capitals lookup 9 subtable" braceleft.sc
AlternateSubs2: "'aalt' Access All Alternates lookup 0 subtable" braceleft.sc
EndChar

StartChar: bar
Encoding: 124 124 93
Width: 210
GlyphClass: 2
Flags: MW
HStem: -232 21G<81 130 81 81> 678 20G<81 130 130 130>
VStem: 81 49<-232 698>
LayerCount: 2
Fore
SplineSet
130 -232 m 1
 81 -232 l 1
 81 698 l 1
 130 698 l 1
 130 -232 l 1
EndSplineSet
EndChar

StartChar: braceright
Encoding: 125 125 94
Width: 278
GlyphClass: 2
Flags: MW
HStem: -213 22<29 29> 684 22<29 51>
VStem: 99 73<-68 -60 -60 108 108 124 399 543>
LayerCount: 2
Fore
SplineSet
99 -68 m 2
 99 108 l 2
 99 199 113 226 162 247 c 1
 104 272 99 314 99 399 c 2
 99 558 l 2
 99 630 73 684 29 684 c 1
 29 706 l 1
 131 704 172 673 172 543 c 2
 172 373 l 2
 172 312 190 268 244 255 c 1
 244 240 l 1
 188 224 172 174 172 124 c 2
 172 -60 l 2
 172 -175 130 -210 29 -213 c 1
 29 -191 l 1
 67 -180 99 -159 99 -68 c 2
EndSplineSet
Substitution2: "'case' Case-Sensitive Forms lookup 23 subtable" braceright.sc
Substitution2: "'c2sc' Capitals to Small Capitals lookup 9 subtable" braceright.sc
AlternateSubs2: "'aalt' Access All Alternates lookup 0 subtable" braceright.sc
EndChar

StartChar: asciitilde
Encoding: 126 126 95
Width: 449
GlyphClass: 2
Flags: MW
HStem: 213 59<290 309> 278 59<130.5 160.5>
VStem: 26 13<206 209> 400 17<333 339>
LayerCount: 2
Fore
SplineSet
26 209 m 1
 39 274 93 337 154 337 c 0
 177 337 202 321 228 305 c 0
 253 289 279 272 301 272 c 0
 329 272 378 289 400 339 c 1
 417 333 l 1
 386 226 321 213 297 213 c 0
 271 213 246 229 222 246 c 0
 197 263 173 278 148 278 c 0
 113 278 62 250 39 206 c 1
 26 209 l 1
EndSplineSet
EndChar

StartChar: exclamdown
Encoding: 161 161 97
Width: 228
GlyphClass: 2
Flags: MW
HStem: -229 21G<101.5 126> 327 112<113 117 113 117>
VStem: 59 110<-181 -123.5>
LayerCount: 2
Fore
SplineSet
115 -229 m 0
 88 -229 59 -206 59 -156 c 0
 59 -91 74.8262 -48.9795 85 37 c 0
 97.7822 145.025 99 205 101 219 c 0
 102 230 105 239 115 239 c 0
 126 239 128 232 129 226 c 0
 131 205 136.012 115.001 144 37 c 0
 153.013 -50.999 169 -86 169 -156 c 0
 169 -210 137 -229 115 -229 c 0
171 385 m 1
 171 381 l 1
 161.75 354.5 147.25 339.25 117 327 c 1
 113 327 l 1
 84 337.5 68.25 352.75 59 381 c 1
 59 385 l 1
 69.25 417.25 84.75 432 113 439 c 1
 117 439 l 1
 148.25 432 162.25 418.5 171 385 c 1
EndSplineSet
Substitution2: "'case' Case-Sensitive Forms lookup 23 subtable" exclamdown.sc
Substitution2: "'c2sc' Capitals to Small Capitals lookup 9 subtable" exclamdown.sc
AlternateSubs2: "'aalt' Access All Alternates lookup 0 subtable" exclamdown.sc
EndChar

StartChar: cent
Encoding: 162 162 98
Width: 440
GlyphClass: 2
Flags: MW
HStem: -12 21G<225 259 225 225> 83.0281 48.5715 380.9 77.3994<356.9 387.5> 446.6 40.5<265.586 283.325> 558 20G<225 259.001 259.001 259.001>
VStem: 64.4004 76.5<259.67 333.955> 225 34<-12 83.0283 -12 85.0986 -12 85.0986 438.907 438.907>
LayerCount: 2
Fore
SplineSet
225 578 m 1xde
 259.001 578 l 1
 259.001 486.925 l 1
 261.639 487.041 264.272 487.1 266.9 487.1 c 0xde
 311.9 487.1 359.6 472.7 387.5 458.3 c 1
 389.3 455.6 l 1
 368.6 381.8 l 1
 356.9 380.9 l 1xee
 333.05 421.85 300.65 446.6 266 446.6 c 0
 263.675 446.6 261.34 446.525 259 446.376 c 1
 259 132.836 l 1
 264.587 132.016 270.231 131.6 275.9 131.6 c 0
 314.6 131.6 347 147.8 374.9 188.3 c 1
 378.5 188.3 l 1
 396.5 173.9 l 1
 367.331 113.353 312.119 84.0566 259 83.0283 c 1
 259 -12 l 1
 225 -12 l 1
 225 85.0986 l 1
 128.633 98.4229 64.4004 174.045 64.4004 279.2 c 0
 64.4004 388.709 141.715 463.194 225 482.272 c 1
 225 578 l 1xde
225.001 143.218 m 1
 225 438.907 l 1
 179.917 421.653 140.9 375.292 140.9 299 c 0
 140.9 220.34 177.562 165.786 225.001 143.218 c 1
EndSplineSet
EndChar

StartChar: sterling
Encoding: 163 163 99
Width: 440
GlyphClass: 2
Flags: MW
HStem: -10 52<279.5 325 279.5 325> 46 40<139 144 144 166.5> 282 39<69.5 132 89 132 89 132 208 310> 517 53<292.5 371.5>
VStem: 17 68<12 25> 132 76<266 282 282 282 321 340 340 380>
LayerCount: 2
Fore
SplineSet
208 388 m 2
 208 321 l 1
 326 321 l 2
 331 321 333 319 333 315 c 2
 333 294 l 2
 333 286 320 282 310 282 c 2
 208 282 l 1
 207 169 171 116 139 86 c 1
 144 86 l 2
 252 86 248 42 311 42 c 0
 339 42 384 49 409 83 c 1
 426 73 l 1
 403 24 356 -10 294 -10 c 0
 209 -10 208 46 125 46 c 0
 92 46 85 33 85 23 c 0
 85 1 68 -10 47 -10 c 0
 29 -10 17 1 17 16 c 0
 17 34 39 49 65 63 c 0
 121 104 132 180 132 266 c 2
 132 282 l 1
 72 282 l 2
 67 282 66 283 66 288 c 2
 66 301 l 2
 66 309 72 321 89 321 c 2
 132 321 l 1
 132 340 l 2
 132 420 148 455 196 503 c 0
 246 553 307 570 363 570 c 0
 380 570 396 566 403 562 c 1
 404 559 l 1
 394 542 385 511 379 487 c 1
 369 486 l 1
 359 503 343 517 318 517 c 0
 267 517 208 456 208 388 c 2
EndSplineSet
EndChar

StartChar: currency
Encoding: 164 164 100
Width: 440
GlyphClass: 2
Flags: MW
HStem: 113 42<199 239.5> 421 42<199.5 239.5 199.5 252>
VStem: 42 60<267.5 309.5> 335 61<268 309 268 325.5>
LayerCount: 2
Fore
SplineSet
102 289 m 0
 102 216 148 155 219 155 c 0
 289 155 335 217 335 288 c 0
 335 363 283 421 221 421 c 0
 151 421 102 360 102 289 c 0
219 113 m 0
 179 113 143 125 111 149 c 1
 68 96 l 1
 27 136 l 1
 81 179 l 1
 55 210 42 247 42 288 c 0
 42 331 55 368 81 398 c 1
 29 439 l 1
 66 479 l 1
 112 428 l 1
 145 452 180 463 219 463 c 0
 260 463 296 451 328 426 c 1
 374 481 l 1
 413 440 l 1
 358 396 l 1
 383 366 396 330 396 288 c 0
 396 248 383 212 359 181 c 1
 411 137 l 1
 375 99 l 1
 329 150 l 1
 296 125 260 113 219 113 c 0
EndSplineSet
EndChar

StartChar: yen
Encoding: 165 165 101
Width: 440
GlyphClass: 2
Flags: MW
HStem: -3 21G 127 39<258.216 377.002 258.216 258.216> 229 40<256.488 393.002 264.313 377.002> 555 20G
VStem: 177.606 79.8232
LayerCount: 2
Fore
SplineSet
47 229 m 2
 42 229 42.002 229.998 42.002 234.998 c 2
 42.002 248.998 l 2
 42.002 256.998 47.002 268.998 64.002 268.998 c 2
 164.06 268.998 l 1
 121.454 347.805 35.9502 520.863 4.00195 574.998 c 1
 19.002 571.998 40.002 571.998 55.002 571.998 c 0
 70.002 571.998 90.002 571.998 105.002 574.998 c 1
 142.974 476.661 175.258 398.231 230.466 301.867 c 1
 281.021 381.833 312.7 469.7 356.001 575 c 1
 366.001 572 381.001 572 393.001 572 c 0
 404.001 572 419.001 572 430.001 575 c 1
 344.77 425.845 299.877 337.627 264.313 269 c 1
 393.002 269 l 2
 397.002 269 400.002 267 400.002 263 c 2
 400.002 242 l 2
 400.002 233 387.002 229 377.002 229 c 2
 256.488 229 l 1
 256.726 208.844 257.044 187.444 257.432 166 c 1
 393.002 166 l 2
 397.002 166 400.002 164 400.002 160 c 2
 400.002 140 l 2
 400.002 131 387.002 127 377.002 127 c 2
 258.216 127 l 1
 259.448 71.666 261.113 21.0752 263.001 -2.99902 c 1
 249.001 0.000976562 230.001 0.000976562 217.001 0.000976562 c 0
 204.001 0.000976562 186.001 0.000976562 172.001 -2.99902 c 1
 174.881 25.3213 176.379 74.1475 177.157 127.001 c 1
 47.001 127.001 l 2
 42.001 127.001 42.001 128.001 42.001 133.001 c 2
 42.001 146.001 l 2
 42.001 154.001 47.001 166.001 64.001 166.001 c 2
 177.607 166.001 l 1
 177.793 187.339 177.891 208.681 177.942 229 c 1
 47 229 l 2
EndSplineSet
Substitution2: "'pnum' Proportionalziffern lookup 15 subtable" Yen.fitted
EndChar

StartChar: brokenbar
Encoding: 166 166 102
Width: 205
GlyphClass: 2
Flags: MW
VStem: 81 48<-201 161 -201 161 312 674>
LayerCount: 2
Fore
SplineSet
129 674 m 1
 129 312 l 1
 81 312 l 1
 81 674 l 1
 129 674 l 1
129 161 m 1
 129 -201 l 1
 81 -201 l 1
 81 161 l 1
 129 161 l 1
EndSplineSet
EndChar

StartChar: section
Encoding: 167 167 103
Width: 483
GlyphClass: 2
Flags: MW
HStem: -172 40 618 40
VStem: 50 57<258.001 297.284> 81 69<512.501 549.001> 333 69<-62.999 -26.499> 376 57
LayerCount: 2
Fore
SplineSet
147.515 387.012 m 1xe4
 127.369 367.195 107 335.69 107 305.001 c 0
 107 211.001 217.166 165.322 293 126.001 c 0
 309.22 117.591 323.314 108.539 335.484 98.9902 c 1
 355.63 118.807 375.999 150.312 375.999 181.001 c 0
 375.999 275.001 265.833 320.68 189.999 360.001 c 0
 173.779 368.411 159.685 377.463 147.515 387.012 c 1xe4
125.104 407.336 m 1
 93.2812 440.949 81 478.914 81 516.001 c 0
 81 582.001 144 658.001 244 658.001 c 0
 313 658.001 356 618.001 383 595.001 c 1
 386 590.001 l 1
 369 517.001 l 1
 355 515.001 l 1
 326 565.001 290 618.001 235 618.001 c 0
 188 618.001 150 584.001 150 536.001 c 0
 150 489.001 179 458.001 230 437.001 c 0
 310.876 403.699 433 342.001 433 219.001 c 0xd4
 433 158.436 399.482 109.699 357.896 78.666 c 1
 389.719 45.0527 402 7.08789 402 -29.999 c 0
 402 -95.999 339 -171.999 239 -171.999 c 0
 170 -171.999 127 -131.999 100 -108.999 c 1
 97 -103.999 l 1
 114 -30.999 l 1
 128 -28.999 l 1
 157 -78.999 193 -131.999 248 -131.999 c 0
 295 -131.999 333 -97.999 333 -49.999 c 0xc8
 333 -2.99902 304 28.001 253 49.001 c 0
 172.124 82.3027 50 144.001 50 267.001 c 0
 50 327.566 83.5176 376.303 125.104 407.336 c 1
EndSplineSet
EndChar

StartChar: dieresis
Encoding: 168 168 104
Width: 375
GlyphClass: 2
Flags: MW
HStem: 529 92<87.5 112.5 247.5 272.5>
VStem: 54 92<562.5 587.5> 214 92<562.5 587.5>
LayerCount: 2
Fore
SplineSet
54 575 m 0
 54 600 75 621 100 621 c 0
 125 621 146 600 146 575 c 0
 146 550 125 529 100 529 c 0
 75 529 54 550 54 575 c 0
214 575 m 0
 214 600 235 621 260 621 c 0
 285 621 306 600 306 575 c 0
 306 550 285 529 260 529 c 0
 235 529 214 550 214 575 c 0
EndSplineSet
EndChar

StartChar: copyright
Encoding: 169 169 105
Width: 633
GlyphClass: 2
Flags: MW
HStem: 23 32<247 386 247 395> 152 29<296 348.5> 434 23<299 347.5> 557 31<247 386.5>
VStem: 34 31<237 375.5 237 384> 165 62<274.5 343> 416 20<360 364> 568 31<236.5 375.5>
LayerCount: 2
Fore
SplineSet
439 216 m 1
 419 185 376 152 321 152 c 0
 232 152 165 222 165 301 c 0
 165 385 235 457 323 457 c 0
 393 457 393 442 422 442 c 1
 436 364 l 1
 416 360 l 1
 399 406 376 434 319 434 c 0
 279 434 227 409 227 311 c 0
 227 238 262 181 330 181 c 0
 381 181 409 215 420 231 c 1
 439 216 l 1
317 23 m 0
 160 23 34 151 34 306 c 0
 34 462 161 588 317 588 c 0
 473 588 599 462 599 306 c 0
 599 150 473 23 317 23 c 0
317 557 m 0
 177 557 65 445 65 306 c 0
 65 168 177 55 317 55 c 0
 455 55 568 167 568 306 c 0
 568 445 456 557 317 557 c 0
EndSplineSet
EndChar

StartChar: ordfeminine
Encoding: 170 170 106
Width: 297
GlyphClass: 2
Flags: MW
HStem: 358 31 612 24
VStem: 32 53 188 54<427.5 448 448 502 502 502>
LayerCount: 2
Fore
SplineSet
188 502 m 1
 103 480 79 462 79 431 c 0
 79 410 90 390 124 390 c 0
 145 390 162 400 188 423 c 1
 188 502 l 1
231 358 m 0
 206 358 192 379 189 397 c 1
 155 367 137 358 104 358 c 0
 62 358 27 385 27 428 c 0
 27 470 67.0703 497.726 130 514 c 2
 188 529 l 1
 188 604 157 612 134 612 c 0
 101 612 80 601 80 585 c 0
 80 578 81 574 82 572 c 0
 83 570 84 565 84 560 c 0
 84 552 77 539 58 539 c 0
 43 539 32 549 32 564 c 0
 32 604 94 637 136 637 c 0
 185 637 242 617 242 523 c 2
 242 448 l 2
 242 407 247 391 256 391 c 0
 260 391 265 393 268 396 c 1
 278 380 l 1
 269 370 250 358 231 358 c 0
EndSplineSet
EndChar

StartChar: guillemotleft
Encoding: 171 171 107
Width: 536
GlyphClass: 2
Flags: W
LayerCount: 2
Fore
SplineSet
468 429 m 1
 468 378 l 1
 424 312 376 257 325 215 c 1
 374 178 421 124 468 52 c 1
 468 1 l 1
 388 94 315 159 250 196 c 1
 250 234 l 1
 320 284 393 349 468 429 c 1
288 429 m 1
 288 378 l 1
 243 312 195 257 144 215 c 1
 192 178 240 124 288 52 c 1
 288 1 l 1
 207 94 134 159 68 196 c 1
 68 234 l 1
 139 284 212 349 288 429 c 1
EndSplineSet
Substitution2: "'case' Case-Sensitive Forms lookup 23 subtable" guillemotleft.sc
Substitution2: "'c2sc' Capitals to Small Capitals lookup 9 subtable" guillemotleft.sc
AlternateSubs2: "'aalt' Access All Alternates lookup 0 subtable" guillemotleft.sc
EndChar

StartChar: logicalnot
Encoding: 172 172 108
Width: 560
GlyphClass: 2
Flags: MW
HStem: 357 44<24 483 24 537>
VStem: 483 54<133 357 357 357>
LayerCount: 2
Fore
SplineSet
483 133 m 1
 483 357 l 1
 24 357 l 1
 24 401 l 1
 537 401 l 1
 537 133 l 1
 483 133 l 1
EndSplineSet
EndChar

StartChar: uni00AD
Encoding: 173 173 109
Width: 333
GlyphClass: 2
Flags: MW
HStem: 236 54<43.5 287 58 274>
VStem: 33 268<248.5 276.5>
LayerCount: 2
Fore
SplineSet
274 236 m 2
 48 236 l 2
 39 236 33 244 33 253 c 0
 33 269 46 290 58 290 c 2
 287 290 l 2
 297 290 301 281 301 272 c 0
 301 261 287 236 274 236 c 2
EndSplineSet
EndChar

StartChar: registered
Encoding: 174 174 110
Width: 633
GlyphClass: 2
Flags: MW
HStem: 23 32<247 386 247 395> 169 24<201 209> 288 24<286 288.5> 421 24<201.5 205 205 216 313.5 335 335 343> 556 32
VStem: 34 40 239 47<216 288 312 396> 376 55<350.5 385 350.5 387> 568 40
LayerCount: 2
Fore
SplineSet
431 370 m 0
 431 331 404 306 373 296 c 1
 421 214 l 2
 432.017 195.181 448 190 464 193 c 1
 468 176 l 1
 456 171 444 169 432 169 c 0
 412 169 388 175 371 204 c 2
 323 284 l 1
 319 287 291 288 286 288 c 1
 286 216 l 2
 286 203 290.02 196.14 298 195 c 2
 312 193 l 2
 320 192 323 192 323 187 c 2
 323 171 l 1
 321 169 l 1
 321 169 280 171 262 171 c 0
 242 171 201 169 201 169 c 1
 199 171 l 1
 199 188 l 2
 199 192 202 192 209 193 c 2
 226 195 l 2
 234 196 239 203 239 216 c 2
 239 396 l 2
 239 413 228 421 216 421 c 2
 205 421 l 2
 198 421 197 423 197 426 c 2
 197 443 l 1
 199 445 l 1
 335 445 l 2
 410 445 431 400 431 370 c 0
376 370 m 0
 376 404 360 421 326 421 c 0
 301 421 286 414 286 396 c 2
 286 312 l 1
 318 312 l 2
 348 312 376 319 376 370 c 0
317 23 m 0
 160 23 34 151 34 306 c 0
 34 462 161 588 317 588 c 0
 473 588 599 462 599 306 c 0
 599 150 473 23 317 23 c 0
317 557 m 0
 177 557 65 445 65 306 c 0
 65 168 177 55 317 55 c 0
 455 55 568 167 568 306 c 0
 568 445 456 557 317 557 c 0
EndSplineSet
EndChar

StartChar: macron
Encoding: 175 175 111
Width: 397
GlyphClass: 2
Flags: MW
HStem: 529 44<66.5 325 81 315>
VStem: 59 280<540.5 562>
LayerCount: 2
Fore
SplineSet
315 529 m 2
 71 529 l 2
 62 529 59 537 59 544 c 0
 59 556 69 573 81 573 c 2
 325 573 l 2
 335 573 339 565 339 559 c 0
 339 547 328 529 315 529 c 2
EndSplineSet
EndChar

StartChar: degree
Encoding: 176 176 112
Width: 267
GlyphClass: 2
Flags: MW
HStem: 426 28<113 154.5 113 161.5> 597 28<112.5 156.5>
VStem: 34 33<506.5 542 506.5 553> 200 33<507 540.5>
LayerCount: 2
Fore
SplineSet
200 524 m 0
 200 557 179 597 134 597 c 0
 91 597 67 560 67 524 c 0
 67 489 92 454 134 454 c 0
 175 454 200 490 200 524 c 0
34 525 m 0
 34 581 79 625 134 625 c 0
 189 625 233 581 233 525 c 0
 233 470 189 426 134 426 c 0
 79 426 34 470 34 525 c 0
EndSplineSet
EndChar

StartChar: plusminus
Encoding: 177 177 113
Width: 527
GlyphClass: 2
Flags: MW
HStem: 19 49<66 461 66 461> 293 49<66 238 66 238 289 461>
VStem: 238 51<119 293 119 293 342 516>
LayerCount: 2
Fore
SplineSet
289 342 m 1
 461 342 l 1
 461 293 l 1
 289 293 l 1
 289 119 l 1
 238 119 l 1
 238 293 l 1
 66 293 l 1
 66 342 l 1
 238 342 l 1
 238 516 l 1
 289 516 l 1
 289 342 l 1
461 68 m 1
 461 19 l 1
 66 19 l 1
 66 68 l 1
 461 68 l 1
EndSplineSet
EndChar

StartChar: two.superior
Encoding: 178 178 114
Width: 307
GlyphClass: 2
Flags: MW
HStem: 364 34<107 178 178 184> 664 24<128.5 159>
VStem: 45 62<364 413.5> 47 49<604.5 641.5> 203 59<582 627.5>
LayerCount: 2
Fore
SplineSet
178 398 m 2xe8
 225 398 238 400 265 402 c 1
 264 396 263 388 263 382 c 0
 263 376 264 368 265 362 c 1
 230 364 219 364 184 364 c 2
 45 364 l 1xe8
 45 412 88 454 136 491 c 0
 181 527 203 550 203 604 c 0
 203 651 168 664 150 664 c 0
 107 664 96 648 96 635 c 0
 96 626 101 619 101 611 c 0
 101 595 83 587 73 587 c 0
 61 587 47 598 47 611 c 0xd8
 47 637 75 688 154 688 c 0
 204 688 262 669 262 605 c 0
 262 559 229 526 173 486 c 0
 131 456 107 429 107 398 c 1
 178 398 l 2xe8
EndSplineSet
EndChar

StartChar: three.superior
Encoding: 179 179 115
Width: 307
GlyphClass: 2
Flags: MW
HStem: 358 24 527 24<115 117> 664 24<138 157.5>
VStem: 188 56 215 59<438.5 493.5>
LayerCount: 2
Fore
SplineSet
188 624 m 0xf0
 188 655 167 664 148 664 c 0
 128 664 94 654 93 629 c 0
 92 617 90 600 67 600 c 0
 48 600 44 615 44 618 c 0
 44 635 73 688 160 688 c 0
 212 688 245 666 245 629 c 0
 245 600 223 577 194 561 c 1
 227 558 274 531 274 473 c 0
 274 404 208 358 128 358 c 0
 91 358 39 374 39 395 c 0
 39 405 52 415 63 415 c 0
 77 415 83 408 89 401 c 0
 97 391 107 383 139 383 c 0
 158 383 215 396 215 465 c 0xe8
 215 522 161 529 137 529 c 0
 130 529 125 528 117 527 c 1
 115 551 l 1
 159 557 188 583 188 624 c 0xf0
EndSplineSet
EndChar

StartChar: acute
Encoding: 180 180 116
Width: 341
GlyphClass: 2
Flags: MW
HStem: 542 160
LayerCount: 2
Fore
SplineSet
175 703 m 1
 178 704 184 705 189 705 c 0
 195.389 705 221 704 244 682 c 1
 247 671 l 1
 132 562 l 2
 117 547 109 543 102 543 c 0
 95 543 88 549 88 556 c 0
 88 567.2 91.3008 571.174 99.4443 584 c 2
 175 703 l 1
EndSplineSet
Substitution2: "'case' Case-Sensitive Forms lookup 23 subtable" acute.cap
EndChar

StartChar: uni00B5
Encoding: 181 181 117
Width: 486
GlyphClass: 2
Flags: MW
HStem: -234 21G<93 112.5> -10 45<171.5 209.5> 419 20G<126 126 399 399>
VStem: 47 95<-189.5 -152.5 -194.5 -143.5> 54 75<134 147 147 322 322 336> 63 47<-28.5 6.5 -28.5 8.5> 324 75<40.5 124 99 124 124 429 429 429>
LayerCount: 2
Fore
SplineSet
101 -234 m 0xf2
 85 -234 47 -210 47 -169 c 0xf2
 47 -118 63 -71 63 -8 c 0xe6
 63 25 54 76 54 134 c 2
 54 322 l 2
 54 350 44 429 44 429 c 1
 67 429 98 436 126 439 c 1
 126 439 129 375 129 343 c 2
 129 147 l 2xea
 129 82 145 35 198 35 c 0
 252 35 302 66 324 99 c 1
 324 429 l 1
 348 429 374 436 399 439 c 1
 399 124 l 2
 399 61 399 37 425 37 c 0
 438 37 448 52 459 79 c 1
 483 68 l 1
 464 18 444 -10 392 -10 c 0
 354 -10 324 21 324 60 c 1
 284 16 240 -10 179 -10 c 0
 157 -10 133 0 122 13 c 1
 116 13 110 9 110 4 c 0xe6
 110 -61 142 -131 142 -174 c 0
 142 -215 124 -234 101 -234 c 0xf2
EndSplineSet
EndChar

StartChar: paragraph
Encoding: 182 182 118
Width: 602
GlyphClass: 2
Flags: MW
HStem: -232 33<395.5 418.5 395.5 424> 612 33<395.5 418.5>
VStem: 317 50<-32 285 285 285> 448 50<-69.5 -32 -32 445>
LayerCount: 2
Fore
SplineSet
367 574 m 2
 367 -161 l 2
 367 -188 384 -199 407 -199 c 0
 430 -199 448 -192 448 -161 c 2
 448 574 l 2
 448 605 430 612 407 612 c 0
 384 612 367 601 367 574 c 2
408 645 m 0
 443 645 507 648 507 648 c 1
 508 645 l 1
 500 592 498 520 498 445 c 2
 498 -32 l 2
 498 -107 500 -175 508 -232 c 1
 506 -235 l 1
 506 -235 441 -232 407 -232 c 0
 373 -232 309 -235 309 -235 c 1
 307 -232 l 1
 315 -175 317 -107 317 -32 c 2
 317 285 l 1
 308 283 300 282 285 282 c 0
 139 282 57 347 57 481 c 0
 57 560 115 647 247 647 c 0
 322 647 381 645 408 645 c 0
EndSplineSet
EndChar

StartChar: periodcentered
Encoding: 183 183 119
Width: 250
GlyphClass: 2
Flags: MW
HStem: 204 108<110.5 138.5 110.5 140.5>
VStem: 71 108<244 272>
LayerCount: 2
Fore
SplineSet
125 204 m 0
 92 204 71 230 71 258 c 0
 71 286 96 312 125 312 c 0
 152 312 179 288 179 258 c 0
 179 229 156 204 125 204 c 0
EndSplineSet
EndChar

StartChar: cedilla
Encoding: 184 184 120
Width: 541
GlyphClass: 4
Flags: MW
HStem: -200 29<274 299 274 320.5> -96 32<292.5 346> -20 20G<291 325 325 325>
VStem: 335 62<-144 -120.5>
AnchorPoint: "Anker-2" 297 7 mark 0
LayerCount: 2
Fore
SplineSet
302 -96 m 0
 283 -96 273 -97 257 -102 c 1
 251 -96 l 1
 291 0 l 1
 325 0 l 1
 300 -67 l 1
 308 -65 317 -64 326 -64 c 0
 366 -64 397 -88 397 -126 c 0
 397 -169 351 -200 290 -200 c 0
 258 -200 241 -194 216 -183 c 1
 216 -171 219 -164 226 -157 c 1
 253 -167 264 -171 284 -171 c 0
 314 -171 335 -157 335 -131 c 0
 335 -110 325 -96 302 -96 c 0
EndSplineSet
EndChar

StartChar: one.superior
Encoding: 185 185 121
Width: 307
GlyphClass: 2
Flags: MW
HStem: 364 324<138 201 160.5 201 195 208>
VStem: 147 54<492 577 577 593>
LayerCount: 2
Fore
SplineSet
147 492 m 2
 147 577 l 2
 147 609 147 619 135 619 c 0
 122 619 80 606 66 599 c 1
 56 628 l 1
 103 645 151 661 195 688 c 1
 201 688 l 2
 204 688 204 685 204 682 c 2
 204 682 201 648 201 618 c 2
 201 492 l 2
 201 438 202 405 208 364 c 1
 207 362 l 1
 207 362 198 364 173 364 c 0
 148 364 139 362 139 362 c 1
 138 364 l 1
 145 402 147 439 147 492 c 2
EndSplineSet
EndChar

StartChar: ordmasculine
Encoding: 186 186 122
Width: 349
GlyphClass: 2
Flags: MW
HStem: 303 28<153 196.5 153 219> 541 25<146 196>
VStem: 39 58<414.5 466 414.5 471.5> 254 57<401 459>
LayerCount: 2
Fore
SplineSet
39 429 m 0
 39 514 91 566 177 566 c 0
 275 566 311 502 311 435 c 0
 311 367 266 303 172 303 c 0
 98 303 39 357 39 429 c 0
171 541 m 0
 121 541 97 493 97 439 c 0
 97 390 123 331 183 331 c 0
 210 331 254 347 254 419 c 0
 254 499 221 541 171 541 c 0
EndSplineSet
EndChar

StartChar: guillemotright
Encoding: 187 187 123
Width: 536
GlyphClass: 2
Flags: MW
HStem: 1 21G<48 48 228 228> 409 20G<48 48 228 228>
LayerCount: 2
Fore
SplineSet
48 1 m 1
 48 52 l 1
 92 118 140 173 191 215 c 1
 142 252 95 306 48 378 c 1
 48 429 l 1
 128 336 201 271 266 234 c 1
 266 196 l 1
 196 146 123 81 48 1 c 1
228 1 m 1
 228 52 l 1
 273 118 321 173 372 215 c 1
 324 252 276 306 228 378 c 1
 228 429 l 1
 309 336 382 271 448 234 c 1
 448 196 l 1
 377 146 304 81 228 1 c 1
EndSplineSet
Substitution2: "'case' Case-Sensitive Forms lookup 23 subtable" guillemotright.sc
Substitution2: "'c2sc' Capitals to Small Capitals lookup 9 subtable" guillemotright.sc
AlternateSubs2: "'aalt' Access All Alternates lookup 0 subtable" guillemotright.sc
EndChar

StartChar: onequarter
Encoding: 188 188 124
Width: 660
GlyphClass: 3
Flags: MW
HStem: 18 34<436 529 436 529 583.515 583.515 583.515 626>
VStem: 144 54<443 528 528 544> 529 54<18 157 52 129 129 132>
LayerCount: 2
Fore
SplineSet
557 601 m 1
 598 593 l 1
 140 -62 l 1
 98 -54 l 1
 557 601 l 1
520 -81 m 1
 525.65 -50.3281 528.287 -20.3076 529 18 c 1
 385 18 l 1
 381 30 l 1
 535 248 l 1
 566 238 l 1
 521 169 458 86 436 52 c 1
 529 52 l 1
 529 129 l 2
 529 135 534 143 536 146 c 0
 543 155 555 167 562 167 c 0
 568 167 583 166 583 157 c 2
 583 52 l 1
 632 52 l 1
 626 18 l 1
 583.515 18 l 1
 584.221 -19.9736 585.153 -47.876 590 -81 c 1
 589 -83 l 1
 589 -83 580 -81 555 -81 c 0
 530 -81 521 -83 521 -83 c 1
 520 -81 l 1
144 443 m 2
 144 528 l 2
 144 560 144 570 132 570 c 0
 119 570 77 557 63 550 c 1
 53 579 l 1
 100 596 148 612 192 639 c 1
 198 639 l 2
 201 639 201 636 201 633 c 2
 201 633 198 599 198 569 c 2
 198 443 l 2
 198 389 199 356 205 315 c 1
 204 313 l 1
 204 313 195 315 170 315 c 0
 145 315 136 313 136 313 c 1
 135 315 l 1
 142 353 144 390 144 443 c 2
EndSplineSet
Ligature2: "'frac' Diagonal Fractions lookup 6 subtable" one slash four
LCarets2: 2 215 424 
EndChar

StartChar: onehalf
Encoding: 189 189 125
Width: 660
GlyphClass: 3
Flags: MW
HStem: -79 34<465 536 536 542> 221 24<486.5 517>
VStem: 146 54<443 528 528 544> 403 62<-79 -29.5> 405 49<161.5 198.5> 561 59<139 184.5>
LayerCount: 2
Fore
SplineSet
532 601 m 1xe4
 574 593 l 1
 115 -62 l 1
 74 -54 l 1
 532 601 l 1xe4
536 -45 m 2
 583 -45 596 -43 623 -41 c 1
 622 -47 621 -55 621 -61 c 0
 621 -67 622 -75 623 -81 c 1
 588 -79 577 -79 542 -79 c 2
 403 -79 l 1xf4
 403 -31 446 11 494 48 c 0
 539 84 561 107 561 161 c 0
 561 208 526 221 508 221 c 0
 465 221 454 205 454 192 c 0
 454 183 459 176 459 168 c 0
 459 152 441 144 431 144 c 0
 419 144 405 155 405 168 c 0xec
 405 194 433 245 512 245 c 0
 562 245 620 226 620 162 c 0
 620 116 587 83 531 43 c 0
 489 13 465 -14 465 -45 c 1xf4
 536 -45 l 2
146 443 m 2
 146 528 l 2
 146 560 146 570 134 570 c 0
 121 570 79 557 65 550 c 1
 55 579 l 1
 102 596 150 612 194 639 c 1
 200 639 l 2
 203 639 203 636 203 633 c 2
 203 633 200 599 200 569 c 2
 200 443 l 2
 200 389 201 356 207 315 c 1
 206 313 l 1
 206 313 197 315 172 315 c 0
 147 315 138 313 138 313 c 1
 137 315 l 1
 144 353 146 390 146 443 c 2
EndSplineSet
Ligature2: "'frac' Diagonal Fractions lookup 6 subtable" one slash two
LCarets2: 2 208 414 
EndChar

StartChar: threequarters
Encoding: 190 190 126
Width: 660
GlyphClass: 3
Flags: MW
HStem: 20 34<440 533 440 533 587.515 587.515 587.515 630> 307 25<121 146.5 121 166> 476 24<113 115> 613 24<136 155.5>
VStem: 42 49 186 57<563.5 588.5> 213 59<387.5 442.5> 533 54<20 159 54 131 131 134>
LayerCount: 2
Fore
SplineSet
562 601 m 1xf9
 603 593 l 1
 145 -62 l 1
 103 -54 l 1
 562 601 l 1xf9
186 573 m 0xfd
 186 604 165 613 146 613 c 0
 126 613 92 603 91 578 c 0
 90 566 88 549 65 549 c 0
 46 549 42 564 42 567 c 0
 42 584 71 637 158 637 c 0
 210 637 243 615 243 578 c 0xfd
 243 549 221 526 192 510 c 1
 225 507 272 480 272 422 c 0
 272 353 206 307 126 307 c 0
 89 307 37 323 37 344 c 0
 37 354 50 364 61 364 c 0
 75 364 81 357 87 350 c 0
 95 340 105 332 137 332 c 0
 156 332 213 345 213 414 c 0xfb
 213 471 159 478 135 478 c 0
 128 478 123 477 115 476 c 1
 113 500 l 1
 157 506 186 532 186 573 c 0xfd
524 -79 m 1
 529.65 -48.3281 532.287 -18.3076 533 20 c 1
 389 20 l 1
 385 32 l 1
 539 250 l 1
 570 240 l 1
 525 171 462 88 440 54 c 1
 533 54 l 1
 533 131 l 2
 533 137 538 145 540 148 c 0
 547 157 559 169 566 169 c 0
 572 169 587 168 587 159 c 2
 587 54 l 1
 636 54 l 1
 630 20 l 1
 587.515 20 l 1
 588.221 -17.9736 589.153 -45.876 594 -79 c 1
 593 -81 l 1
 593 -81 584 -79 559 -79 c 0
 534 -79 525 -81 525 -81 c 1
 524 -79 l 1
EndSplineSet
Ligature2: "'frac' Diagonal Fractions lookup 6 subtable" three slash four
LCarets2: 2 260 447 
EndChar

StartChar: questiondown
Encoding: 191 191 127
Width: 405
GlyphClass: 2
Flags: MW
HStem: -230 40<182.5 238.25> 327 112<224 228 224 228>
VStem: 37 75<-107.5 -51.5 -107.5 -39.5> 170 112<381 385 381 385> 213 26<201 245>
LayerCount: 2
Fore
SplineSet
211 -190 m 0xe8
 267 -190 308 -141 334 -96 c 1
 347 -97 l 1
 363 -164 l 1
 360 -168 l 1
 335.5 -188.5 274.5 -230 202 -230 c 0
 100 -230 37 -170 37 -79 c 0
 37 0 96 44 143 78 c 0
 166 95 186 111 195 128 c 0
 208 153 213 177 213 201 c 2
 213 245 l 2
 213 252 218 255 226 255 c 0
 234 255 239 252 239 245 c 2
 239 199 l 2
 239 156 236.442 97.6094 172 38 c 0
 132 1 112 -28 112 -75 c 0
 112 -140 154 -190 211 -190 c 0xe8
282 385 m 1xf0
 282 381 l 1
 272.75 354.5 258.25 339.25 228 327 c 1
 224 327 l 1
 195 337.5 179.25 352.75 170 381 c 1
 170 385 l 1
 180.25 417.25 195.75 432 224 439 c 1
 228 439 l 1
 259.25 432 273.25 418.5 282 385 c 1xf0
EndSplineSet
Substitution2: "'case' Case-Sensitive Forms lookup 23 subtable" questiondown.sc
Substitution2: "'c2sc' Capitals to Small Capitals lookup 9 subtable" questiondown.sc
AlternateSubs2: "'aalt' Access All Alternates lookup 0 subtable" questiondown.sc
EndChar

StartChar: Agrave
Encoding: 192 192 128
Width: 633
GlyphClass: 2
Flags: MW
HStem: -3 21G 230 44 638 20G 698 21G<373 381>
LayerCount: 2
Fore
SplineSet
256 818 m 1
 377 734 l 2
 388 726 392 720 392 713 c 0
 392 705 385 698 377 698 c 0
 369 698 355 701 334 710 c 2
 180 773 l 1
 198.265 790.714 221.786 806.409 256 818 c 1
180.974 228.262 m 1
 145.305 140.771 114.353 58.3291 97.998 -2.99902 c 1
 85.998 0.000976562 63.998 0.000976562 52.998 0.000976562 c 0
 41.998 0.000976562 29.998 0.000976562 17.998 -2.99902 c 1
 312.998 658.001 l 1
 340.998 658.001 l 1
 432.998 439.001 564.998 98.001 614.998 -2.99902 c 1
 597.998 0.000976562 571.998 0.000976562 554.998 0.000976562 c 0
 537.998 0.000976562 521.998 0.000976562 504.998 -2.99902 c 1
 498.86 19.166 476.296 97.1348 427.268 228.284 c 1
 389.544 229.182 348.017 230.001 309.999 230.001 c 0
 275.48 230.001 218.977 229.164 180.974 228.262 c 1
409.321 275.549 m 1
 382.469 345.224 349.089 427.395 308.03 521.763 c 1
 306.03 521.763 l 1
 200.64 275.916 l 1
 232.372 275.538 276.058 274 304.999 274 c 0
 334.69 274 376.467 274.72 409.321 275.549 c 1
EndSplineSet
Substitution2: "'c2sc' Capitals to Small Capitals lookup 9 subtable" agrave.sc
AlternateSubs2: "'aalt' Access All Alternates lookup 0 subtable" agrave.sc
Position2: "'cpsp' Capital Spacing lookup 0 subtable" dx=2 dy=0 dh=5 dv=0
EndChar

StartChar: Aacute
Encoding: 193 193 129
Width: 633
GlyphClass: 2
Flags: MW
HStem: -3 21G 230 44 638 20G 698 21G<260.5 269.5>
LayerCount: 2
Fore
SplineSet
389 820 m 1
 417.648 806.667 438.315 789.333 451 768 c 1
 307 710 l 2
 286 701 274 698 265 698 c 0
 256 698 250 705 250 713 c 0
 250 720 252.008 724.989 265 734 c 2
 389 820 l 1
180.974 228.262 m 1
 145.305 140.771 114.353 58.3291 97.998 -2.99902 c 1
 85.998 0.000976562 63.998 0.000976562 52.998 0.000976562 c 0
 41.998 0.000976562 29.998 0.000976562 17.998 -2.99902 c 1
 312.998 658.001 l 1
 340.998 658.001 l 1
 432.998 439.001 564.998 98.001 614.998 -2.99902 c 1
 597.998 0.000976562 571.998 0.000976562 554.998 0.000976562 c 0
 537.998 0.000976562 521.998 0.000976562 504.998 -2.99902 c 1
 498.86 19.166 476.296 97.1348 427.268 228.284 c 1
 389.544 229.182 348.017 230.001 309.999 230.001 c 0
 275.48 230.001 218.977 229.164 180.974 228.262 c 1
409.321 275.549 m 1
 382.469 345.224 349.089 427.395 308.03 521.763 c 1
 306.03 521.763 l 1
 200.64 275.916 l 1
 232.372 275.538 276.058 274 304.999 274 c 0
 334.69 274 376.467 274.72 409.321 275.549 c 1
EndSplineSet
Substitution2: "'c2sc' Capitals to Small Capitals lookup 9 subtable" aacute.sc
AlternateSubs2: "'aalt' Access All Alternates lookup 0 subtable" aacute.sc
Position2: "'cpsp' Capital Spacing lookup 0 subtable" dx=2 dy=0 dh=5 dv=0
EndChar

StartChar: Acircumflex
Encoding: 194 194 130
Width: 633
GlyphClass: 2
Flags: MW
HStem: -3 21G 230 44 638 20G 690 21G<209 223>
LayerCount: 2
Fore
SplineSet
351 805 m 1
 381 769 416 738 452 711 c 1
 436 690 l 1
 397 708 363 727 330 752 c 1
 293 725 261 707 223 690 c 1
 209 711 l 1
 246 739 277 771 308 805 c 1
 351 805 l 1
180.974 228.262 m 1
 145.305 140.771 114.353 58.3291 97.998 -2.99902 c 1
 85.998 0.000976562 63.998 0.000976562 52.998 0.000976562 c 0
 41.998 0.000976562 29.998 0.000976562 17.998 -2.99902 c 1
 312.998 658.001 l 1
 340.998 658.001 l 1
 432.998 439.001 564.998 98.001 614.998 -2.99902 c 1
 597.998 0.000976562 571.998 0.000976562 554.998 0.000976562 c 0
 537.998 0.000976562 521.998 0.000976562 504.998 -2.99902 c 1
 498.86 19.166 476.296 97.1348 427.268 228.284 c 1
 389.544 229.182 348.017 230.001 309.999 230.001 c 0
 275.48 230.001 218.977 229.164 180.974 228.262 c 1
409.321 275.549 m 1
 382.469 345.224 349.089 427.395 308.03 521.763 c 1
 306.03 521.763 l 1
 200.64 275.916 l 1
 232.372 275.538 276.058 274 304.999 274 c 0
 334.69 274 376.467 274.72 409.321 275.549 c 1
EndSplineSet
Substitution2: "'c2sc' Capitals to Small Capitals lookup 9 subtable" acircumflex.sc
AlternateSubs2: "'aalt' Access All Alternates lookup 0 subtable" acircumflex.sc
Position2: "'cpsp' Capital Spacing lookup 0 subtable" dx=2 dy=0 dh=5 dv=0
EndChar

StartChar: Atilde
Encoding: 195 195 131
Width: 633
GlyphClass: 2
Flags: MW
HStem: -3 21G 230 44 638 20G 700 44<384.5 404> 748 46<250 271.5>
VStem: 190 24<700 705> 444 24<790 796>
LayerCount: 2
Fore
SplineSet
394 744 m 0
 416 744 430 754 444 796 c 1
 468 790 l 1
 456 730 427 700 381 700 c 0
 359 700 338 712 317 726 c 0
 299 737 280 748 263 748 c 0
 237 748 224 733 214 700 c 1
 190 705 l 1
 204 764 227 794 270 794 c 0
 300 794 322 780 342 766 c 0
 358 754 375 744 394 744 c 0
180.974 228.262 m 1
 145.305 140.771 114.353 58.3291 97.998 -2.99902 c 1
 85.998 0.000976562 63.998 0.000976562 52.998 0.000976562 c 0
 41.998 0.000976562 29.998 0.000976562 17.998 -2.99902 c 1
 312.998 658.001 l 1
 340.998 658.001 l 1
 432.998 439.001 564.998 98.001 614.998 -2.99902 c 1
 597.998 0.000976562 571.998 0.000976562 554.998 0.000976562 c 0
 537.998 0.000976562 521.998 0.000976562 504.998 -2.99902 c 1
 498.86 19.166 476.296 97.1348 427.268 228.284 c 1
 389.544 229.182 348.017 230.001 309.999 230.001 c 0
 275.48 230.001 218.977 229.164 180.974 228.262 c 1
409.321 275.549 m 1
 382.469 345.224 349.089 427.395 308.03 521.763 c 1
 306.03 521.763 l 1
 200.64 275.916 l 1
 232.372 275.538 276.058 274 304.999 274 c 0
 334.69 274 376.467 274.72 409.321 275.549 c 1
EndSplineSet
Substitution2: "'c2sc' Capitals to Small Capitals lookup 9 subtable" atilde.sc
AlternateSubs2: "'aalt' Access All Alternates lookup 0 subtable" atilde.sc
Position2: "'cpsp' Capital Spacing lookup 0 subtable" dx=2 dy=0 dh=5 dv=0
EndChar

StartChar: Adieresis
Encoding: 196 196 132
Width: 633
GlyphClass: 2
Flags: MW
HStem: -3 21G 230 44 638 20G 664 90<193.5 218.5 433.5 458.5>
VStem: 160 91<696.5 721.5> 400 91<696.5 721.5>
LayerCount: 2
Fore
SplineSet
160 709 m 0
 160 734 181 754 206 754 c 0
 231 754 251 734 251 709 c 0
 251 684 231 664 206 664 c 0
 181 664 160 684 160 709 c 0
400 709 m 0
 400 734 421 754 446 754 c 0
 471 754 491 734 491 709 c 0
 491 684 471 664 446 664 c 0
 421 664 400 684 400 709 c 0
180.974 228.262 m 1
 145.305 140.771 114.353 58.3291 97.998 -2.99902 c 1
 85.998 0.000976562 63.998 0.000976562 52.998 0.000976562 c 0
 41.998 0.000976562 29.998 0.000976562 17.998 -2.99902 c 1
 312.998 658.001 l 1
 340.998 658.001 l 1
 432.998 439.001 564.998 98.001 614.998 -2.99902 c 1
 597.998 0.000976562 571.998 0.000976562 554.998 0.000976562 c 0
 537.998 0.000976562 521.998 0.000976562 504.998 -2.99902 c 1
 498.86 19.166 476.296 97.1348 427.268 228.284 c 1
 389.544 229.182 348.017 230.001 309.999 230.001 c 0
 275.48 230.001 218.977 229.164 180.974 228.262 c 1
409.321 275.549 m 1
 382.469 345.224 349.089 427.395 308.03 521.763 c 1
 306.03 521.763 l 1
 200.64 275.916 l 1
 232.372 275.538 276.058 274 304.999 274 c 0
 334.69 274 376.467 274.72 409.321 275.549 c 1
EndSplineSet
Substitution2: "'ss01' Stilgruppe 1 lookup 19 subtable" Adieresis.alt
Substitution2: "'c2sc' Capitals to Small Capitals lookup 9 subtable" adieresis.sc
AlternateSubs2: "'aalt' Access All Alternates lookup 0 subtable" adieresis.sc
Position2: "'cpsp' Capital Spacing lookup 0 subtable" dx=2 dy=0 dh=5 dv=0
EndChar

StartChar: Aring
Encoding: 197 197 133
Width: 633
GlyphClass: 2
Flags: MW
HStem: -3 21G 230 44 770 27
VStem: 237 37<700 729 700 737> 374 37 505 110
LayerCount: 2
Fore
SplineSet
324 770 m 0
 293 770 274 744 274 714 c 0
 274 686 293 658 324 658 c 0
 355 658 374 686 374 714 c 0
 374 745 354 770 324 770 c 0
237 714 m 0
 237 760 277.998 796.999 323.998 796.999 c 0
 369.998 796.999 410.998 760.999 410.998 713.999 c 0
 410.998 677.697 385.618 645.951 350.607 635.035 c 1
 441.963 415.876 566.715 94.5332 614.999 -3.00098 c 1
 597.999 -0.000976562 571.999 -0.000976562 554.999 -0.000976562 c 0
 537.999 -0.000976562 521.999 -0.000976562 504.999 -3.00098 c 1
 498.861 19.1641 476.297 97.1328 427.269 228.282 c 1
 389.545 229.18 348.018 229.999 310 229.999 c 0
 275.481 229.999 218.978 229.162 180.975 228.26 c 1
 145.306 140.77 114.354 58.3271 98 -3.00098 c 1
 86 -0.000976562 64 -0.000976562 53 -0.000976562 c 0
 42 -0.000976562 30 -0.000976562 18 -3.00098 c 1
 302.196 633.792 l 1
 265.795 643.221 237 675.45 237 714 c 0
409.32 275.548 m 1
 382.468 345.223 349.088 427.394 308.029 521.762 c 1
 306.029 521.762 l 1
 200.639 275.915 l 1
 232.371 275.537 276.057 273.999 304.998 273.999 c 0
 334.689 273.999 376.466 274.719 409.32 275.548 c 1
EndSplineSet
Substitution2: "'c2sc' Capitals to Small Capitals lookup 9 subtable" aring.sc
AlternateSubs2: "'aalt' Access All Alternates lookup 0 subtable" aring.sc
Position2: "'cpsp' Capital Spacing lookup 0 subtable" dx=2 dy=0 dh=5 dv=0
EndChar

StartChar: AE
Encoding: 198 198 134
Width: 802
GlyphClass: 2
Flags: MW
HStem: -2 29 0 39 266 39 329 34 605 40 618 28
VStem: 429 83 671 33
AnchorPoint: "Anker-5" 322 700 basechar 0
AnchorPoint: "Anker-4" 322 798 basechar 0
AnchorPoint: "Anker-3" 270 -108 basechar 0
AnchorPoint: "Anker-2" 58 8 basechar 0
LayerCount: 2
Fore
SplineSet
222.021 278.511 m 1x7b
 170.613 171.807 125.519 69.1045 97.998 -3 c 1
 85.998 0 63.998 0 52.998 0 c 0
 41.998 0 29.998 0 17.998 -3 c 1
 123.998 200 220.982 410 365.998 645.667 c 1
 366.203 645.308 l 1
 367.998 648 l 1
 367.998 648 384.998 645 418.998 645 c 2
 631.998 645 l 2
 652.998 645 675.998 646 691.998 648 c 1
 693.998 645 l 1
 692.998 631 691.998 622 691.998 614 c 0
 691.998 605 692.998 596 693.998 588 c 1
 691.998 584 l 1
 691.998 584 614.668 594.276 508.998 594.276 c 0
 433.476 594.276 419.235 585.379 424.436 545.532 c 0
 438.637 475.152 454.606 402.419 470.658 333.01 c 1
 582.775 333.248 637.46 338.124 694.998 343 c 1
 697.998 340 l 1
 695.998 331 694.998 321 694.998 312 c 0
 694.998 303 695.998 293 697.998 284 c 1
 694.998 281 l 1
 633.719 287.217 535.369 290.278 480.504 290.886 c 1
 501.994 199.886 523.012 116.963 539.48 55.8359 c 1
 639.267 59.1982 751.998 66.001 751.998 66.001 c 1
 753.998 62.001 l 1
 752.998 54.001 751.998 39.001 751.998 29.001 c 0
 751.998 19.001 752.998 14.001 753.998 0.000976562 c 1
 751.998 -2.99902 l 1
 735.998 -0.999023 712.998 0.000976562 691.998 0.000976562 c 2
 554.998 0.000976562 l 1
 553.498 0.000976562 l 1
 499.998 0.000976562 l 2
 482.998 0.000976562 466.998 0.000976562 449.998 -2.99902 c 1
 449.998 32.6729 436.544 117.269 405.872 279.36 c 1
 383.67 279.744 361.284 280.001 339.999 280.001 c 0
 308.689 280.001 259.293 279.312 222.021 278.511 c 1x7b
397.241 324.65 m 1
 356.496 533.501 l 1
 354.496 533.501 l 1
 318.173 469.52 280.558 397.583 245.035 325.689 c 1
 274.666 325.127 310.23 324 334.997 324 c 0
 352.889 324 375.169 324.262 397.241 324.65 c 1
EndSplineSet
Substitution2: "'c2sc' Capitals to Small Capitals lookup 9 subtable" ae.sc
AlternateSubs2: "'aalt' Access All Alternates lookup 0 subtable" ae.sc
Position2: "'cpsp' Capital Spacing lookup 0 subtable" dx=2 dy=0 dh=5 dv=0
EndChar

StartChar: Ccedilla
Encoding: 199 199 135
Width: 650
GlyphClass: 2
Flags: MW
HStem: -204 29<339 364 339 385.5> -100 32<357.5 411> -10 51 611 47
VStem: 37 103<260.999 413.499> 400 62<-148 -124.5>
LayerCount: 2
Fore
SplineSet
367 -100 m 0
 348 -100 338.001 -101.001 322.001 -106.001 c 1
 316.001 -100.001 l 1
 353.505 -9.99121 l 1
 352.67 -9.99805 351.835 -10.001 351 -10.001 c 0
 136 -10.001 37 153.999 37 314.999 c 0
 37 511.999 196 657.999 365 657.999 c 0
 487 657.999 583 612.999 583 612.999 c 1
 585 609.998 l 1
 573.238 560.746 568.554 549.992 565 498.999 c 1
 555 497.999 l 1
 514 579.999 441 610.999 351 610.999 c 0
 269 610.999 140 536.999 140 333.999 c 0
 140 187.999 205 40.999 360 40.999 c 0
 453 40.999 521 61.999 592 139.999 c 1
 615 124.999 l 1
 555.783 47.4951 473.059 2.60059 388.618 -7.7041 c 1
 365 -71 l 1
 373 -69 382 -68 391 -68 c 0
 431 -68 462 -92 462 -130 c 0
 462 -173 416 -204 355 -204 c 0
 323 -204 306 -198 281 -187 c 1
 281 -175 284 -168 291 -161 c 1
 318 -171 329 -175 349 -175 c 0
 379 -175 400 -161 400 -135 c 0
 400 -114 390 -100 367 -100 c 0
EndSplineSet
Substitution2: "'c2sc' Capitals to Small Capitals lookup 9 subtable" ccedilla.sc
AlternateSubs2: "'aalt' Access All Alternates lookup 0 subtable" ccedilla.sc
Position2: "'cpsp' Capital Spacing lookup 0 subtable" dx=2 dy=0 dh=5 dv=0
EndChar

StartChar: Egrave
Encoding: 200 200 136
Width: 522
GlyphClass: 2
Flags: MW
HStem: 0 54<121.5 257 190 257 190 412> 321 42<182 206> 596 49<190 257> 697 21G<362 370>
VStem: 96 86<200 321 363 445>
LayerCount: 2
Fore
SplineSet
245 817 m 1
 366 733 l 2
 377 725 381 719 381 712 c 0
 381 704 374 697 366 697 c 0
 358 697 344 700 323 709 c 2
 169 772 l 1
 187.265 789.714 210.786 805.409 245 817 c 1
182 200 m 2
 182 183 183 78 190 54 c 1
 324 54 472 66 472 66 c 1
 474 62 l 1
 473 54 472 39 472 29 c 0
 472 19 473 14 474 0 c 1
 472 -3 l 1
 456 -1 433 0 412 0 c 2
 139 0 l 2
 104 0 87 -3 87 -3 c 1
 86 0 l 1
 94 54 96 125 96 200 c 2
 96 445 l 2
 96 520 94 588 86 645 c 1
 88 648 l 1
 88 648 105 645 139 645 c 2
 402 645 l 2
 423 645 446 646 462 648 c 1
 464 645 l 1
 463 631 462 622 462 614 c 0
 462 605 463 596 464 588 c 1
 462 584 l 1
 462 584 324 596 190 596 c 1
 183 572 182 462 182 445 c 2
 182 363 l 1
 300 363 346 368 405 373 c 1
 408 370 l 1
 406 361 405 351 405 342 c 0
 405 333 406 323 408 314 c 1
 405 311 l 1
 336 318 230 321 182 321 c 1
 182 200 l 2
EndSplineSet
Substitution2: "'c2sc' Capitals to Small Capitals lookup 9 subtable" egrave.sc
AlternateSubs2: "'aalt' Access All Alternates lookup 0 subtable" egrave.sc
Position2: "'cpsp' Capital Spacing lookup 0 subtable" dx=2 dy=0 dh=5 dv=0
EndChar

StartChar: Eacute
Encoding: 201 201 137
Width: 522
GlyphClass: 2
Flags: MW
HStem: 0 54<121.5 257 190 257 190 412> 321 42<182 206> 596 49<190 257> 698 21G<221.5 230.5>
VStem: 96 86<200 321 363 445>
AnchorPoint: "Anker-4" 286 662 basechar 0
LayerCount: 2
Fore
SplineSet
350 820 m 1
 378.648 806.667 399.315 789.333 412 768 c 1
 268 710 l 2
 247 701 235 698 226 698 c 0
 217 698 211 705 211 713 c 0
 211 720 213.008 724.989 226 734 c 2
 350 820 l 1
182 200 m 2
 182 183 183 78 190 54 c 1
 324 54 472 66 472 66 c 1
 474 62 l 1
 473 54 472 39 472 29 c 0
 472 19 473 14 474 0 c 1
 472 -3 l 1
 456 -1 433 0 412 0 c 2
 139 0 l 2
 104 0 87 -3 87 -3 c 1
 86 0 l 1
 94 54 96 125 96 200 c 2
 96 445 l 2
 96 520 94 588 86 645 c 1
 88 648 l 1
 88 648 105 645 139 645 c 2
 402 645 l 2
 423 645 446 646 462 648 c 1
 464 645 l 1
 463 631 462 622 462 614 c 0
 462 605 463 596 464 588 c 1
 462 584 l 1
 462 584 324 596 190 596 c 1
 183 572 182 462 182 445 c 2
 182 363 l 1
 300 363 346 368 405 373 c 1
 408 370 l 1
 406 361 405 351 405 342 c 0
 405 333 406 323 408 314 c 1
 405 311 l 1
 336 318 230 321 182 321 c 1
 182 200 l 2
EndSplineSet
Substitution2: "'c2sc' Capitals to Small Capitals lookup 9 subtable" eacute.sc
AlternateSubs2: "'aalt' Access All Alternates lookup 0 subtable" eacute.sc
Position2: "'cpsp' Capital Spacing lookup 0 subtable" dx=2 dy=0 dh=5 dv=0
EndChar

StartChar: Ecircumflex
Encoding: 202 202 138
Width: 522
GlyphClass: 2
Flags: MW
HStem: 0 54<121.5 257 190 257 190 412> 321 42<182 206> 596 49<190 257> 690 21G<175 189>
VStem: 96 86<200 321 363 445>
LayerCount: 2
Fore
SplineSet
317 805 m 1
 347 769 382 738 418 711 c 1
 402 690 l 1
 363 708 329 727 296 752 c 1
 259 725 227 707 189 690 c 1
 175 711 l 1
 212 739 243 771 274 805 c 1
 317 805 l 1
182 200 m 2
 182 183 183 78 190 54 c 1
 324 54 472 66 472 66 c 1
 474 62 l 1
 473 54 472 39 472 29 c 0
 472 19 473 14 474 0 c 1
 472 -3 l 1
 456 -1 433 0 412 0 c 2
 139 0 l 2
 104 0 87 -3 87 -3 c 1
 86 0 l 1
 94 54 96 125 96 200 c 2
 96 445 l 2
 96 520 94 588 86 645 c 1
 88 648 l 1
 88 648 105 645 139 645 c 2
 402 645 l 2
 423 645 446 646 462 648 c 1
 464 645 l 1
 463 631 462 622 462 614 c 0
 462 605 463 596 464 588 c 1
 462 584 l 1
 462 584 324 596 190 596 c 1
 183 572 182 462 182 445 c 2
 182 363 l 1
 300 363 346 368 405 373 c 1
 408 370 l 1
 406 361 405 351 405 342 c 0
 405 333 406 323 408 314 c 1
 405 311 l 1
 336 318 230 321 182 321 c 1
 182 200 l 2
EndSplineSet
Substitution2: "'c2sc' Capitals to Small Capitals lookup 9 subtable" ecircumflex.sc
AlternateSubs2: "'aalt' Access All Alternates lookup 0 subtable" ecircumflex.sc
Position2: "'cpsp' Capital Spacing lookup 0 subtable" dx=2 dy=0 dh=5 dv=0
EndChar

StartChar: Edieresis
Encoding: 203 203 139
Width: 522
GlyphClass: 2
Flags: MW
HStem: 0 54<121.5 257 190 257 190 412> 321 42<182 206> 596 49<190 257> 703 96<180 206 369 395>
VStem: 96 86<200 321 363 445> 145 96<738 764> 334 96<738 764>
LayerCount: 2
Fore
SplineSet
334 751 m 0xf2
 334 777 356 799 382 799 c 0
 408 799 430 777 430 751 c 0
 430 725 408 703 382 703 c 0
 356 703 334 725 334 751 c 0xf2
145 751 m 0xf6
 145 777 167 799 193 799 c 0
 219 799 241 777 241 751 c 0
 241 725 219 703 193 703 c 0
 167 703 145 725 145 751 c 0xf6
182 200 m 2xfa
 182 183 183 78 190 54 c 1
 324 54 472 66 472 66 c 1
 474 62 l 1
 473 54 472 39 472 29 c 0
 472 19 473 14 474 0 c 1
 472 -3 l 1
 456 -1 433 0 412 0 c 2
 139 0 l 2
 104 0 87 -3 87 -3 c 1
 86 0 l 1
 94 54 96 125 96 200 c 2
 96 445 l 2
 96 520 94 588 86 645 c 1
 88 648 l 1
 88 648 105 645 139 645 c 2
 402 645 l 2
 423 645 446 646 462 648 c 1
 464 645 l 1
 463 631 462 622 462 614 c 0
 462 605 463 596 464 588 c 1
 462 584 l 1
 462 584 324 596 190 596 c 1
 183 572 182 462 182 445 c 2
 182 363 l 1
 300 363 346 368 405 373 c 1
 408 370 l 1
 406 361 405 351 405 342 c 0
 405 333 406 323 408 314 c 1
 405 311 l 1
 336 318 230 321 182 321 c 1
 182 200 l 2xfa
EndSplineSet
Substitution2: "'c2sc' Capitals to Small Capitals lookup 9 subtable" edieresis.sc
AlternateSubs2: "'aalt' Access All Alternates lookup 0 subtable" edieresis.sc
Position2: "'cpsp' Capital Spacing lookup 0 subtable" dx=2 dy=0 dh=5 dv=0
EndChar

StartChar: Igrave
Encoding: 204 204 140
Width: 293
GlyphClass: 2
Flags: MW
HStem: -3 21G<97 97 200 200> 628 20G<98 98 201 201> 697 21G<216 224>
VStem: 106 86<200 445>
LayerCount: 2
Fore
SplineSet
99 817 m 1
 220 733 l 2
 231 725 235 719 235 712 c 0
 235 704 228 697 220 697 c 0
 212 697 198 700 177 709 c 2
 23 772 l 1
 41.2646 789.714 64.7861 805.409 99 817 c 1
106 445 m 2
 106 520 104 588 96 645 c 1
 98 648 l 1
 98 648 115 645 149 645 c 0
 184 645 201 648 201 648 c 1
 202 645 l 1
 194 592 192 520 192 445 c 2
 192 200 l 2
 192 125 194 57 202 0 c 1
 200 -3 l 1
 200 -3 183 0 149 0 c 0
 114 0 97 -3 97 -3 c 1
 96 0 l 1
 104 54 106 125 106 200 c 2
 106 445 l 2
EndSplineSet
Substitution2: "'c2sc' Capitals to Small Capitals lookup 9 subtable" igrave.sc
AlternateSubs2: "'aalt' Access All Alternates lookup 0 subtable" igrave.sc
Position2: "'cpsp' Capital Spacing lookup 0 subtable" dx=2 dy=0 dh=5 dv=0
EndChar

StartChar: Iacute
Encoding: 205 205 141
Width: 293
GlyphClass: 2
Flags: MW
HStem: -3 21G<97 97 200 200> 628 20G<98 98 201 201> 697 21G<81.5 90.5>
VStem: 106 86<200 445>
LayerCount: 2
Fore
SplineSet
210 819 m 1
 238.648 805.667 259.315 788.333 272 767 c 1
 128 709 l 2
 107 700 95 697 86 697 c 0
 77 697 71 704 71 712 c 0
 71 719 73.0078 723.989 86 733 c 2
 210 819 l 1
106 445 m 2
 106 520 104 588 96 645 c 1
 98 648 l 1
 98 648 115 645 149 645 c 0
 184 645 201 648 201 648 c 1
 202 645 l 1
 194 592 192 520 192 445 c 2
 192 200 l 2
 192 125 194 57 202 0 c 1
 200 -3 l 1
 200 -3 183 0 149 0 c 0
 114 0 97 -3 97 -3 c 1
 96 0 l 1
 104 54 106 125 106 200 c 2
 106 445 l 2
EndSplineSet
Substitution2: "'c2sc' Capitals to Small Capitals lookup 9 subtable" iacute.sc
AlternateSubs2: "'aalt' Access All Alternates lookup 0 subtable" iacute.sc
Position2: "'cpsp' Capital Spacing lookup 0 subtable" dx=2 dy=0 dh=5 dv=0
EndChar

StartChar: Icircumflex
Encoding: 206 206 142
Width: 293
GlyphClass: 2
Flags: MW
HStem: -3 21G<97 97 200 200> 628 20G<98 98 201 201> 690 21G<25 39>
VStem: 106 86<200 445>
LayerCount: 2
Fore
SplineSet
167 805 m 1
 197 769 232 738 268 711 c 1
 252 690 l 1
 213 708 179 727 146 752 c 1
 109 725 77 707 39 690 c 1
 25 711 l 1
 62 739 93 771 124 805 c 1
 167 805 l 1
106 445 m 2
 106 520 104 588 96 645 c 1
 98 648 l 1
 98 648 115 645 149 645 c 0
 184 645 201 648 201 648 c 1
 202 645 l 1
 194 592 192 520 192 445 c 2
 192 200 l 2
 192 125 194 57 202 0 c 1
 200 -3 l 1
 200 -3 183 0 149 0 c 0
 114 0 97 -3 97 -3 c 1
 96 0 l 1
 104 54 106 125 106 200 c 2
 106 445 l 2
EndSplineSet
Substitution2: "'c2sc' Capitals to Small Capitals lookup 9 subtable" icircumflex.sc
AlternateSubs2: "'aalt' Access All Alternates lookup 0 subtable" icircumflex.sc
Position2: "'cpsp' Capital Spacing lookup 0 subtable" dx=2 dy=0 dh=5 dv=0
EndChar

StartChar: Idieresis
Encoding: 207 207 143
Width: 293
GlyphClass: 2
Flags: MW
HStem: -3 21G<97 97 200 200> 628 20G<98 98 201 201> 702 96<39 65 228 254>
VStem: 4 96<737 763> 106 86<200 445> 193 96<737 763>
LayerCount: 2
Fore
SplineSet
193 750 m 0
 193 776 215 798 241 798 c 0
 267 798 289 776 289 750 c 0
 289 724 267 702 241 702 c 0
 215 702 193 724 193 750 c 0
4 750 m 0
 4 776 26 798 52 798 c 0
 78 798 100 776 100 750 c 0
 100 724 78 702 52 702 c 0
 26 702 4 724 4 750 c 0
106 445 m 2
 106 520 104 588 96 645 c 1
 98 648 l 1
 98 648 115 645 149 645 c 0
 184 645 201 648 201 648 c 1
 202 645 l 1
 194 592 192 520 192 445 c 2
 192 200 l 2
 192 125 194 57 202 0 c 1
 200 -3 l 1
 200 -3 183 0 149 0 c 0
 114 0 97 -3 97 -3 c 1
 96 0 l 1
 104 54 106 125 106 200 c 2
 106 445 l 2
EndSplineSet
Substitution2: "'c2sc' Capitals to Small Capitals lookup 9 subtable" idieresis.sc
AlternateSubs2: "'aalt' Access All Alternates lookup 0 subtable" idieresis.sc
Position2: "'cpsp' Capital Spacing lookup 0 subtable" dx=2 dy=0 dh=5 dv=0
EndChar

StartChar: Eth
Encoding: 208 208 144
Width: 698
GlyphClass: 2
Flags: MW
HStem: -2 44<275.5 366.5 247 397.5> 287 39<17 101 17 101 187 288> 604 44<277 379>
VStem: 101 86<200 287 326 445 445 482.5> 552 103<185 361>
LayerCount: 2
Fore
SplineSet
187 82 m 2
 187 50 198 42 296 42 c 0
 437 42 552 82 552 284 c 0
 552 438 487 604 271 604 c 0
 222 604 187 599 187 564 c 2
 187 326 l 1
 288 326 l 1
 288 287 l 1
 187 287 l 1
 187 82 l 2
144 645 m 0
 208 645 245 648 309 648 c 0
 501 648 655 494 655 308 c 0
 655 62 468 -2 327 -2 c 0
 224 -2 215 0 144 0 c 0
 109 0 92 -3 92 -3 c 1
 91 0 l 1
 99 54 101 124.999 101 200 c 2
 101 287 l 1
 17 287 l 1
 17 326 l 1
 101 326 l 1
 101 445 l 2
 101 520 99 588 91 645 c 1
 93 648 l 1
 93 648 110 645 144 645 c 0
EndSplineSet
Substitution2: "'c2sc' Capitals to Small Capitals lookup 9 subtable" eth.sc
AlternateSubs2: "'aalt' Access All Alternates lookup 0 subtable" eth.sc
Position2: "'cpsp' Capital Spacing lookup 0 subtable" dx=2 dy=0 dh=5 dv=0
EndChar

StartChar: Ntilde
Encoding: 209 209 145
Width: 695
GlyphClass: 2
Flags: MW
HStem: -3 21G<92 92 162 162> 628 20G<93 93 545 545 615 615> 698 44<407.5 427> 746 46<273 294.5>
VStem: 101 53<200 439> 213 24<698 703> 467 24<788 794> 553 53<178 445>
LayerCount: 2
Fore
SplineSet
417 742 m 0
 439 742 453 752 467 794 c 1
 491 788 l 1
 479 728 450 698 404 698 c 0
 382 698 361 710 340 724 c 0
 322 735 303 746 286 746 c 0
 260 746 247 731 237 698 c 1
 213 703 l 1
 227 762 250 792 293 792 c 0
 323 792 345 778 365 764 c 0
 381 752 398 742 417 742 c 0
101 445 m 2
 101 520 99 588 91 645 c 1
 93 648 l 1
 93 648 110 645 144 645 c 0
 148.5 645 158 647 158 647 c 1
 501 203 l 2
 544.323 146.92 553 123.553 553 178 c 2
 553 445 l 2
 553 520 551 588 543 645 c 1
 545 648 l 1
 545 648 555.667 645 580 645 c 0
 602.333 645 615 648 615 648 c 1
 616 645 l 1
 608 592 606 520 606 445 c 2
 606 21 l 2
 606 2 599 -10 585 -10 c 0
 569 -10 553 -1 542 14 c 2
 193 455 l 2
 155.887 503.029 154 499.961 154 439 c 2
 154 200 l 2
 154 125 156 57 164 0 c 1
 162 -3 l 1
 162 -3 151.333 0 127 0 c 0
 104.667 0 92 -3 92 -3 c 1
 91 0 l 1
 99 53 101 125 101 200 c 2
 101 445 l 2
EndSplineSet
Substitution2: "'c2sc' Capitals to Small Capitals lookup 9 subtable" ntilde.sc
AlternateSubs2: "'aalt' Access All Alternates lookup 0 subtable" ntilde.sc
Position2: "'cpsp' Capital Spacing lookup 0 subtable" dx=2 dy=0 dh=5 dv=0
EndChar

StartChar: Ograve
Encoding: 210 210 146
Width: 721
GlyphClass: 2
Flags: MW
HStem: -10 44<319 436 319 454.5> 614 44<297 415.5> 699 21G<426 434>
VStem: 42 103<231 408> 576 103<229 414>
LayerCount: 2
Fore
SplineSet
309 819 m 1
 430 735 l 2
 441 727 445 721 445 714 c 0
 445 706 438 699 430 699 c 0
 422 699 408 702 387 711 c 2
 233 774 l 1
 251.265 791.714 274.786 807.409 309 819 c 1
345 614 m 0
 249 614 145 537 145 327 c 0
 145 135 259 34 379 34 c 0
 493 34 576 131 576 310 c 0
 576 518 486 614 345 614 c 0
679 329 m 0
 679 129 550 -10 359 -10 c 0
 187 -10 42 113 42 310 c 0
 42 506 179 658 358 658 c 0
 538 658 679 527 679 329 c 0
EndSplineSet
Substitution2: "'c2sc' Capitals to Small Capitals lookup 9 subtable" ograve.sc
AlternateSubs2: "'aalt' Access All Alternates lookup 0 subtable" ograve.sc
Position2: "'cpsp' Capital Spacing lookup 0 subtable" dx=2 dy=0 dh=5 dv=0
EndChar

StartChar: Oacute
Encoding: 211 211 147
Width: 721
GlyphClass: 2
Flags: MW
HStem: -10 44<319 436 319 454.5> 614 44<297 415.5> 698 21G<263.5 272.5>
VStem: 42 103<231 408> 576 103<229 414>
LayerCount: 2
Fore
SplineSet
392 820 m 1
 420.648 806.667 441.315 789.333 454 768 c 1
 310 710 l 2
 289 701 277 698 268 698 c 0
 259 698 253 705 253 713 c 0
 253 720 255.008 724.989 268 734 c 2
 392 820 l 1
345 614 m 0
 249 614 145 537 145 327 c 0
 145 135 259 34 379 34 c 0
 493 34 576 131 576 310 c 0
 576 518 486 614 345 614 c 0
679 329 m 0
 679 129 550 -10 359 -10 c 0
 187 -10 42 113 42 310 c 0
 42 506 179 658 358 658 c 0
 538 658 679 527 679 329 c 0
EndSplineSet
Substitution2: "'c2sc' Capitals to Small Capitals lookup 9 subtable" oacute.sc
AlternateSubs2: "'aalt' Access All Alternates lookup 0 subtable" oacute.sc
Position2: "'cpsp' Capital Spacing lookup 0 subtable" dx=2 dy=0 dh=5 dv=0
EndChar

StartChar: Ocircumflex
Encoding: 212 212 148
Width: 721
GlyphClass: 2
Flags: MW
HStem: -10 44<319 436 319 454.5> 614 44<297 415.5> 690 21G<231 245>
VStem: 42 103<231 408> 576 103<229 414>
LayerCount: 2
Fore
SplineSet
373 805 m 1
 403 769 438 738 474 711 c 1
 458 690 l 1
 419 708 385 727 352 752 c 1
 315 725 283 707 245 690 c 1
 231 711 l 1
 268 739 299 771 330 805 c 1
 373 805 l 1
345 614 m 0
 249 614 145 537 145 327 c 0
 145 135 259 34 379 34 c 0
 493 34 576 131 576 310 c 0
 576 518 486 614 345 614 c 0
679 329 m 0
 679 129 550 -10 359 -10 c 0
 187 -10 42 113 42 310 c 0
 42 506 179 658 358 658 c 0
 538 658 679 527 679 329 c 0
EndSplineSet
Substitution2: "'c2sc' Capitals to Small Capitals lookup 9 subtable" ocircumflex.sc
AlternateSubs2: "'aalt' Access All Alternates lookup 0 subtable" ocircumflex.sc
Position2: "'cpsp' Capital Spacing lookup 0 subtable" dx=2 dy=0 dh=5 dv=0
EndChar

StartChar: Otilde
Encoding: 213 213 149
Width: 721
GlyphClass: 2
Flags: MW
HStem: -10 44<319 436 319 454.5> 614 44<297 415.5> 698 44<405.5 425> 746 46<271 292.5>
VStem: 42 103<231 408> 211 24<698 703> 465 24<788 794> 576 103<229 414>
LayerCount: 2
Fore
SplineSet
415 742 m 0
 437 742 451 752 465 794 c 1
 489 788 l 1
 477 728 448 698 402 698 c 0
 380 698 359 710 338 724 c 0
 320 735 301 746 284 746 c 0
 258 746 245 731 235 698 c 1
 211 703 l 1
 225 762 248 792 291 792 c 0
 321 792 343 778 363 764 c 0
 379 752 396 742 415 742 c 0
345 614 m 0
 249 614 145 537 145 327 c 0
 145 135 259 34 379 34 c 0
 493 34 576 131 576 310 c 0
 576 518 486 614 345 614 c 0
679 329 m 0
 679 129 550 -10 359 -10 c 0
 187 -10 42 113 42 310 c 0
 42 506 179 658 358 658 c 0
 538 658 679 527 679 329 c 0
EndSplineSet
Substitution2: "'c2sc' Capitals to Small Capitals lookup 9 subtable" otilde.sc
AlternateSubs2: "'aalt' Access All Alternates lookup 0 subtable" otilde.sc
Position2: "'cpsp' Capital Spacing lookup 0 subtable" dx=2 dy=0 dh=5 dv=0
EndChar

StartChar: Odieresis
Encoding: 214 214 150
Width: 721
GlyphClass: 2
Flags: MW
HStem: -10 44<319 436 319 454.5> 614 44<297 415.5> 664 90<147.5 172.5 546.5 571.5>
VStem: 42 103<231 408> 114 91<696.5 721.5> 514 90<696.5 721.5> 576 103<229 414>
LayerCount: 2
Fore
SplineSet
114 709 m 0xe8
 114 734 135 754 160 754 c 0
 185 754 205 734 205 709 c 0
 205 684 185 664 160 664 c 0
 135 664 114 684 114 709 c 0xe8
514 709 m 0xe4
 514 734 534 754 559 754 c 0
 584 754 604 734 604 709 c 0
 604 684 584 664 559 664 c 0
 534 664 514 684 514 709 c 0xe4
345 614 m 0
 249 614 145 537 145 327 c 0
 145 135 259 34 379 34 c 0
 493 34 576 131 576 310 c 0xf2
 576 518 486 614 345 614 c 0
679 329 m 0
 679 129 550 -10 359 -10 c 0
 187 -10 42 113 42 310 c 0
 42 506 179 658 358 658 c 0
 538 658 679 527 679 329 c 0
EndSplineSet
Substitution2: "'ss01' Stilgruppe 1 lookup 19 subtable" Odieresis.alt
Substitution2: "'c2sc' Capitals to Small Capitals lookup 9 subtable" odieresis.sc
AlternateSubs2: "'aalt' Access All Alternates lookup 0 subtable" odieresis.sc
Position2: "'cpsp' Capital Spacing lookup 0 subtable" dx=2 dy=0 dh=5 dv=0
EndChar

StartChar: multiply
Encoding: 215 215 151
Width: 527
GlyphClass: 2
Flags: W
LayerCount: 2
Fore
SplineSet
298 230 m 1
 421 108 l 1
 386 73 l 1
 264 195 l 1
 142 73 l 1
 106 108 l 1
 229 230 l 1
 106 353 l 1
 142 388 l 1
 264 265 l 1
 386 388 l 1
 421 353 l 1
 298 230 l 1
EndSplineSet
EndChar

StartChar: Oslash
Encoding: 216 216 152
Width: 721
GlyphClass: 2
Flags: MW
HStem: -10 44 614 44
VStem: 42 103 576 103
LayerCount: 2
Fore
SplineSet
89 -40 m 1
 55 -13.999 l 1
 131.689 80.3457 l 1
 76.4521 135.532 42 213.976 42 310.001 c 0
 42 506.001 179 658.001 358 658.001 c 0
 431.35 658.001 498.224 636.248 551.719 597.072 c 1
 611 670.001 l 1
 645 646.001 l 1
 583.541 570.172 l 1
 642.748 512.57 679 429.398 679 329.001 c 0
 679 129.001 550 -9.99902 359 -9.99902 c 0
 286.15 -9.99902 218.145 12.0654 163.947 52.4717 c 1
 89 -40 l 1
345 614.001 m 0
 249 614.001 145.001 537.002 145.001 327.002 c 0
 145.001 254.684 161.175 195.275 187.75 149.312 c 1
 509.313 544.904 l 1
 469.395 591.571 413.155 614.001 345 614.001 c 0
534.058 509.118 m 1
 213.064 113.073 l 1
 256.936 60.8154 317.172 34.002 379.001 34.002 c 0
 493.001 34.002 576.001 131.002 576.001 310.002 c 0
 576.001 394.5 561.148 460.515 534.058 509.118 c 1
EndSplineSet
Substitution2: "'c2sc' Capitals to Small Capitals lookup 9 subtable" oslash.sc
AlternateSubs2: "'aalt' Access All Alternates lookup 0 subtable" oslash.sc
Position2: "'cpsp' Capital Spacing lookup 0 subtable" dx=2 dy=0 dh=5 dv=0
EndChar

StartChar: Ugrave
Encoding: 217 217 153
Width: 661
GlyphClass: 2
Flags: MW
HStem: -10 51<276 423.5> 628 20G<78 78 181 181 513 513 583 583> 698 21G<393 401>
VStem: 86 86<242.006 269 269 445> 521 53<277 295 295 445>
LayerCount: 2
Fore
SplineSet
276 818 m 1
 397 734 l 2
 408 726 412 720 412 713 c 0
 412 705 405 698 397 698 c 0
 389 698 375 701 354 710 c 2
 200 773 l 1
 218.265 790.714 241.786 806.409 276 818 c 1
521 445 m 2
 521 520 519 588 511 645 c 1
 513 648 l 1
 513 648 523.667 645 548 645 c 0
 570.333 645 583 648 583 648 c 1
 584 645 l 1
 576 592 574 520 574 445 c 2
 574 295 l 2
 574 117 526 -10 321 -10 c 0
 231 -10 86 32 86 236 c 2
 86 445 l 2
 86 520 84 588 76 645 c 1
 78 648 l 1
 78 648 95 645 129 645 c 0
 164 645 181 648 181 648 c 1
 182 645 l 1
 174 592 172 520 172 445 c 2
 172 269 l 2
 172 215.013 174 41 342 41 c 0
 511 41 521 165 521 277 c 2
 521 445 l 2
EndSplineSet
Substitution2: "'c2sc' Capitals to Small Capitals lookup 9 subtable" ugrave.sc
AlternateSubs2: "'aalt' Access All Alternates lookup 0 subtable" ugrave.sc
Position2: "'cpsp' Capital Spacing lookup 0 subtable" dx=2 dy=0 dh=5 dv=0
EndChar

StartChar: Uacute
Encoding: 218 218 154
Width: 661
GlyphClass: 2
Flags: MW
HStem: -10 51<276 423.5> 628 20G<78 78 181 181 513 513 583 583> 697 21G<276.5 285.5>
VStem: 86 86<242.006 269 269 445> 521 53<277 295 295 445>
LayerCount: 2
Fore
SplineSet
405 819 m 1
 433.648 805.667 454.315 788.333 467 767 c 1
 323 709 l 2
 302 700 290 697 281 697 c 0
 272 697 266 704 266 712 c 0
 266 719 268.008 723.989 281 733 c 2
 405 819 l 1
521 445 m 2
 521 520 519 588 511 645 c 1
 513 648 l 1
 513 648 523.667 645 548 645 c 0
 570.333 645 583 648 583 648 c 1
 584 645 l 1
 576 592 574 520 574 445 c 2
 574 295 l 2
 574 117 526 -10 321 -10 c 0
 231 -10 86 32 86 236 c 2
 86 445 l 2
 86 520 84 588 76 645 c 1
 78 648 l 1
 78 648 95 645 129 645 c 0
 164 645 181 648 181 648 c 1
 182 645 l 1
 174 592 172 520 172 445 c 2
 172 269 l 2
 172 215.013 174 41 342 41 c 0
 511 41 521 165 521 277 c 2
 521 445 l 2
EndSplineSet
Substitution2: "'c2sc' Capitals to Small Capitals lookup 9 subtable" uacute.sc
AlternateSubs2: "'aalt' Access All Alternates lookup 0 subtable" uacute.sc
Position2: "'cpsp' Capital Spacing lookup 0 subtable" dx=2 dy=0 dh=5 dv=0
EndChar

StartChar: Ucircumflex
Encoding: 219 219 155
Width: 661
GlyphClass: 2
Flags: MW
HStem: -10 51<276 423.5> 628 20G<78 78 181 181 513 513 583 583> 690 21G<228 242>
VStem: 86 86<242.006 269 269 445> 521 53<277 295 295 445>
LayerCount: 2
Fore
SplineSet
370 805 m 1
 400 769 435 738 471 711 c 1
 455 690 l 1
 416 708 382 727 349 752 c 1
 312 725 280 707 242 690 c 1
 228 711 l 1
 265 739 296 771 327 805 c 1
 370 805 l 1
521 445 m 2
 521 520 519 588 511 645 c 1
 513 648 l 1
 513 648 523.667 645 548 645 c 0
 570.333 645 583 648 583 648 c 1
 584 645 l 1
 576 592 574 520 574 445 c 2
 574 295 l 2
 574 117 526 -10 321 -10 c 0
 231 -10 86 32 86 236 c 2
 86 445 l 2
 86 520 84 588 76 645 c 1
 78 648 l 1
 78 648 95 645 129 645 c 0
 164 645 181 648 181 648 c 1
 182 645 l 1
 174 592 172 520 172 445 c 2
 172 269 l 2
 172 215.013 174 41 342 41 c 0
 511 41 521 165 521 277 c 2
 521 445 l 2
EndSplineSet
Substitution2: "'c2sc' Capitals to Small Capitals lookup 9 subtable" ucircumflex.sc
AlternateSubs2: "'aalt' Access All Alternates lookup 0 subtable" ucircumflex.sc
Position2: "'cpsp' Capital Spacing lookup 0 subtable" dx=2 dy=0 dh=5 dv=0
EndChar

StartChar: Udieresis
Encoding: 220 220 156
Width: 661
GlyphClass: 2
Flags: MW
HStem: -10 51<276 423.5> 628 20G<78 78 181 181 513 513 583 583> 664 90<254.5 279.5 418.5 443.5>
VStem: 86 86<242.006 269 269 445> 222 90<696.5 721.5> 386 90<696.5 721.5> 521 53<277 295 295 445>
LayerCount: 2
Fore
SplineSet
222 709 m 0
 222 734 242 754 267 754 c 0
 292 754 312 734 312 709 c 0
 312 684 292 664 267 664 c 0
 242 664 222 684 222 709 c 0
386 709 m 0
 386 734 406 754 431 754 c 0
 456 754 476 734 476 709 c 0
 476 684 456 664 431 664 c 0
 406 664 386 684 386 709 c 0
521 445 m 2
 521 520 519 588 511 645 c 1
 513 648 l 1
 513 648 523.667 645 548 645 c 0
 570.333 645 583 648 583 648 c 1
 584 645 l 1
 576 592 574 520 574 445 c 2
 574 295 l 2
 574 117 526 -10 321 -10 c 0
 231 -10 86 32 86 236 c 2
 86 445 l 2
 86 520 84 588 76 645 c 1
 78 648 l 1
 78 648 95 645 129 645 c 0
 164 645 181 648 181 648 c 1
 182 645 l 1
 174 592 172 520 172 445 c 2
 172 269 l 2
 172 215.013 174 41 342 41 c 0
 511 41 521 165 521 277 c 2
 521 445 l 2
EndSplineSet
Substitution2: "'ss01' Stilgruppe 1 lookup 19 subtable" Udieresis.alt
Substitution2: "'c2sc' Capitals to Small Capitals lookup 9 subtable" udieresis.sc
AlternateSubs2: "'aalt' Access All Alternates lookup 0 subtable" udieresis.sc
Position2: "'cpsp' Capital Spacing lookup 0 subtable" dx=2 dy=0 dh=5 dv=0
EndChar

StartChar: Yacute
Encoding: 221 221 157
Width: 591
GlyphClass: 2
Flags: MW
HStem: -3 21G 628 20G 698 21G<231.5 240.5>
VStem: 245.956 88.3482
LayerCount: 2
Fore
SplineSet
360 820 m 1
 388.648 806.667 409.315 789.333 422 768 c 1
 278 710 l 2
 257 701 245 698 236 698 c 0
 227 698 221 705 221 713 c 0
 221 720 223.008 724.989 236 734 c 2
 360 820 l 1
334.305 285.594 m 1
 335.192 186.485 337.939 44.9229 342.001 -2.99902 c 1
 326.001 0.000976562 305.001 0.000976562 290.001 0.000976562 c 0
 275.001 0.000976562 255.001 0.000976562 239.001 -2.99902 c 1
 244.712 52.4824 245.763 177.439 245.956 275.075 c 1
 207.884 340.19 55.9844 588.023 16 648.001 c 1
 33 645.001 56 645.001 73 645.001 c 0
 90 645.001 113 645.001 130 648.001 c 1
 183.653 542.646 242.064 448.711 305.233 340.202 c 1
 363.047 431.098 429.531 543.179 480.001 648.001 c 1
 492.001 645.001 509.001 645.001 522.001 645.001 c 0
 534.001 645.001 551.001 645.001 564.001 648.001 c 1
 443.3 463.458 375.337 365.485 334.305 285.594 c 1
EndSplineSet
Substitution2: "'c2sc' Capitals to Small Capitals lookup 9 subtable" yacute.sc
AlternateSubs2: "'aalt' Access All Alternates lookup 0 subtable" yacute.sc
Position2: "'cpsp' Capital Spacing lookup 0 subtable" dx=2 dy=0 dh=5 dv=0
EndChar

StartChar: Thorn
Encoding: 222 222 158
Width: 528
GlyphClass: 2
Flags: MW
HStem: -3 21G<86 86 189 189> 147 41 474.577 49.584 485 41 628 20G
VStem: 95 86<200 444.998> 396 98
LayerCount: 2
Fore
SplineSet
95 445 m 2xde
 95 520 93 587.998 85 644.998 c 1
 87 647.998 l 1
 87 647.998 104 644.998 138 644.998 c 0
 173 644.998 190 647.998 190 647.998 c 1
 191 644.998 l 1
 185.883 611.097 183.221 569.421 181.967 524.159 c 1xee
 216.913 525.999 250.523 525.999 269.001 525.999 c 0
 454.001 525.999 494.001 413.999 494.001 342.999 c 0
 494.001 267.999 433.001 146.999 255.001 146.999 c 0
 221.733 146.999 196.597 148.806 181.309 153.278 c 1
 182.118 96.6602 184.696 44.915 191 0 c 1
 189 -3 l 1
 189 -3 172 0 138 0 c 0
 103 0 86 -3 86 -3 c 1
 85 0 l 1
 93 54 95 125 95 200 c 2
 95 445 l 2xde
181.007 192.41 m 1
 191.273 189.74 214.541 187.998 249.999 187.998 c 0
 321.999 187.998 395.999 213.998 395.999 342.998 c 0
 395.999 462.998 326.999 484.998 267.999 484.998 c 0xde
 249.611 484.998 203.125 480.314 181.114 474.574 c 1
 181.035 464.793 181 454.922 181 444.998 c 2
 181 199.998 l 2
 181 197.461 181.007 194.932 181.007 192.41 c 1
EndSplineSet
Substitution2: "'c2sc' Capitals to Small Capitals lookup 9 subtable" thorn.sc
AlternateSubs2: "'aalt' Access All Alternates lookup 0 subtable" thorn.sc
Position2: "'cpsp' Capital Spacing lookup 0 subtable" dx=2 dy=0 dh=5 dv=0
EndChar

StartChar: germandbls
Encoding: 223 223 159
Width: 535
GlyphClass: 2
Flags: MW
HStem: -10 37<325.5 355 325.5 386> -3 21G 385 44<30.5 65.5 41.5 65.5 41.5 77> 664 34<252.5 309.5>
VStem: 89 80<200 369 369 375> 361 79<548.5 601> 406 88<120.5 202.5>
LayerCount: 2
Fore
SplineSet
340 -10 m 0xba
 289.5 -10 239 13 231 18 c 1x7a
 230 21 l 1
 241 40 242 52 249 79 c 1
 260 80 l 1
 271 60 311 27 340 27 c 0
 370 27 406 55 406 156 c 0xba
 406 249 340 332 256 396 c 1
 256 409 l 1
 323 461 361 501 361 574 c 0
 361 628 336 664 283 664 c 0
 179 664 169 550 169 442 c 2
 169 200 l 2
 169 125 170 57 179 0 c 1
 177 -3 l 1
 177 -3 163 0 129 0 c 0
 94 0 80 -3 80 -3 c 1
 79 0 l 1
 88 54 89 125 89 200 c 2
 89 369 l 2
 89 381 86 385 77 385 c 2
 33 385 l 2
 28 385 27 386 27 390 c 2
 27 409 l 2
 27 417 33 429 50 429 c 0
 81 429 89 450 89 477 c 0
 89 642 213 698 292 698 c 0
 396 698 440 635 440 587 c 0x7c
 440 510 396 464 326 411 c 1
 326 409 l 1
 405 357 494 289 494 173 c 0
 494 68 432 -10 340 -10 c 0xba
EndSplineSet
Substitution2: "'ss03' Stilgruppe 3 lookup 21 subtable" germandbls.ss03
Substitution2: "'smcp' Gemeine nach Kapit+AOQA-lchen lookup 3 subtable" germandbls.sc
AlternateSubs2: "'aalt' Access All Alternates lookup 0 subtable" germandbls.sc germandbls.alt germandbls.scalt germandbls.ss03
EndChar

StartChar: agrave
Encoding: 224 224 160
Width: 461
GlyphClass: 2
Flags: MW
HStem: -10 51<168 186> 394 45<180.5 220>
VStem: 42 81<86.5 124.5 86.5 132> 291 77<48 90.5>
LayerCount: 2
Fore
SplineSet
196 671 m 1
 266 545 l 2
 271 535 272 528 272 521 c 0
 272 516 265 510 257 510 c 0
 251 510 244 515 228 530 c 2
 114 639 l 1
 116 650 l 1
 124 656 147 673 181 673 c 0
 186 673 192 672 196 671 c 1
292 223 m 1
 212 202 l 2
 138.104 182.603 123 147 123 102 c 0
 123 71 147 41 189 41 c 0
 217 41 249 63 275 84 c 0
 283 90 289 97 289 110 c 2
 292 223 l 1
368 76 m 0
 368 56 373 45 384 45 c 0
 398 45 411 59 420 66 c 1
 423 64 l 1
 439 43 l 1
 408 3 382 -10 351 -10 c 0
 304 -10 293 32 291 48 c 1
 289 48 l 1
 239 3 212 -10 160 -10 c 0
 90 -10 42 24 42 98 c 0
 42 166 103 220 199 243 c 2
 287 264 l 2
 290 265 293 269 293 276 c 0
 293 389 237 394 203 394 c 0
 158 394 116 350 90 305 c 1
 77 306 l 1
 61 373 l 1
 64 377 l 1
 88 398 140 439 212 439 c 0
 284 439 372 412 372 277 c 0
 372 266 368 105 368 76 c 0
EndSplineSet
Substitution2: "'smcp' Gemeine nach Kapit+AOQA-lchen lookup 3 subtable" agrave.sc
AlternateSubs2: "'aalt' Access All Alternates lookup 0 subtable" agrave.sc
EndChar

StartChar: aacute
Encoding: 225 225 161
Width: 461
GlyphClass: 2
Flags: MW
HStem: -10 51<168 186> 394 45<180.5 220>
VStem: 42 81<86.5 124.5 86.5 132> 291 77<48 90.5>
LayerCount: 2
Fore
SplineSet
244 671 m 1
 247 672 253 673 258 673 c 0
 264.389 673 290 672 313 650 c 1
 316 639 l 1
 201 530 l 2
 186 515 178 511 171 511 c 0
 164 511 157 517 157 524 c 0
 157 535.2 160.301 539.174 168.444 552 c 2
 244 671 l 1
292 223 m 1
 212 202 l 2
 138.104 182.603 123 147 123 102 c 0
 123 71 147 41 189 41 c 0
 217 41 249 63 275 84 c 0
 283 90 289 97 289 110 c 2
 292 223 l 1
368 76 m 0
 368 56 373 45 384 45 c 0
 398 45 411 59 420 66 c 1
 423 64 l 1
 439 43 l 1
 408 3 382 -10 351 -10 c 0
 304 -10 293 32 291 48 c 1
 289 48 l 1
 239 3 212 -10 160 -10 c 0
 90 -10 42 24 42 98 c 0
 42 166 103 220 199 243 c 2
 287 264 l 2
 290 265 293 269 293 276 c 0
 293 389 237 394 203 394 c 0
 158 394 116 350 90 305 c 1
 77 306 l 1
 61 373 l 1
 64 377 l 1
 88 398 140 439 212 439 c 0
 284 439 372 412 372 277 c 0
 372 266 368 105 368 76 c 0
EndSplineSet
Substitution2: "'smcp' Gemeine nach Kapit+AOQA-lchen lookup 3 subtable" aacute.sc
AlternateSubs2: "'aalt' Access All Alternates lookup 0 subtable" aacute.sc
EndChar

StartChar: acircumflex
Encoding: 226 226 162
Width: 461
GlyphClass: 2
Flags: MW
HStem: -10 51<168 186> 394 45<180.5 220> 626 20G<190 240 240 240>
VStem: 42 81<86.5 124.5 86.5 132> 291 77<48 90.5>
LayerCount: 2
Fore
SplineSet
240 646 m 1
 269 599 305 557 341 517 c 1
 320 503 l 1
 281 532 248 557 214 593 c 1
 177 555 145 530 107 503 c 1
 87 517 l 1
 123 557 161 600 190 646 c 1
 240 646 l 1
292 223 m 1
 212 202 l 2
 138.104 182.603 123 147 123 102 c 0
 123 71 147 41 189 41 c 0
 217 41 249 63 275 84 c 0
 283 90 289 97 289 110 c 2
 292 223 l 1
368 76 m 0
 368 56 373 45 384 45 c 0
 398 45 411 59 420 66 c 1
 423 64 l 1
 439 43 l 1
 408 3 382 -10 351 -10 c 0
 304 -10 293 32 291 48 c 1
 289 48 l 1
 239 3 212 -10 160 -10 c 0
 90 -10 42 24 42 98 c 0
 42 166 103 220 199 243 c 2
 287 264 l 2
 290 265 293 269 293 276 c 0
 293 389 237 394 203 394 c 0
 158 394 116 350 90 305 c 1
 77 306 l 1
 61 373 l 1
 64 377 l 1
 88 398 140 439 212 439 c 0
 284 439 372 412 372 277 c 0
 372 266 368 105 368 76 c 0
EndSplineSet
Substitution2: "'smcp' Gemeine nach Kapit+AOQA-lchen lookup 3 subtable" acircumflex.sc
AlternateSubs2: "'aalt' Access All Alternates lookup 0 subtable" acircumflex.sc
EndChar

StartChar: atilde
Encoding: 227 227 163
Width: 461
GlyphClass: 2
Flags: MW
HStem: -10 51<168 186> 394 45<180.5 220> 526 44<273.5 293> 574 46<139 160.5>
VStem: 42 81<86.5 124.5 86.5 132> 79 24<526 531> 291 77<48 90.5> 333 24<616 622>
LayerCount: 2
Fore
SplineSet
283 570 m 0xf5
 305 570 319 580 333 622 c 1
 357 616 l 1
 345 556 316 526 270 526 c 0
 248 526 227 538 206 552 c 0
 188 563 169 574 152 574 c 0
 126 574 113 559 103 526 c 1
 79 531 l 1
 93 590 116 620 159 620 c 0
 189 620 211 606 231 592 c 0
 247 580 264 570 283 570 c 0xf5
292 223 m 1
 212 202 l 2
 138.104 182.603 123 147 123 102 c 0xf8
 123 71 147 41 189 41 c 0
 217 41 249 63 275 84 c 0
 283 90 289 97 289 110 c 2
 292 223 l 1
368 76 m 0xfa
 368 56 373 45 384 45 c 0
 398 45 411 59 420 66 c 1
 423 64 l 1
 439 43 l 1
 408 3 382 -10 351 -10 c 0
 304 -10 293 32 291 48 c 1
 289 48 l 1
 239 3 212 -10 160 -10 c 0
 90 -10 42 24 42 98 c 0
 42 166 103 220 199 243 c 2
 287 264 l 2
 290 265 293 269 293 276 c 0
 293 389 237 394 203 394 c 0
 158 394 116 350 90 305 c 1
 77 306 l 1
 61 373 l 1
 64 377 l 1
 88 398 140 439 212 439 c 0
 284 439 372 412 372 277 c 0
 372 266 368 105 368 76 c 0xfa
EndSplineSet
Substitution2: "'smcp' Gemeine nach Kapit+AOQA-lchen lookup 3 subtable" atilde.sc
AlternateSubs2: "'aalt' Access All Alternates lookup 0 subtable" atilde.sc
EndChar

StartChar: adieresis
Encoding: 228 228 164
Width: 461
GlyphClass: 2
Flags: MW
HStem: -10 51<168 186> 394 45<180.5 220> 527 92<120.5 145.5 280.5 305.5>
VStem: 42 81<86.5 124.5 86.5 132> 87 92<560.5 585.5> 247 92<560.5 585.5> 291 77<48 90.5>
LayerCount: 2
Fore
SplineSet
87 573 m 0xe8
 87 598 108 619 133 619 c 0
 158 619 179 598 179 573 c 0
 179 548 158 527 133 527 c 0
 108 527 87 548 87 573 c 0xe8
247 573 m 0xe4
 247 598 268 619 293 619 c 0
 318 619 339 598 339 573 c 0
 339 548 318 527 293 527 c 0
 268 527 247 548 247 573 c 0xe4
292 223 m 1
 212 202 l 2
 138.104 182.603 123 147 123 102 c 0xf0
 123 71 147 41 189 41 c 0
 217 41 249 63 275 84 c 0
 283 90 289 97 289 110 c 2
 292 223 l 1
368 76 m 0xf2
 368 56 373 45 384 45 c 0
 398 45 411 59 420 66 c 1
 423 64 l 1
 439 43 l 1
 408 3 382 -10 351 -10 c 0
 304 -10 293 32 291 48 c 1
 289 48 l 1
 239 3 212 -10 160 -10 c 0
 90 -10 42 24 42 98 c 0
 42 166 103 220 199 243 c 2
 287 264 l 2
 290 265 293 269 293 276 c 0
 293 389 237 394 203 394 c 0
 158 394 116 350 90 305 c 1
 77 306 l 1
 61 373 l 1
 64 377 l 1
 88 398 140 439 212 439 c 0
 284 439 372 412 372 277 c 0
 372 266 368 105 368 76 c 0xf2
EndSplineSet
Substitution2: "'smcp' Gemeine nach Kapit+AOQA-lchen lookup 3 subtable" adieresis.sc
AlternateSubs2: "'aalt' Access All Alternates lookup 0 subtable" adieresis.sc
EndChar

StartChar: aring
Encoding: 229 229 165
Width: 461
GlyphClass: 2
Flags: MW
HStem: -10 51<168 186> 394 45<180.5 220> 499 27<194.5 225.5 194.5 234> 638 27<194.5 225>
VStem: 42 81<86.5 124.5 86.5 132> 123 37<568 597 568 605> 260 37<568 597.5> 291 77<48 90.5>
LayerCount: 2
Fore
SplineSet
210 638 m 0xfe
 179 638 160 612 160 582 c 0
 160 554 179 526 210 526 c 0
 241 526 260 554 260 582 c 0
 260 613 240 638 210 638 c 0xfe
123 582 m 0
 123 628 164 665 210 665 c 0
 256 665 297 629 297 582 c 0
 297 537 258 499 210 499 c 0
 164 499 123 536 123 582 c 0
292 223 m 1
 212 202 l 2
 138.104 182.603 123 147 123 102 c 0
 123 71 147 41 189 41 c 0
 217 41 249 63 275 84 c 0
 283 90 289 97 289 110 c 2
 292 223 l 1
368 76 m 0xfd
 368 56 373 45 384 45 c 0
 398 45 411 59 420 66 c 1
 423 64 l 1
 439 43 l 1
 408 3 382 -10 351 -10 c 0
 304 -10 293 32 291 48 c 1
 289 48 l 1
 239 3 212 -10 160 -10 c 0
 90 -10 42 24 42 98 c 0
 42 166 103 220 199 243 c 2
 287 264 l 2
 290 265 293 269 293 276 c 0
 293 389 237 394 203 394 c 0
 158 394 116 350 90 305 c 1
 77 306 l 1
 61 373 l 1
 64 377 l 1
 88 398 140 439 212 439 c 0
 284 439 372 412 372 277 c 0
 372 266 368 105 368 76 c 0xfd
EndSplineSet
Substitution2: "'smcp' Gemeine nach Kapit+AOQA-lchen lookup 3 subtable" aring.sc
AlternateSubs2: "'aalt' Access All Alternates lookup 0 subtable" aring.sc
EndChar

StartChar: ae
Encoding: 230 230 166
Width: 687
GlyphClass: 2
Flags: MW
HStem: -10 50<168.5 210 168.5 217.499> 215 40<296 296> 394 45<179.75 222.999 174.749 238.4 461.499 513>
VStem: 39 82 296 78 562 84
AnchorPoint: "Anker-5" 339 549 basechar 0
AnchorPoint: "Anker-4" 332 644 basechar 0
AnchorPoint: "Anker-3" 327 -109 basechar 0
AnchorPoint: "Anker-2" 167 -5 basechar 0
AnchorPoint: "Anker-1" 604 30 basechar 0
LayerCount: 2
Fore
SplineSet
296 215 m 1
 163 203 121 157 121 106 c 0
 121 61 145 40 192 40 c 0
 228 40 271 61 285 100 c 0
 291.41 117.857 296 165 296 215 c 1
375 258 m 1
 515 266 562 245 562 306 c 0
 562 338 537 394 489 394 c 0
 426 394 383 343 375 258 c 1
202 394 m 0
 157.5 394 114.999 350 88.999 305 c 1
 75.999 306 l 1
 59.999 373 l 1
 62.999 377 l 1
 87.499 397.5 138.499 439 210.999 439 c 0
 234.999 439 310.999 436 347.999 369 c 1
 380.999 414 432.999 439 489.999 439 c 0
 603.999 439 645.999 343 645.999 309 c 0
 645.999 278.13 639.999 254 619.999 237 c 1
 584.256 217.305 509.535 225.427 373.999 218 c 1
 373.999 112 422.999 44 497.999 44 c 0
 551.999 44 590.999 77 620.999 112 c 1
 640.999 84 l 1
 611.999 30 549.999 -10 483.999 -10 c 0
 392.999 -10 359.999 34 339.999 59 c 1
 293.999 15 244.999 -10 189.999 -10 c 0
 84.999 -10 38.999 33 38.999 101 c 0
 38.999 184 125.999 243 295.999 255 c 1
 294.813 348.623 274.8 394 202 394 c 0
EndSplineSet
Substitution2: "'smcp' Gemeine nach Kapit+AOQA-lchen lookup 3 subtable" ae.sc
AlternateSubs2: "'aalt' Access All Alternates lookup 0 subtable" ae.sc ae.alt
EndChar

StartChar: ccedilla
Encoding: 231 231 167
Width: 437
GlyphClass: 2
Flags: MW
HStem: -198 29<205 230 205 251.5> -94 32<223.5 277> -9.98076 53.9808 394 45<227 279.25>
VStem: 36 85<171.5 279> 266 62<-142 -118.5>
LayerCount: 2
Fore
SplineSet
233 -94 m 0
 214 -94 204 -95 188 -100 c 1
 182 -94 l 1
 217.789 -8.10645 l 1
 108.858 5.39648 36 89.9492 36 208 c 0
 36 350 153 439 261 439 c 0
 311 439 364 423 395 407 c 1
 397 404 l 1
 374 322 l 1
 361 321 l 1
 334.5 366.5 298.5 394 260 394 c 0
 194 394 121 340 121 230 c 0
 121 113 194 44 271 44 c 0
 314 44 350 62 381 107 c 1
 385 107 l 1
 405 91 l 1
 372.464 23.4619 310.764 -9.08008 251.529 -9.98047 c 1
 231 -65 l 1
 239 -63 248 -62 257 -62 c 0
 297 -62 328 -86 328 -124 c 0
 328 -167 282 -198 221 -198 c 0
 189 -198 172 -192 147 -181 c 1
 147 -169 150 -162 157 -155 c 1
 184 -165 195 -169 215 -169 c 0
 245 -169 266 -155 266 -129 c 0
 266 -108 256 -94 233 -94 c 0
EndSplineSet
Substitution2: "'smcp' Gemeine nach Kapit+AOQA-lchen lookup 3 subtable" ccedilla.sc
AlternateSubs2: "'aalt' Access All Alternates lookup 0 subtable" ccedilla.sc
EndChar

StartChar: egrave
Encoding: 232 232 168
Width: 442
GlyphClass: 2
Flags: MW
HStem: -10 59<237 281> 243 44<125 306 306 311 125 391 122 306> 399 40<227.5 257>
VStem: 34 88<168.5 243 168.5 275> 320 89<296.5 302 254.5 338.5>
LayerCount: 2
Fore
SplineSet
210 671 m 1
 280 545 l 2
 285 535 286 528 286 521 c 0
 286 516 279 510 271 510 c 0
 265 510 258 515 242 530 c 2
 128 639 l 1
 130 650 l 1
 138 656 161 673 195 673 c 0
 200 673 206 672 210 671 c 1
125 287 m 1
 306 287 l 2
 316 287 320 292 320 301 c 0
 320 376 275 399 239 399 c 0
 216 399 142 391 125 287 c 1
396 105 m 1
 416 79 l 1
 378 27 317 -10 245 -10 c 0
 108 -10 34 84 34 199 c 0
 34 351 144 439 239 439 c 0
 371 439 409 344 409 260 c 0
 409 249 402 243 391 243 c 2
 122 243 l 1
 122 94 209 49 265 49 c 0
 320 49 361 67 396 105 c 1
EndSplineSet
Substitution2: "'smcp' Gemeine nach Kapit+AOQA-lchen lookup 3 subtable" egrave.sc
AlternateSubs2: "'aalt' Access All Alternates lookup 0 subtable" egrave.sc
EndChar

StartChar: eacute
Encoding: 233 233 169
Width: 442
GlyphClass: 2
Flags: MW
HStem: -10 59<237 281> 243 44<125 306 306 311 125 391 122 306> 399 40<227.5 257>
VStem: 34 88<168.5 243 168.5 275> 320 89<296.5 302 254.5 338.5>
LayerCount: 2
Fore
SplineSet
270 671 m 1
 273 672 279 673 284 673 c 0
 290.389 673 316 672 339 650 c 1
 342 639 l 1
 227 530 l 2
 212 515 204 511 197 511 c 0
 190 511 183 517 183 524 c 0
 183 535.2 186.301 539.174 194.444 552 c 2
 270 671 l 1
125 287 m 1
 306 287 l 2
 316 287 320 292 320 301 c 0
 320 376 275 399 239 399 c 0
 216 399 142 391 125 287 c 1
396 105 m 1
 416 79 l 1
 378 27 317 -10 245 -10 c 0
 108 -10 34 84 34 199 c 0
 34 351 144 439 239 439 c 0
 371 439 409 344 409 260 c 0
 409 249 402 243 391 243 c 2
 122 243 l 1
 122 94 209 49 265 49 c 0
 320 49 361 67 396 105 c 1
EndSplineSet
Substitution2: "'smcp' Gemeine nach Kapit+AOQA-lchen lookup 3 subtable" eacute.sc
AlternateSubs2: "'aalt' Access All Alternates lookup 0 subtable" eacute.sc
EndChar

StartChar: ecircumflex
Encoding: 234 234 170
Width: 442
GlyphClass: 2
Flags: MW
HStem: -10 59<237 281> 243 44<125 306 306 311 125 391 122 306> 399 40<227.5 257> 626 20G<208 258 258 258>
VStem: 34 88<168.5 243 168.5 275> 320 89<296.5 302 254.5 338.5>
LayerCount: 2
Fore
SplineSet
258 646 m 1
 287 599 323 557 359 517 c 1
 338 503 l 1
 299 532 266 557 232 593 c 1
 195 555 163 530 125 503 c 1
 105 517 l 1
 141 557 179 600 208 646 c 1
 258 646 l 1
125 287 m 1
 306 287 l 2
 316 287 320 292 320 301 c 0
 320 376 275 399 239 399 c 0
 216 399 142 391 125 287 c 1
396 105 m 1
 416 79 l 1
 378 27 317 -10 245 -10 c 0
 108 -10 34 84 34 199 c 0
 34 351 144 439 239 439 c 0
 371 439 409 344 409 260 c 0
 409 249 402 243 391 243 c 2
 122 243 l 1
 122 94 209 49 265 49 c 0
 320 49 361 67 396 105 c 1
EndSplineSet
Substitution2: "'smcp' Gemeine nach Kapit+AOQA-lchen lookup 3 subtable" ecircumflex.sc
AlternateSubs2: "'aalt' Access All Alternates lookup 0 subtable" ecircumflex.sc
EndChar

StartChar: edieresis
Encoding: 235 235 171
Width: 442
GlyphClass: 2
Flags: MW
HStem: -10 59<237 281> 243 44<125 306 306 311 125 391 122 306> 399 40<227.5 257> 527 92<136.5 161.5 296.5 321.5>
VStem: 34 88<168.5 243 168.5 275> 103 92<560.5 585.5> 263 92<560.5 585.5> 320 89<296.5 302 254.5 338.5>
LayerCount: 2
Fore
SplineSet
103 573 m 0xf4
 103 598 124 619 149 619 c 0
 174 619 195 598 195 573 c 0
 195 548 174 527 149 527 c 0
 124 527 103 548 103 573 c 0xf4
263 573 m 0xf2
 263 598 284 619 309 619 c 0
 334 619 355 598 355 573 c 0
 355 548 334 527 309 527 c 0
 284 527 263 548 263 573 c 0xf2
125 287 m 1
 306 287 l 2
 316 287 320 292 320 301 c 0xf1
 320 376 275 399 239 399 c 0
 216 399 142 391 125 287 c 1
396 105 m 1
 416 79 l 1
 378 27 317 -10 245 -10 c 0
 108 -10 34 84 34 199 c 0
 34 351 144 439 239 439 c 0
 371 439 409 344 409 260 c 0
 409 249 402 243 391 243 c 2
 122 243 l 1xf9
 122 94 209 49 265 49 c 0
 320 49 361 67 396 105 c 1
EndSplineSet
Substitution2: "'smcp' Gemeine nach Kapit+AOQA-lchen lookup 3 subtable" edieresis.sc
AlternateSubs2: "'aalt' Access All Alternates lookup 0 subtable" edieresis.sc
EndChar

StartChar: igrave
Encoding: 236 236 172
Width: 268
GlyphClass: 2
Flags: MW
HStem: -3 21G<85 85 182 182> 419 20G<175 178>
VStem: 94 80<180 235 235 251 142 272.5>
LayerCount: 2
Fore
SplineSet
110 671 m 1
 180 545 l 2
 185 535 186 528 186 521 c 0
 186 516 179 510 171 510 c 0
 165 510 158 515 142 530 c 2
 28 639 l 1
 30 650 l 1
 38 656 61 673 95 673 c 0
 100 673 106 672 110 671 c 1
94 235 m 2
 94 310 92 368 84 411 c 1
 86 414 l 1
 126 417 150 429 175 439 c 1
 181 439 184 436 184 429 c 0
 176 368 174 326 174 251 c 2
 174 180 l 2
 174 104 176 57 184 0 c 1
 182 -3 l 1
 182 -3 168 0 134 0 c 0
 99 0 85 -3 85 -3 c 1
 84 0 l 1
 92 54 94 105 94 180 c 2
 94 235 l 2
EndSplineSet
Substitution2: "'smcp' Gemeine nach Kapit+AOQA-lchen lookup 3 subtable" igrave.sc
AlternateSubs2: "'aalt' Access All Alternates lookup 0 subtable" igrave.sc
EndChar

StartChar: iacute
Encoding: 237 237 173
Width: 268
GlyphClass: 2
Flags: MW
HStem: -3 21G<85 85 182 182> 419 20G<175 178>
VStem: 94 80<180 235 235 251 142 272.5>
LayerCount: 2
Fore
SplineSet
174 671 m 1
 177 672 183 673 188 673 c 0
 194.389 673 220 672 243 650 c 1
 246 639 l 1
 131 530 l 2
 116 515 108 511 101 511 c 0
 94 511 87 517 87 524 c 0
 87 535.2 90.3008 539.174 98.4443 552 c 2
 174 671 l 1
94 235 m 2
 94 310 92 368 84 411 c 1
 86 414 l 1
 126 417 150 429 175 439 c 1
 181 439 184 436 184 429 c 0
 176 368 174 326 174 251 c 2
 174 180 l 2
 174 104 176 57 184 0 c 1
 182 -3 l 1
 182 -3 168 0 134 0 c 0
 99 0 85 -3 85 -3 c 1
 84 0 l 1
 92 54 94 105 94 180 c 2
 94 235 l 2
EndSplineSet
Substitution2: "'smcp' Gemeine nach Kapit+AOQA-lchen lookup 3 subtable" iacute.sc
AlternateSubs2: "'aalt' Access All Alternates lookup 0 subtable" iacute.sc
EndChar

StartChar: icircumflex
Encoding: 238 238 174
Width: 268
GlyphClass: 2
Flags: MW
HStem: -3 21G<85 85 182 182> 419 20G<175 178> 626 20G<111 161 161 161>
VStem: 94 80<180 235 235 251 142 272.5>
LayerCount: 2
Fore
SplineSet
161 646 m 1
 190 599 226 557 262 517 c 1
 241 503 l 1
 202 532 169 557 135 593 c 1
 98 555 66 530 28 503 c 1
 8 517 l 1
 44 557 82 600 111 646 c 1
 161 646 l 1
94 235 m 2
 94 310 92 368 84 411 c 1
 86 414 l 1
 126 417 150 429 175 439 c 1
 181 439 184 436 184 429 c 0
 176 368 174 326 174 251 c 2
 174 180 l 2
 174 104 176 57 184 0 c 1
 182 -3 l 1
 182 -3 168 0 134 0 c 0
 99 0 85 -3 85 -3 c 1
 84 0 l 1
 92 54 94 105 94 180 c 2
 94 235 l 2
EndSplineSet
Substitution2: "'smcp' Gemeine nach Kapit+AOQA-lchen lookup 3 subtable" icircumflex.sc
AlternateSubs2: "'aalt' Access All Alternates lookup 0 subtable" icircumflex.sc
EndChar

StartChar: idieresis
Encoding: 239 239 175
Width: 268
GlyphClass: 2
Flags: MW
HStem: -3 21G<85 85 182 182> 419 20G<175 178> 527 92<44.5 69.5 204.5 229.5>
VStem: 11 92<560.5 585.5> 94 80<180 235 235 251 142 272.5> 171 92<560.5 585.5>
LayerCount: 2
Fore
SplineSet
11 573 m 0xf0
 11 598 32 619 57 619 c 0
 82 619 103 598 103 573 c 0
 103 548 82 527 57 527 c 0
 32 527 11 548 11 573 c 0xf0
171 573 m 0xe4
 171 598 192 619 217 619 c 0
 242 619 263 598 263 573 c 0
 263 548 242 527 217 527 c 0
 192 527 171 548 171 573 c 0xe4
94 235 m 2xe8
 94 310 92 368 84 411 c 1
 86 414 l 1
 126 417 150 429 175 439 c 1
 181 439 184 436 184 429 c 0
 176 368 174 326 174 251 c 2
 174 180 l 2
 174 104 176 57 184 0 c 1
 182 -3 l 1
 182 -3 168 0 134 0 c 0
 99 0 85 -3 85 -3 c 1
 84 0 l 1
 92 54 94 105 94 180 c 2
 94 235 l 2xe8
EndSplineSet
Substitution2: "'smcp' Gemeine nach Kapit+AOQA-lchen lookup 3 subtable" idieresis.sc
AlternateSubs2: "'aalt' Access All Alternates lookup 0 subtable" idieresis.sc
EndChar

StartChar: eth
Encoding: 240 240 176
Width: 495
GlyphClass: 2
Flags: MW
HStem: -10 41<216.5 275.5 216.5 291> 398 41<211 265 211 271.5> 678 20G<145 145 357 357>
VStem: 34 90<168 263 168 294.5> 368 88<152.5 246>
LayerCount: 2
Fore
SplineSet
252 31 m 0
 299 31 368 61 368 223 c 0
 368 269 364 313 352 356 c 1
 329 385 293 398 250 398 c 0
 149 398 124 301 124 225 c 0
 124 111 181 31 252 31 c 0
34 208 m 0
 34 381 170 439 252 439 c 0
 278 439 304 435 329 425 c 1
 307 478 276 526 239 572 c 1
 130 499 l 1
 108 531 l 1
 213 602 l 1
 197 618 l 2
 176 640 150 659 126 676 c 1
 145 698 l 1
 180 679 216 655 251 627 c 1
 357 698 l 1
 379 666 l 1
 282 601 l 1
 300 583 l 2
 389.5 493.5 456 383 456 237 c 0
 456 68 347 -10 235 -10 c 0
 111 -10 34 104 34 208 c 0
EndSplineSet
Substitution2: "'smcp' Gemeine nach Kapit+AOQA-lchen lookup 3 subtable" eth.sc
AlternateSubs2: "'aalt' Access All Alternates lookup 0 subtable" eth.sc
EndChar

StartChar: ntilde
Encoding: 241 241 177
Width: 523
GlyphClass: 2
Flags: MW
HStem: -3 21G<75 75 172 172 349 349 446 446> 381 58<299.5 321.5> 526 44<332.5 352> 574 46<198 219.5>
VStem: 84 79.999<180 235 235 272.333> 138 24<526 531> 358 80<180 278 278 281> 392 24<616 622>
LayerCount: 2
Fore
SplineSet
342 570 m 0xf5
 364 570 378 580 392 622 c 1
 416 616 l 1
 404 556 375 526 329 526 c 0
 307 526 286 538 265 552 c 0
 247 563 228 574 211 574 c 0
 185 574 172 559 162 526 c 1
 138 531 l 1
 152 590 175 620 218 620 c 0
 248 620 270 606 290 592 c 0
 306 580 323 570 342 570 c 0xf5
438 180 m 2xfa
 438 104 439 57 448 0 c 1
 446 -3 l 1
 446 -3 432 0 398 0 c 0
 363 0 349 -3 349 -3 c 1
 348 0 l 1
 357 54 358 105 358 180 c 2
 358 278 l 2
 358 348 348 381 295 381 c 0
 251 381 214.999 367 163.999 307 c 1
 163.999 180 l 2
 163.999 104 165.5 57 174 0 c 1
 172 -3 l 1
 172 -3 158.333 0 124 0 c 0
 89 0 75 -3 75 -3 c 1
 74 0 l 1
 82.5 53.5 84 105 84 180 c 2
 84 235 l 2xfa
 84 309.667 81.667 368.333 74 411 c 1
 76 414 l 1
 116.5 417 136.931 428.972 162 439 c 1xf4
 168.333 439 171 436 171 429 c 1
 166 398.667 161.806 356.998 161.806 356.998 c 1
 163.999 356.998 l 1
 227.999 431.998 274 439 325 439 c 0
 415 439 438 370 438 281 c 2
 438 180 l 2xfa
EndSplineSet
Substitution2: "'smcp' Gemeine nach Kapit+AOQA-lchen lookup 3 subtable" ntilde.sc
AlternateSubs2: "'aalt' Access All Alternates lookup 0 subtable" ntilde.sc
EndChar

StartChar: ograve
Encoding: 242 242 178
Width: 510
GlyphClass: 2
Flags: MW
HStem: -10 41<217 291.5 217 326.5> 398 41<207 292.5>
VStem: 36 90<189.5 271.5 189.5 273.5> 384 90<160.5 260.5>
LayerCount: 2
Fore
SplineSet
234 671 m 1
 304 545 l 2
 309 535 310 528 310 521 c 0
 310 516 303 510 295 510 c 0
 289 510 282 515 266 530 c 2
 152 639 l 1
 154 650 l 1
 162 656 185 673 219 673 c 0
 224 673 230 672 234 671 c 1
36 205 m 0
 36 342 126 439 257 439 c 0
 414 439 474 318 474 214 c 0
 474 107 398 -10 255 -10 c 0
 117 -10 36 95 36 205 c 0
250 398 m 0
 164 398 126 315 126 228 c 0
 126 151 165 31 269 31 c 0
 314 31 384 63 384 187 c 0
 384 334 335 398 250 398 c 0
EndSplineSet
Substitution2: "'smcp' Gemeine nach Kapit+AOQA-lchen lookup 3 subtable" ograve.sc
AlternateSubs2: "'aalt' Access All Alternates lookup 0 subtable" ograve.sc
EndChar

StartChar: oacute
Encoding: 243 243 179
Width: 510
GlyphClass: 2
Flags: MW
HStem: -10 41<217 291.5 217 326.5> 398 41<207 292.5>
VStem: 36 90<189.5 271.5 189.5 273.5> 384 90<160.5 260.5>
LayerCount: 2
Fore
SplineSet
280 671 m 1
 283 672 289 673 294 673 c 0
 300.389 673 326 672 349 650 c 1
 352 639 l 1
 237 530 l 2
 222 515 214 511 207 511 c 0
 200 511 193 517 193 524 c 0
 193 535.2 196.301 539.174 204.444 552 c 2
 280 671 l 1
36 205 m 0
 36 342 126 439 257 439 c 0
 414 439 474 318 474 214 c 0
 474 107 398 -10 255 -10 c 0
 117 -10 36 95 36 205 c 0
250 398 m 0
 164 398 126 315 126 228 c 0
 126 151 165 31 269 31 c 0
 314 31 384 63 384 187 c 0
 384 334 335 398 250 398 c 0
EndSplineSet
Substitution2: "'smcp' Gemeine nach Kapit+AOQA-lchen lookup 3 subtable" oacute.sc
AlternateSubs2: "'aalt' Access All Alternates lookup 0 subtable" oacute.sc
EndChar

StartChar: ocircumflex
Encoding: 244 244 180
Width: 510
GlyphClass: 2
Flags: MW
HStem: -10 41<217 291.5 217 326.5> 398 41<207 292.5> 626 20G<227 277 277 277>
VStem: 36 90<189.5 271.5 189.5 273.5> 384 90<160.5 260.5>
LayerCount: 2
Fore
SplineSet
277 646 m 1
 306 599 342 557 378 517 c 1
 357 503 l 1
 318 532 285 557 251 593 c 1
 214 555 182 530 144 503 c 1
 124 517 l 1
 160 557 198 600 227 646 c 1
 277 646 l 1
36 205 m 0
 36 342 126 439 257 439 c 0
 414 439 474 318 474 214 c 0
 474 107 398 -10 255 -10 c 0
 117 -10 36 95 36 205 c 0
250 398 m 0
 164 398 126 315 126 228 c 0
 126 151 165 31 269 31 c 0
 314 31 384 63 384 187 c 0
 384 334 335 398 250 398 c 0
EndSplineSet
Substitution2: "'smcp' Gemeine nach Kapit+AOQA-lchen lookup 3 subtable" ocircumflex.sc
AlternateSubs2: "'aalt' Access All Alternates lookup 0 subtable" ocircumflex.sc
EndChar

StartChar: otilde
Encoding: 245 245 181
Width: 510
GlyphClass: 2
Flags: MW
HStem: -10 41<217 291.5 217 326.5> 398 41<207 292.5> 526 44<304.5 324> 574 46<170 191.5>
VStem: 36 90<189.5 271.5 189.5 273.5> 110 24<526 531> 364 24<616 622> 384 90<160.5 260.5>
LayerCount: 2
Fore
SplineSet
314 570 m 0xf6
 336 570 350 580 364 622 c 1
 388 616 l 1
 376 556 347 526 301 526 c 0
 279 526 258 538 237 552 c 0
 219 563 200 574 183 574 c 0
 157 574 144 559 134 526 c 1
 110 531 l 1
 124 590 147 620 190 620 c 0
 220 620 242 606 262 592 c 0
 278 580 295 570 314 570 c 0xf6
36 205 m 0xf9
 36 342 126 439 257 439 c 0
 414 439 474 318 474 214 c 0
 474 107 398 -10 255 -10 c 0
 117 -10 36 95 36 205 c 0xf9
250 398 m 0
 164 398 126 315 126 228 c 0
 126 151 165 31 269 31 c 0
 314 31 384 63 384 187 c 0
 384 334 335 398 250 398 c 0
EndSplineSet
Substitution2: "'smcp' Gemeine nach Kapit+AOQA-lchen lookup 3 subtable" otilde.sc
AlternateSubs2: "'aalt' Access All Alternates lookup 0 subtable" otilde.sc
EndChar

StartChar: odieresis
Encoding: 246 246 182
Width: 510
GlyphClass: 2
Flags: MW
HStem: -10 41<217 291.5 217 326.5> 398 41<207 292.5> 527 92<159.5 184.5 319.5 344.5>
VStem: 36 90<189.5 271.5 189.5 273.5> 126 92<560.5 585.5> 286 92<560.5 585.5> 384 90<160.5 260.5>
LayerCount: 2
Fore
SplineSet
126 573 m 0
 126 598 147 619 172 619 c 0
 197 619 218 598 218 573 c 0
 218 548 197 527 172 527 c 0
 147 527 126 548 126 573 c 0
286 573 m 0
 286 598 307 619 332 619 c 0
 357 619 378 598 378 573 c 0
 378 548 357 527 332 527 c 0
 307 527 286 548 286 573 c 0
36 205 m 0
 36 342 126 439 257 439 c 0
 414 439 474 318 474 214 c 0
 474 107 398 -10 255 -10 c 0
 117 -10 36 95 36 205 c 0
250 398 m 0
 164 398 126 315 126 228 c 0
 126 151 165 31 269 31 c 0
 314 31 384 63 384 187 c 0
 384 334 335 398 250 398 c 0
EndSplineSet
Substitution2: "'smcp' Gemeine nach Kapit+AOQA-lchen lookup 3 subtable" odieresis.sc
AlternateSubs2: "'aalt' Access All Alternates lookup 0 subtable" odieresis.sc
EndChar

StartChar: divide
Encoding: 247 247 183
Width: 527
GlyphClass: 2
Flags: MW
HStem: 53.6182 93.8721<263.52 266.872 263.52 266.872> 208 49<66 461 66 461> 321.618 93.8721<263.52 266.872 263.52 266.872>
VStem: 218.26 93.8711<98.8779 102.23 98.8779 102.23 366.878 370.23>
LayerCount: 2
Fore
SplineSet
218.26 366.878 m 1
 218.26 370.23 l 1
 226.013 392.441 238.165 405.223 263.52 415.49 c 1
 266.872 415.49 l 1
 291.178 406.689 304.379 393.908 312.131 370.23 c 1
 312.131 366.878 l 1
 303.54 339.848 290.549 327.485 266.872 321.618 c 1
 263.52 321.618 l 1
 237.327 327.485 225.594 338.801 218.26 366.878 c 1
218.26 98.8779 m 1
 218.26 102.23 l 1
 226.013 124.441 238.165 137.223 263.52 147.49 c 1
 266.872 147.49 l 1
 291.178 138.689 304.379 125.908 312.131 102.23 c 1
 312.131 98.8779 l 1
 303.54 71.8477 290.549 59.4854 266.872 53.6182 c 1
 263.52 53.6182 l 1
 237.327 59.4854 225.594 70.8008 218.26 98.8779 c 1
461 257 m 1
 461 208 l 1
 66 208 l 1
 66 257 l 1
 461 257 l 1
EndSplineSet
EndChar

StartChar: oslash
Encoding: 248 248 184
Width: 510
GlyphClass: 2
Flags: MW
HStem: -10 41<246.895 291.5 246.895 326.5> 398 41<207 269.497>
VStem: 36 90<211.796 271.5 211.796 273.5> 384 90<160.5 214.914>
LayerCount: 2
Fore
SplineSet
424 454 m 1
 455 431 l 1
 412.386 379.117 l 1
 455.562 334.525 474 271.65 474 214 c 0
 474 107 398 -10 255 -10 c 0
 203.178 -10 159.394 4.80664 124.918 29.124 c 1
 77.999 -28 l 1
 47.999 -2 l 1
 94.9678 54.9619 l 1
 56.6885 95.0918 36 149.407 36 205 c 0
 36 342 126 439 257 439 c 0
 309.177 439 350.641 425.636 382.749 403.973 c 1
 424 454 l 1
250 398 m 0
 164 398 126 315 126 228 c 0
 126 195.593 132.908 155.569 148.663 120.08 c 1
 342.996 355.761 l 1
 320.41 384.531 288.993 398 250 398 c 0
363.51 319.61 m 1
 169.608 83.5352 l 1
 192.324 52.6855 224.789 31 269 31 c 0
 314 31 384 63 384 187 c 0
 384 242.828 376.933 286.685 363.51 319.61 c 1
EndSplineSet
Substitution2: "'smcp' Gemeine nach Kapit+AOQA-lchen lookup 3 subtable" oslash.sc
AlternateSubs2: "'aalt' Access All Alternates lookup 0 subtable" oslash.sc
EndChar

StartChar: ugrave
Encoding: 249 249 185
Width: 521
GlyphClass: 2
Flags: MW
HStem: -10 55<223 232.5> -3 21G<363 366 445 445> 412 20G<76 76 173 173 342 342 439 439>
VStem: 84 80<126 150 150 249> 350 80<154.5 192 192 249 154.5 287>
LayerCount: 2
Fore
SplineSet
228 671 m 1x38
 298 545 l 2
 303 535 304 528 304 521 c 0
 304 516 297 510 289 510 c 0
 283 510 276 515 260 530 c 2
 146 639 l 1
 148 650 l 1
 156 656 179 673 213 673 c 0
 218 673 224 672 228 671 c 1x38
350 64 m 1
 294 4 253 -10 212 -10 c 0
 113 -10 84 57 84 126 c 2
 84 249 l 2
 84 325 83 372 74 429 c 1
 76 432 l 1
 76 432 90 429 124 429 c 0
 159 429 173 432 173 432 c 1
 174 429 l 1
 165 376 164 324 164 249 c 2
 164 150 l 2
 164 61 208 45 238 45 c 0xb8
 282.8 45 323.915 88.1729 350 119 c 1
 350 249 l 2
 350 325 349 372 340 429 c 1
 342 432 l 1
 342 432 356 429 390 429 c 0
 425 429 439 432 439 432 c 1
 440 429 l 1
 431 376 430 324 430 249 c 2
 430 192 l 2
 430 117 439 43 447 0 c 1
 445 -3 l 1
 432 -1 413.127 0 400.5 0 c 0
 386 0 379.333 -1.33301 366 -3 c 0x78
 360 -3 357 -2 357 0 c 2
 352 64 l 1
 350 64 l 1
EndSplineSet
Substitution2: "'smcp' Gemeine nach Kapit+AOQA-lchen lookup 3 subtable" ugrave.sc
AlternateSubs2: "'aalt' Access All Alternates lookup 0 subtable" ugrave.sc
EndChar

StartChar: uacute
Encoding: 250 250 186
Width: 521
GlyphClass: 2
Flags: MW
HStem: -10 55<223 232.5> -3 21G<363 366 445 445> 412 20G<76 76 173 173 342 342 439 439>
VStem: 84 80<126 150 150 249> 350 80<154.5 192 192 249 154.5 287>
LayerCount: 2
Fore
SplineSet
306 671 m 1x38
 309 672 315 673 320 673 c 0
 326.389 673 352 672 375 650 c 1
 378 639 l 1
 263 530 l 2
 248 515 240 511 233 511 c 0
 226 511 219 517 219 524 c 0
 219 535.2 222.301 539.174 230.444 552 c 2
 306 671 l 1x38
350 64 m 1
 294 4 253 -10 212 -10 c 0
 113 -10 84 57 84 126 c 2
 84 249 l 2
 84 325 83 372 74 429 c 1
 76 432 l 1
 76 432 90 429 124 429 c 0
 159 429 173 432 173 432 c 1
 174 429 l 1
 165 376 164 324 164 249 c 2
 164 150 l 2
 164 61 208 45 238 45 c 0xb8
 282.8 45 323.915 88.1729 350 119 c 1
 350 249 l 2
 350 325 349 372 340 429 c 1
 342 432 l 1
 342 432 356 429 390 429 c 0
 425 429 439 432 439 432 c 1
 440 429 l 1
 431 376 430 324 430 249 c 2
 430 192 l 2
 430 117 439 43 447 0 c 1
 445 -3 l 1
 432 -1 413.127 0 400.5 0 c 0
 386 0 379.333 -1.33301 366 -3 c 0x78
 360 -3 357 -2 357 0 c 2
 352 64 l 1
 350 64 l 1
EndSplineSet
Substitution2: "'smcp' Gemeine nach Kapit+AOQA-lchen lookup 3 subtable" uacute.sc
AlternateSubs2: "'aalt' Access All Alternates lookup 0 subtable" uacute.sc
EndChar

StartChar: ucircumflex
Encoding: 251 251 187
Width: 521
GlyphClass: 2
Flags: MW
HStem: -10 55<223 232.5> -3 21G<363 366 445 445> 412 20G<76 76 173 173 342 342 439 439> 626 20G<231 281 281 281>
VStem: 84 80<126 150 150 249> 350 80<154.5 192 192 249 154.5 287>
LayerCount: 2
Fore
SplineSet
281 646 m 1x3c
 310 599 346 557 382 517 c 1
 361 503 l 1
 322 532 289 557 255 593 c 1
 218 555 186 530 148 503 c 1
 128 517 l 1
 164 557 202 600 231 646 c 1
 281 646 l 1x3c
350 64 m 1
 294 4 253 -10 212 -10 c 0
 113 -10 84 57 84 126 c 2
 84 249 l 2
 84 325 83 372 74 429 c 1
 76 432 l 1
 76 432 90 429 124 429 c 0
 159 429 173 432 173 432 c 1
 174 429 l 1
 165 376 164 324 164 249 c 2
 164 150 l 2
 164 61 208 45 238 45 c 0xbc
 282.8 45 323.915 88.1729 350 119 c 1
 350 249 l 2
 350 325 349 372 340 429 c 1
 342 432 l 1
 342 432 356 429 390 429 c 0
 425 429 439 432 439 432 c 1
 440 429 l 1
 431 376 430 324 430 249 c 2
 430 192 l 2
 430 117 439 43 447 0 c 1
 445 -3 l 1
 432 -1 413.127 0 400.5 0 c 0
 386 0 379.333 -1.33301 366 -3 c 0x7c
 360 -3 357 -2 357 0 c 2
 352 64 l 1
 350 64 l 1
EndSplineSet
Substitution2: "'smcp' Gemeine nach Kapit+AOQA-lchen lookup 3 subtable" ucircumflex.sc
AlternateSubs2: "'aalt' Access All Alternates lookup 0 subtable" ucircumflex.sc
EndChar

StartChar: udieresis
Encoding: 252 252 188
Width: 521
GlyphClass: 2
Flags: MW
HStem: -10 55<223 232.5> -3 21G<363 366 445 445> 412 20G<76 76 173 173 342 342 439 439> 527 92<169.5 194.5 329.5 354.5>
VStem: 84 80<126 150 150 249> 136 92<560.5 585.5> 296 92<560.5 585.5> 350 80<154.5 192 192 249 154.5 287>
LayerCount: 2
Fore
SplineSet
136 573 m 0x34
 136 598 157 619 182 619 c 0
 207 619 228 598 228 573 c 0
 228 548 207 527 182 527 c 0
 157 527 136 548 136 573 c 0x34
296 573 m 0x32
 296 598 317 619 342 619 c 0
 367 619 388 598 388 573 c 0
 388 548 367 527 342 527 c 0
 317 527 296 548 296 573 c 0x32
350 64 m 1x79
 294 4 253 -10 212 -10 c 0
 113 -10 84 57 84 126 c 2
 84 249 l 2
 84 325 83 372 74 429 c 1
 76 432 l 1
 76 432 90 429 124 429 c 0
 159 429 173 432 173 432 c 1
 174 429 l 1
 165 376 164 324 164 249 c 2
 164 150 l 2
 164 61 208 45 238 45 c 0xb9
 282.8 45 323.915 88.1729 350 119 c 1
 350 249 l 2
 350 325 349 372 340 429 c 1
 342 432 l 1
 342 432 356 429 390 429 c 0
 425 429 439 432 439 432 c 1
 440 429 l 1
 431 376 430 324 430 249 c 2
 430 192 l 2
 430 117 439 43 447 0 c 1
 445 -3 l 1
 432 -1 413.127 0 400.5 0 c 0
 386 0 379.333 -1.33301 366 -3 c 0
 360 -3 357 -2 357 0 c 2
 352 64 l 1
 350 64 l 1x79
EndSplineSet
Substitution2: "'smcp' Gemeine nach Kapit+AOQA-lchen lookup 3 subtable" udieresis.sc
AlternateSubs2: "'aalt' Access All Alternates lookup 0 subtable" udieresis.sc
EndChar

StartChar: yacute
Encoding: 253 253 189
Width: 486
GlyphClass: 2
Flags: MW
HStem: -237 21G 412 20G
VStem: 94 84<-237 -237>
LayerCount: 2
Fore
SplineSet
297 671 m 1
 300 672 306 673 311 673 c 0
 317.389 673 343 672 366 650 c 1
 369 639 l 1
 254 530 l 2
 239 515 231 511 224 511 c 0
 217 511 210 517 210 524 c 0
 210 535.2 213.301 539.174 221.444 552 c 2
 297 671 l 1
18 432 m 1
 32 429 57 429 70 429 c 0
 84 429 106 429 119 432 c 1
 156.409 317.804 203.479 206.516 252.668 87.6396 c 1
 254.668 87.6396 l 1
 303.291 191.242 349.963 319.019 386 432 c 1
 396 429 415 429 425 429 c 0
 435 429 458 429 468 432 c 1
 435 365 216 -112 178 -237 c 1
 168 -234 139 -232 129 -232 c 0
 119 -232 104 -234 94 -237 c 1
 139.19 -161.683 173.835 -93.8047 205.85 -19.1484 c 1
 170.436 75.9375 57.7949 343.227 18 432 c 1
EndSplineSet
Substitution2: "'smcp' Gemeine nach Kapit+AOQA-lchen lookup 3 subtable" yacute.sc
AlternateSubs2: "'aalt' Access All Alternates lookup 0 subtable" yacute.sc
EndChar

StartChar: thorn
Encoding: 254 254 190
Width: 515
GlyphClass: 2
Flags: MW
HStem: -235 21G<73.999 73.999 170.999 170.999> -10 39<239.5 301 239.5 310.908> 388 51<260.404 291> 678 20G<163.999 167.166>
VStem: 83 80 379 96<164.5 280.861>
AnchorPoint: "Anker-5" 279 551 basechar 0
AnchorPoint: "Anker-4" 278 646 basechar 0
LayerCount: 2
Fore
SplineSet
163 306 m 1
 163 72 l 1
 197 31 231 29 248 29 c 0
 354 29 379 121 379 208 c 0
 379 353.723 313 388 269 388 c 0
 234 388 185 359 163 306 c 1
163 -32 m 2
 163 -107.234 164.499 -175 172.999 -232 c 1
 170.999 -235 l 1
 170.999 -235 157.332 -232 122.999 -232 c 0
 87.999 -232 73.999 -235 73.999 -235 c 1
 72.999 -232 l 1
 81.499 -178.5 82.999 -106.503 82.999 -32 c 2
 82.999 482 l 2
 82.999 558 80.666 627.333 72.999 670 c 1
 74.999 673 l 1
 115.499 676 138.93 687.972 163.999 698 c 1
 170.332 698 172.999 695 172.999 688 c 0
 165.332 626.667 162.999 575 162.999 500 c 2
 162.999 392 l 1
 161.999 359 l 1
 181.276 390.325 225.809 439 295 439 c 0
 392 439 475 340 475 235 c 0
 475 86.0439 368.816 -10 253 -10 c 0
 217 -10 189 -2 163 12 c 1
 163 -32 l 2
EndSplineSet
Substitution2: "'smcp' Gemeine nach Kapit+AOQA-lchen lookup 3 subtable" thorn.sc
AlternateSubs2: "'aalt' Access All Alternates lookup 0 subtable" thorn.sc
EndChar

StartChar: ydieresis
Encoding: 255 255 191
Width: 486
GlyphClass: 2
Flags: MW
HStem: -237 21G 412 20G 527 92<159.5 184.5 319.5 344.5>
VStem: 94 84<-237 -237> 126 92<560.5 585.5> 286 92<560.5 585.5>
LayerCount: 2
Fore
SplineSet
126 573 m 0xec
 126 598 147 619 172 619 c 0
 197 619 218 598 218 573 c 0
 218 548 197 527 172 527 c 0
 147 527 126 548 126 573 c 0xec
286 573 m 0
 286 598 307 619 332 619 c 0
 357 619 378 598 378 573 c 0
 378 548 357 527 332 527 c 0
 307 527 286 548 286 573 c 0
18 432 m 1
 32 429 57 429 70 429 c 0
 84 429 106 429 119 432 c 1
 156.409 317.804 203.479 206.516 252.668 87.6396 c 1
 254.668 87.6396 l 1
 303.291 191.242 349.963 319.019 386 432 c 1
 396 429 415 429 425 429 c 0
 435 429 458 429 468 432 c 1
 435 365 216 -112 178 -237 c 1
 168 -234 139 -232 129 -232 c 0
 119 -232 104 -234 94 -237 c 1xf4
 139.19 -161.683 173.835 -93.8047 205.85 -19.1484 c 1
 170.436 75.9375 57.7949 343.227 18 432 c 1
EndSplineSet
Substitution2: "'smcp' Gemeine nach Kapit+AOQA-lchen lookup 3 subtable" ydieresis.sc
AlternateSubs2: "'aalt' Access All Alternates lookup 0 subtable" ydieresis.sc
EndChar

StartChar: Amacron
Encoding: 256 256 192
Width: 633
GlyphClass: 2
Flags: MW
HStem: -3 21G 230 44 638 20G 726 44<195.5 454 209 444>
LayerCount: 2
Fore
SplineSet
444 726 m 2
 200 726 l 2
 191 726 187 734 187 741 c 0
 187 753 198 770 209 770 c 2
 454 770 l 2
 464 770 468 762 468 756 c 0
 468 744 457 726 444 726 c 2
180.974 228.262 m 1
 145.305 140.771 114.353 58.3291 97.998 -2.99902 c 1
 85.998 0.000976562 63.998 0.000976562 52.998 0.000976562 c 0
 41.998 0.000976562 29.998 0.000976562 17.998 -2.99902 c 1
 312.998 658.001 l 1
 340.998 658.001 l 1
 432.998 439.001 564.998 98.001 614.998 -2.99902 c 1
 597.998 0.000976562 571.998 0.000976562 554.998 0.000976562 c 0
 537.998 0.000976562 521.998 0.000976562 504.998 -2.99902 c 1
 498.86 19.166 476.296 97.1348 427.268 228.284 c 1
 389.544 229.182 348.017 230.001 309.999 230.001 c 0
 275.48 230.001 218.977 229.164 180.974 228.262 c 1
409.321 275.549 m 1
 382.469 345.224 349.089 427.395 308.03 521.763 c 1
 306.03 521.763 l 1
 200.64 275.916 l 1
 232.372 275.538 276.058 274 304.999 274 c 0
 334.69 274 376.467 274.72 409.321 275.549 c 1
EndSplineSet
Position2: "'cpsp' Capital Spacing lookup 0 subtable" dx=2 dy=0 dh=5 dv=0
EndChar

StartChar: amacron
Encoding: 257 257 193
Width: 461
GlyphClass: 2
Flags: MW
HStem: -10 51<168 186> 394 45<180.5 220> 538 44<83.5 342 97 332>
VStem: 42 81<86.5 124.5 86.5 132> 291 77<48 90.5>
LayerCount: 2
Fore
SplineSet
332 538 m 2
 88 538 l 2
 79 538 75 546 75 553 c 0
 75 565 86 582 97 582 c 2
 342 582 l 2
 352 582 356 574 356 568 c 0
 356 556 345 538 332 538 c 2
292 223 m 1
 212 202 l 2
 138.104 182.603 123 147 123 102 c 0
 123 71 147 41 189 41 c 0
 217 41 249 63 275 84 c 0
 283 90 289 97 289 110 c 2
 292 223 l 1
368 76 m 0
 368 56 373 45 384 45 c 0
 398 45 411 59 420 66 c 1
 423 64 l 1
 439 43 l 1
 408 3 382 -10 351 -10 c 0
 304 -10 293 32 291 48 c 1
 289 48 l 1
 239 3 212 -10 160 -10 c 0
 90 -10 42 24 42 98 c 0
 42 166 103 220 199 243 c 2
 287 264 l 2
 290 265 293 269 293 276 c 0
 293 389 237 394 203 394 c 0
 158 394 116 350 90 305 c 1
 77 306 l 1
 61 373 l 1
 64 377 l 1
 88 398 140 439 212 439 c 0
 284 439 372 412 372 277 c 0
 372 266 368 105 368 76 c 0
EndSplineSet
EndChar

StartChar: Abreve
Encoding: 258 258 194
Width: 633
GlyphClass: 2
Flags: MW
HStem: -3 21G 230 44 638 20G 691 52<303.5 354.5 303.5 363>
VStem: 194 28<804 804> 438 28<804 804>
LayerCount: 2
Fore
SplineSet
466 804 m 1
 460 733 396 691 330 691 c 0
 257 691 199 734 194 804 c 1
 222 804 l 1
 230 765 277 743 330 743 c 0
 379 743 431 765 438 804 c 1
 466 804 l 1
180.974 228.262 m 1
 145.305 140.771 114.353 58.3291 97.998 -2.99902 c 1
 85.998 0.000976562 63.998 0.000976562 52.998 0.000976562 c 0
 41.998 0.000976562 29.998 0.000976562 17.998 -2.99902 c 1
 312.998 658.001 l 1
 340.998 658.001 l 1
 432.998 439.001 564.998 98.001 614.998 -2.99902 c 1
 597.998 0.000976562 571.998 0.000976562 554.998 0.000976562 c 0
 537.998 0.000976562 521.998 0.000976562 504.998 -2.99902 c 1
 498.86 19.166 476.296 97.1348 427.268 228.284 c 1
 389.544 229.182 348.017 230.001 309.999 230.001 c 0
 275.48 230.001 218.977 229.164 180.974 228.262 c 1
409.321 275.549 m 1
 382.469 345.224 349.089 427.395 308.03 521.763 c 1
 306.03 521.763 l 1
 200.64 275.916 l 1
 232.372 275.538 276.058 274 304.999 274 c 0
 334.69 274 376.467 274.72 409.321 275.549 c 1
EndSplineSet
Substitution2: "'c2sc' Capitals to Small Capitals lookup 9 subtable" abreve.sc
Position2: "'cpsp' Capital Spacing lookup 0 subtable" dx=2 dy=0 dh=5 dv=0
EndChar

StartChar: abreve
Encoding: 259 259 195
Width: 461
GlyphClass: 2
Flags: MW
HStem: -10 51<168 186> 394 45<180.5 220> 500 57<178.981 232 178.981 235.5> 627 20G<98 98 314 314>
VStem: 42 81<86.5 124.5 86.5 132> 71 27<635 647> 291 77<48 90.5> 314 27<635 647>
LayerCount: 2
Fore
SplineSet
98 647 m 1xf5
 109 594 151.963 557 206 557 c 0
 258 557 304 589 314 647 c 1
 341 635 l 1
 329 549 265 500 206 500 c 0
 135.993 500 85 550 71 635 c 1
 98 647 l 1xf5
292 223 m 1
 212 202 l 2
 138.104 182.603 123 147 123 102 c 0xf8
 123 71 147 41 189 41 c 0
 217 41 249 63 275 84 c 0
 283 90 289 97 289 110 c 2
 292 223 l 1
368 76 m 0xfa
 368 56 373 45 384 45 c 0
 398 45 411 59 420 66 c 1
 423 64 l 1
 439 43 l 1
 408 3 382 -10 351 -10 c 0
 304 -10 293 32 291 48 c 1
 289 48 l 1
 239 3 212 -10 160 -10 c 0
 90 -10 42 24 42 98 c 0
 42 166 103 220 199 243 c 2
 287 264 l 2
 290 265 293 269 293 276 c 0
 293 389 237 394 203 394 c 0
 158 394 116 350 90 305 c 1
 77 306 l 1
 61 373 l 1
 64 377 l 1
 88 398 140 439 212 439 c 0
 284 439 372 412 372 277 c 0
 372 266 368 105 368 76 c 0xfa
EndSplineSet
Substitution2: "'smcp' Gemeine nach Kapit+AOQA-lchen lookup 3 subtable" abreve.sc
AlternateSubs2: "'aalt' Access All Alternates lookup 0 subtable" abreve.sc
EndChar

StartChar: Aogonek
Encoding: 260 260 196
Width: 633
GlyphClass: 2
Flags: MW
HStem: -219 44 -3 21G<18 18 505 505> 230 44 638 20G<313 341 341 341>
VStem: 367 66
LayerCount: 2
Fore
SplineSet
545 -163 m 1
 518 -196 479.999 -219.001 445.999 -219.001 c 0
 396.999 -219.001 366.999 -190.001 366.999 -143.001 c 0
 366.999 -73.543 434.935 -14.915 496.558 26.0439 c 1
 485.152 63.8838 463.395 131.646 427.269 228.283 c 1
 389.545 229.181 348.018 230 310 230 c 0
 275.481 230 218.978 229.163 180.975 228.261 c 1
 145.306 140.771 114.354 58.3281 98 -3 c 1
 86 0 64 0 53 0 c 0
 42 0 30 0 18 -3 c 1
 313 658 l 1
 341 658 l 1
 433 439 565 98 615 -3 c 1
 598 0 572 0 555 0 c 0
 538 0 522 0 505 -3 c 1
 504.979 -2.9248 l 1
 458.761 -49.498 433 -83.6855 433 -132 c 0
 433 -153 449 -175 475 -175 c 0
 492 -175 514 -160 528 -145 c 1
 531 -146 l 1
 545 -163 l 1
409.321 275.548 m 1
 382.469 345.223 349.089 427.394 308.03 521.762 c 1
 306.03 521.762 l 1
 200.64 275.915 l 1
 232.372 275.537 276.058 273.999 304.999 273.999 c 0
 334.69 273.999 376.467 274.719 409.321 275.548 c 1
EndSplineSet
Substitution2: "'c2sc' Capitals to Small Capitals lookup 9 subtable" aogonek.sc
Position2: "'cpsp' Capital Spacing lookup 0 subtable" dx=2 dy=0 dh=5 dv=0
EndChar

StartChar: aogonek
Encoding: 261 261 197
Width: 461
GlyphClass: 2
Flags: MW
HStem: -209 44<362 363> -10 51<168 186> 394 45<180.5 220>
VStem: 42 81<86.5 124.5 86.5 132> 267 66<-132.5 -109.442> 293 79<272.5 332.5>
LayerCount: 2
Fore
SplineSet
445 -153 m 1xf8
 418 -186 380 -209 346 -209 c 0
 297 -209 267 -180 267 -133 c 0xf8
 267 -85.8848 298.259 -43.7529 337.603 -8.73926 c 1
 301.831 -1.62988 292.794 33.6465 291 48 c 1
 289 48 l 1
 239 3 212 -10 160 -10 c 0
 90 -10 42 24 42 98 c 0
 42 166 103 220 199 243 c 2
 287 264 l 2
 290 265 293 269 293 276 c 0
 293 389 237 394 203 394 c 0
 158 394 116 350 90 305 c 1
 77 306 l 1
 61 373 l 1
 64 377 l 1
 88 398 140 439 212 439 c 0
 284 439 372 412 372 277 c 0xf4
 372 266 368 105 368 76 c 0
 368 56 373 45 384 45 c 0
 398 45 411 59 420 66 c 1
 423 64 l 1
 439 43 l 1
 428.829 29.876 419.196 19.6582 409.748 11.8525 c 0
 360.536 -37.1982 333 -72.0488 333 -122 c 0
 333 -143 349 -165 375 -165 c 0
 392 -165 414 -150 428 -135 c 1
 431 -136 l 1
 445 -153 l 1xf8
292 223 m 1
 212 202 l 2
 138.104 182.603 123 147 123 102 c 0
 123 71 147 41 189 41 c 0
 217 41 249 63 275 84 c 0
 283 90 289 97 289 110 c 2
 292 223 l 1
EndSplineSet
Substitution2: "'smcp' Gemeine nach Kapit+AOQA-lchen lookup 3 subtable" aogonek.sc
AlternateSubs2: "'aalt' Access All Alternates lookup 0 subtable" aogonek.sc
EndChar

StartChar: Cacute
Encoding: 262 262 198
Width: 650
GlyphClass: 2
Flags: MW
HStem: -10 51<282.5 399.5> 611 47<310 396> 697 21G<263.5 272.5>
VStem: 37 103<261 413.5>
LayerCount: 2
Fore
SplineSet
392 819 m 1
 420.648 805.667 441.315 788.333 454 767 c 1
 310 709 l 2
 289 700 277 697 268 697 c 0
 259 697 253 704 253 712 c 0
 253 719 255.008 723.989 268 733 c 2
 392 819 l 1
365 658 m 0
 487 658 583 613 583 613 c 1
 585 609.999 l 1
 573.238 560.747 568.554 549.993 565 499 c 1
 555 498 l 1
 514 580 441 611 351 611 c 0
 269 611 140 537 140 334 c 0
 140 188 205 41 360 41 c 0
 453 41 521 62 592 140 c 1
 615 125 l 1
 547 36 448 -10 351 -10 c 0
 136 -10 37 154 37 315 c 0
 37 512 196 658 365 658 c 0
EndSplineSet
Substitution2: "'c2sc' Capitals to Small Capitals lookup 9 subtable" cacute.sc
Position2: "'cpsp' Capital Spacing lookup 0 subtable" dx=2 dy=0 dh=5 dv=0
EndChar

